<svg width="124" height="96" viewBox="0 0 124 96" fill="none" xmlns="http://www.w3.org/2000/svg">
<path d="M123 39.5329C123 45.8215 72.0294 58 62.478 58C52.9265 58 2 46.0429 2 38.8686C2 31.6944 2.0842 0 2.0842 0H122.903C122.903 0 123 33.2886 123 39.5329Z" fill="url(#paint0_linear)"/>
<path d="M9.37138 27.96C9.35538 27.992 9.33938 28.04 9.33938 28.072C9.33938 28.152 9.40338 28.232 9.46738 28.296C9.67538 28.52 10.4434 29.24 12.0274 29.24C13.1314 29.24 14.0594 28.904 14.7954 27.944C15.7074 26.76 15.8834 25.048 15.8834 23.544C15.8834 20.36 14.9554 17.768 12.2194 17.768C11.1474 17.768 10.3794 18.104 9.65938 18.728C9.49938 18.856 9.45138 18.952 9.45138 19.032C9.45138 19.08 9.48338 19.144 9.51538 19.192L10.0274 19.912C10.0754 19.992 10.1234 20.04 10.1874 20.04C10.2194 20.04 10.2514 20.024 10.2994 19.992L10.4914 19.848C10.8914 19.528 11.3554 19.176 12.0434 19.176C13.6754 19.176 14.0274 21.112 14.0274 22.424V22.584H11.1474C10.9874 22.584 10.8754 22.632 10.8754 22.856V23.768C10.8754 23.976 10.9554 24.024 11.1314 24.024H14.0274V24.232C14.0274 25.048 13.9314 27.832 11.8994 27.832C11.3074 27.832 10.9074 27.624 10.3794 27.24L10.2034 27.112C10.1554 27.064 10.0914 27.048 10.0434 27.048C9.97938 27.048 9.93138 27.08 9.86738 27.176L9.37138 27.96ZM19.6955 29C19.8715 29 19.9515 28.92 19.9515 28.744V24.008H20.7515C21.5035 24.008 21.9035 24.248 22.1595 25.4L22.5275 27.112C22.8635 28.68 23.5195 29.24 24.9435 29.24C25.1515 29.24 25.1995 29.208 25.2475 29.048L25.5835 28.04C25.5995 28.008 25.5995 27.976 25.5995 27.944C25.5995 27.784 25.4075 27.768 25.3595 27.752L25.0555 27.704C24.7035 27.64 24.3995 27.736 24.1275 26.568L23.7435 24.952C23.5515 24.232 23.0235 23.496 22.3675 23.272C23.1675 22.936 23.4395 22.216 23.5835 21.544L23.8075 20.536C23.9355 19.928 24.0635 19.384 24.6875 19.272L25.0075 19.208C25.1355 19.176 25.2155 19.112 25.2155 19C25.2155 18.968 25.2155 18.936 25.1995 18.904L24.9275 17.976C24.8795 17.816 24.7515 17.784 24.6395 17.784C24.2875 17.784 23.5195 17.976 23.0555 18.44C22.6235 18.872 22.4955 19.448 22.3675 20.024L22.0955 21.288C21.9515 22.008 21.5515 22.568 20.7675 22.568H19.9515V18.232C19.9515 18.104 19.8715 18.024 19.7595 18.024H18.3675C18.2875 18.024 18.2075 18.088 18.2075 18.2V28.744C18.2075 28.952 18.2875 29 18.4635 29H19.6955ZM33.0289 27.88L32.5489 27.112C32.5009 27.032 32.4369 27.016 32.3889 27.016C32.3089 27.016 32.2449 27.064 32.1649 27.128C31.6209 27.544 31.1409 27.752 30.6289 27.752C29.1729 27.752 28.4689 26.248 28.4689 23.144C28.4689 20.456 29.0929 19.24 30.4369 19.24C31.1249 19.24 31.6049 19.608 32.1169 20.008C32.1649 20.056 32.2449 20.088 32.3089 20.088C32.3569 20.088 32.4209 20.072 32.4529 20.008L32.9649 19.192C33.0129 19.112 33.0449 19.048 33.0449 18.984C33.0449 18.904 32.9969 18.824 32.8849 18.728C32.1969 18.136 31.2689 17.768 30.3729 17.768C27.3169 17.768 26.5969 20.92 26.5969 23.384C26.5969 27.192 27.9409 29.24 30.4689 29.24C31.3489 29.24 32.0529 29.048 32.9329 28.344C33.0609 28.232 33.1089 28.168 33.1089 28.088C33.1089 28.024 33.0769 27.96 33.0289 27.88ZM36.3361 29C36.5121 29 36.5921 28.92 36.5921 28.744V24.008H37.3921C38.1441 24.008 38.5441 24.248 38.8001 25.4L39.1681 27.112C39.5041 28.68 40.1601 29.24 41.5841 29.24C41.7921 29.24 41.8401 29.208 41.8881 29.048L42.2241 28.04C42.2401 28.008 42.2401 27.976 42.2401 27.944C42.2401 27.784 42.0481 27.768 42.0001 27.752L41.6961 27.704C41.3441 27.64 41.0401 27.736 40.7681 26.568L40.3841 24.952C40.1921 24.232 39.6641 23.496 39.0081 23.272C39.8081 22.936 40.0801 22.216 40.2241 21.544L40.4481 20.536C40.5761 19.928 40.7041 19.384 41.3281 19.272L41.6481 19.208C41.7761 19.176 41.8561 19.112 41.8561 19C41.8561 18.968 41.8561 18.936 41.8401 18.904L41.5681 17.976C41.5201 17.816 41.3921 17.784 41.2801 17.784C40.9281 17.784 40.1601 17.976 39.6961 18.44C39.2641 18.872 39.1361 19.448 39.0081 20.024L38.7361 21.288C38.5921 22.008 38.1921 22.568 37.4081 22.568H36.5921V18.232C36.5921 18.104 36.5121 18.024 36.4001 18.024H35.0081C34.9281 18.024 34.8481 18.088 34.8481 18.2V28.744C34.8481 28.952 34.9281 29 35.1041 29H36.3361ZM50.785 18.28C50.785 18.072 50.705 18.024 50.529 18.024H45.249C45.089 18.024 45.009 18.072 45.009 18.264V19.928C45.009 22.44 45.089 26.248 44.081 27.224C43.729 27.56 43.281 27.672 42.993 27.704L42.753 27.736C42.625 27.752 42.529 27.832 42.529 27.976C42.529 28.008 42.545 28.04 42.545 28.072L42.785 29.016C42.817 29.16 42.865 29.24 43.105 29.24C45.569 29.24 46.161 26.472 46.337 24.952C46.481 23.608 46.529 22.168 46.545 21.016L46.561 19.464H49.025V28.744C49.025 28.952 49.105 29 49.281 29H50.529C50.705 29 50.785 28.92 50.785 28.744V18.28ZM55.5456 22.6V18.28C55.5456 18.04 55.4336 18.024 55.2736 18.024H54.0736C53.8976 18.024 53.7856 18.04 53.7856 18.28V28.76C53.7856 28.968 53.8976 29 54.0576 29H55.3216C55.5296 29 55.5456 28.856 55.5456 28.728V24.04H57.1456C57.1936 26.264 58.0256 29.24 60.9536 29.24C64.3936 29.24 64.6976 25.064 64.6976 23.528C64.6976 22.168 64.4896 17.768 60.9536 17.768C57.7856 17.768 57.2416 21.192 57.1616 22.6H55.5456ZM60.8896 27.832C60.4096 27.832 60.0416 27.688 59.7376 27.368C59.3056 26.92 58.9376 25.944 58.9376 23.496C58.9376 21.016 59.3696 20.04 59.8016 19.608C59.9776 19.432 60.3296 19.176 60.8896 19.176C61.3376 19.176 61.6896 19.336 61.9616 19.608C62.3936 20.04 62.8256 21 62.8256 23.512C62.8256 26.36 62.2656 27.144 61.9616 27.432C61.5936 27.784 61.1456 27.832 60.8896 27.832ZM67.884 23.8C67.884 24.008 67.964 24.056 68.14 24.056H68.748C69.644 24.056 70.716 24.488 70.716 25.864C70.716 26.552 70.54 27.8 68.78 27.8C67.98 27.8 67.388 27.432 66.924 27.112L66.764 27C66.684 26.936 66.604 26.92 66.556 26.92C66.492 26.92 66.46 26.936 66.428 26.984L65.932 27.848C65.9 27.896 65.9 27.928 65.9 27.976C65.9 28.28 66.556 28.68 66.988 28.872C67.644 29.176 68.316 29.24 69.02 29.24C69.852 29.24 70.86 29.128 71.676 28.28C72.396 27.528 72.524 26.616 72.524 25.912C72.524 24.984 72.188 23.72 70.588 23.192C71.884 22.76 72.204 21.624 72.204 20.728C72.204 19.736 71.804 17.768 69.1 17.768C67.868 17.768 66.908 18.216 66.3 18.856C66.204 18.952 66.156 19.032 66.156 19.112C66.156 19.176 66.188 19.224 66.236 19.304L66.684 19.944C66.732 20.008 66.796 20.04 66.876 20.04C66.94 20.04 67.004 20.024 67.052 19.976L67.228 19.832C67.724 19.432 68.188 19.208 68.812 19.208C69.916 19.208 70.476 20.056 70.476 20.92C70.476 21.32 70.396 21.8 70.012 22.184C69.564 22.616 68.972 22.648 68.588 22.648H68.14C67.964 22.648 67.884 22.728 67.884 22.904V23.8ZM82.2684 18.28C82.2684 18.104 82.2204 18.024 82.0124 18.024H80.5884C80.5404 18.024 80.4124 18.04 80.3324 18.2L77.4364 24.312C77.2284 24.744 76.8284 25.832 76.7004 26.152H76.6524C76.7324 25.032 76.7644 24.68 76.7644 24.312V18.28C76.7644 18.104 76.7164 18.024 76.5084 18.024H75.2604C75.0524 18.024 75.0044 18.104 75.0044 18.28V28.744C75.0044 28.92 75.0844 29 75.2604 29H76.5404C76.7484 29 76.7804 28.92 76.8444 28.776L79.9164 22.376C80.2044 21.784 80.3964 21.336 80.5724 20.696H80.6204C80.5564 21.192 80.5084 21.752 80.5084 22.296V28.744C80.5084 28.952 80.5884 29 80.7644 29H82.0124C82.1884 29 82.2684 28.952 82.2684 28.744V18.28ZM92.006 25.928C92.006 24.6 91.366 23.624 90.022 23.256C91.094 22.744 91.606 21.944 91.606 20.744C91.606 19.944 91.302 19.176 90.806 18.696C90.262 18.168 89.686 18.024 88.15 18.024H85.526C85.286 18.024 85.27 18.056 85.27 18.296V28.728C85.27 28.968 85.286 29 85.526 29H88.054C89.11 29 89.35 28.984 89.894 28.856C91.158 28.584 92.006 27.384 92.006 25.928ZM89.814 20.936C89.814 22.136 89.222 22.728 87.99 22.728H86.95V19.352H88.118C89.318 19.352 89.814 19.816 89.814 20.936ZM90.198 25.848C90.198 27.064 89.558 27.592 88.118 27.592H86.95V24.072H88.086C89.542 24.072 90.198 24.648 90.198 25.848ZM101.482 28.728V18.296C101.482 18.056 101.434 18.024 101.194 18.024H99.9939C99.7539 18.024 99.7219 18.056 99.7219 18.296V22.616H96.2019V18.296C96.2019 18.056 96.1379 18.024 95.9139 18.024H94.6979C94.4579 18.024 94.4419 18.056 94.4419 18.296V28.728C94.4419 28.968 94.4579 29 94.6979 29H95.9139C96.1379 29 96.2019 28.968 96.2019 28.728V23.976H99.7219V28.728C99.7219 28.968 99.7539 29 99.9939 29H101.194C101.434 29 101.482 28.968 101.482 28.728ZM111.337 23.432C111.337 19.672 110.089 17.768 107.609 17.768C104.809 17.768 103.769 20.232 103.769 23.448C103.769 27.32 105.017 29.24 107.497 29.24C110.025 29.24 111.337 27.272 111.337 23.432ZM109.465 23.496C109.465 26.488 108.873 27.832 107.545 27.832C106.153 27.832 105.641 26.232 105.641 23.48C105.641 20.536 106.249 19.176 107.577 19.176C108.905 19.176 109.465 20.744 109.465 23.496Z" fill="white"/>
<rect x="2" y="65" width="122" height="30.3866" rx="15.1933" fill="white"/>
<path d="M21.6698 78.3112L20.2757 79.7053L18.8816 78.3112C18.1124 77.5421 18.1124 76.2922 18.8816 75.499C19.6507 74.7298 20.9006 74.7298 21.6698 75.499C22.4389 76.2681 22.4389 77.5421 21.6698 78.3112Z" fill="#14582A"/>
<path d="M18.8816 82.253L20.2757 80.8589L21.6698 82.253C22.4389 83.0221 22.4389 84.272 21.6698 85.0652C20.9006 85.8344 19.6507 85.8344 18.8816 85.0652C18.1124 84.272 18.1124 83.0221 18.8816 82.253Z" fill="#14582A"/>
<path d="M22.2222 81.6761L20.8281 80.282L22.2222 78.8879C22.9914 78.1187 24.2413 78.1187 25.0104 78.8879C25.7796 79.6571 25.7796 80.9069 25.0104 81.7001C24.2413 82.4453 22.9914 82.4453 22.2222 81.6761Z" fill="#14582A"/>
<path d="M18.3045 78.8642L19.6986 80.2583L18.3045 81.6765C17.5354 82.4456 16.2855 82.4456 15.5163 81.6765C14.7472 80.9073 14.7472 79.6574 15.5163 78.8642C16.2855 78.0951 17.5354 78.0951 18.3045 78.8642Z" fill="#14582A"/>
<path d="M96.423 78.2151H90.6543V79.8496H92.6974V84.7529H94.3799V79.8496H96.423V78.2151Z" fill="#14582A"/>
<path d="M40.8509 83.4068C41.4999 83.4068 42.0287 83.1424 42.3171 82.7578L43.6632 83.551C43.0623 84.4404 42.0768 84.9451 40.8269 84.9451C38.6396 84.9451 37.2695 83.4309 37.2695 81.4839C37.2695 79.537 38.6636 78.0227 40.7067 78.0227C42.6296 78.0227 43.9997 79.561 43.9997 81.4839C43.9997 81.7243 43.9756 81.9646 43.9276 82.181H39.0242C39.2645 83.0463 39.9616 83.4068 40.8509 83.4068ZM42.3171 80.883C42.1008 79.9456 41.4038 79.561 40.7067 79.561C39.8174 79.561 39.1924 80.0417 39.0001 80.883H42.3171Z" fill="#14582A"/>
<path d="M52.1229 81.4839C52.1229 83.4309 50.6807 84.9451 48.9501 84.9451C47.9886 84.9451 47.3156 84.5846 46.8349 83.9837V87.3728H45.1523V78.215H46.8349V78.9842C47.2916 78.3832 47.9886 78.0227 48.9501 78.0227C50.7047 78.0467 52.1229 79.537 52.1229 81.4839ZM50.4403 81.4839C50.4403 80.3783 49.6712 79.6331 48.6376 79.6331C47.604 79.6331 46.8349 80.3783 46.8349 81.4839C46.8349 82.5896 47.604 83.3347 48.6376 83.3347C49.6712 83.3347 50.4403 82.5896 50.4403 81.4839Z" fill="#14582A"/>
<path d="M56.5697 83.4068C57.2187 83.4068 57.7475 83.1424 58.0359 82.7578L59.3819 83.551C58.781 84.4404 57.7955 84.9451 56.5456 84.9451C54.3583 84.9451 52.9883 83.4309 52.9883 81.4839C52.9883 79.537 54.3824 78.0227 56.4255 78.0227C58.3484 78.0227 59.7184 79.561 59.7184 81.4839C59.7184 81.7243 59.6944 81.9646 59.6463 82.181H54.7429C54.9593 83.0463 55.6803 83.4068 56.5697 83.4068ZM58.0359 80.883C57.8196 79.9456 57.1225 79.561 56.4255 79.561C55.5361 79.561 54.9112 80.0417 54.7189 80.883H58.0359Z" fill="#14582A"/>
<path d="M75.1736 81.4839C75.1736 83.4309 73.7315 84.9451 72.0008 84.9451C71.0394 84.9451 70.3664 84.5846 69.8857 83.9837V87.3728H68.2031V78.215H69.8857V78.9842C70.3424 78.3832 71.0394 78.0227 72.0008 78.0227C73.7315 78.0467 75.1736 79.537 75.1736 81.4839ZM73.4911 81.4839C73.4911 80.3783 72.7219 79.6331 71.6884 79.6331C70.6548 79.6331 69.8857 80.3783 69.8857 81.4839C69.8857 82.5896 70.6548 83.3347 71.6884 83.3347C72.7219 83.3347 73.4911 82.5896 73.4911 81.4839Z" fill="#14582A"/>
<path d="M79.597 83.407C80.246 83.407 80.7748 83.1426 81.0632 82.758L82.4093 83.5512C81.8084 84.4405 80.8229 84.9453 79.573 84.9453C77.3857 84.9453 76.0156 83.431 76.0156 81.4841C76.0156 79.5371 77.4097 78.0228 79.4528 78.0228C81.3757 78.0228 82.7458 79.5612 82.7458 81.4841C82.7458 81.7244 82.7217 81.9648 82.6737 82.1811H77.7703C78.0106 83.0464 78.7317 83.407 79.597 83.407ZM77.2415 76.6528C77.2415 76.172 77.6501 75.7634 78.1308 75.7634C78.6115 75.7634 78.9961 76.172 78.9961 76.6528C78.9961 77.1335 78.6115 77.5181 78.1308 77.5181C77.6501 77.5181 77.2415 77.1335 77.2415 76.6528ZM81.0632 80.8831C80.8469 79.9457 80.1499 79.5612 79.4528 79.5612C78.5635 79.5612 77.9385 80.0419 77.7462 80.8831H81.0632ZM79.7172 76.6528C79.7172 76.172 80.1258 75.7634 80.6065 75.7634C81.0873 75.7634 81.4718 76.172 81.4718 76.6528C81.4718 77.1335 81.0873 77.5181 80.6065 77.5181C80.1258 77.5181 79.7172 77.1335 79.7172 76.6528Z" fill="#14582A"/>
<path d="M83.5391 81.4839C83.5391 79.537 85.0053 78.0227 86.9762 78.0227C88.2502 78.0227 89.3558 78.6957 89.8846 79.7052L88.4425 80.5465C88.1781 80.0177 87.6252 79.6812 86.9522 79.6812C85.9427 79.6812 85.1976 80.4263 85.1976 81.4839C85.1976 82.5175 85.9427 83.2626 86.9522 83.2626C87.6252 83.2626 88.1781 82.9261 88.4425 82.3973L89.9087 83.2386C89.3558 84.2481 88.2502 84.9451 86.9762 84.9451C84.9812 84.9451 83.5391 83.4309 83.5391 81.4839Z" fill="#14582A"/>
<path d="M96.9746 81.4839C96.9746 79.537 98.4889 78.0227 100.412 78.0227C102.335 78.0227 103.873 79.537 103.873 81.4839C103.873 83.4309 102.335 84.9451 100.412 84.9451C98.4889 84.9451 96.9746 83.4309 96.9746 81.4839ZM102.166 81.4839C102.166 80.4263 101.397 79.6812 100.388 79.6812C99.4023 79.6812 98.6331 80.4263 98.6331 81.4839C98.6331 82.5415 99.4023 83.2866 100.388 83.2866C101.397 83.2866 102.166 82.5415 102.166 81.4839Z" fill="#14582A"/>
<path d="M65.1515 84.7529H67.0984L64.5987 81.46L67.0263 78.2151H65.0073L63.1325 80.8831H62.5556V78.2151H60.873V84.7529H62.5556V82.1811H63.2767L65.1515 84.7529Z" fill="#14582A"/>
<path d="M109.114 84.7529H111.061L108.585 81.46L110.989 78.2151H108.994L107.095 80.8831H106.542V78.2151H104.859V84.7529H106.542V82.1811H107.239L109.114 84.7529Z" fill="#14582A"/>
<path d="M36.1636 84.753H34.3609V77.446H31.14V84.753H29.3613V75.7634H36.1636V84.753Z" fill="#14582A"/>
<defs>
<linearGradient id="paint0_linear" x1="62.7048" y1="58.0272" x2="62.7048" y2="-4.53126" gradientUnits="userSpaceOnUse">
<stop stop-color="#A90000"/>
<stop offset="0.468349" stop-color="#D20000"/>
<stop offset="1" stop-color="#FA0000"/>
</linearGradient>
</defs>
</svg>
