<svg width="162" height="93" viewBox="0 0 162 93" fill="none" xmlns="http://www.w3.org/2000/svg">
<path d="M162 74.5329C162 80.8215 93.7584 93 80.9705 93C68.1826 93 0 81.0429 0 73.8686C0 66.6944 0.11273 48 0.11273 48H161.869C161.869 48 162 68.2886 162 74.5329Z" fill="url(#paint0_linear)"/>
<path d="M46.3491 64.285C46.3381 64.307 46.3271 64.34 46.3271 64.362C46.3271 64.417 46.3711 64.472 46.4151 64.516C46.5581 64.67 47.0861 65.165 48.1751 65.165C48.9341 65.165 49.5721 64.934 50.0781 64.274C50.7051 63.46 50.8261 62.283 50.8261 61.249C50.8261 59.06 50.1881 57.278 48.3071 57.278C47.5701 57.278 47.0421 57.509 46.5471 57.938C46.4371 58.026 46.4041 58.092 46.4041 58.147C46.4041 58.18 46.4261 58.224 46.4481 58.257L46.8001 58.752C46.8331 58.807 46.8661 58.84 46.9101 58.84C46.9321 58.84 46.9541 58.829 46.9871 58.807L47.1191 58.708C47.3941 58.488 47.7131 58.246 48.1861 58.246C49.3081 58.246 49.5501 59.577 49.5501 60.479V60.589H47.5701C47.4601 60.589 47.3831 60.622 47.3831 60.776V61.403C47.3831 61.546 47.4381 61.579 47.5591 61.579H49.5501V61.722C49.5501 62.283 49.4841 64.197 48.0871 64.197C47.6801 64.197 47.4051 64.054 47.0421 63.79L46.9211 63.702C46.8881 63.669 46.8441 63.658 46.8111 63.658C46.7671 63.658 46.7341 63.68 46.6901 63.746L46.3491 64.285ZM53.4469 65C53.5679 65 53.6229 64.945 53.6229 64.824V61.568H54.1729C54.6899 61.568 54.9649 61.733 55.1409 62.525L55.3939 63.702C55.6249 64.78 56.0759 65.165 57.0549 65.165C57.1979 65.165 57.2309 65.143 57.2639 65.033L57.4949 64.34C57.5059 64.318 57.5059 64.296 57.5059 64.274C57.5059 64.164 57.3739 64.153 57.3409 64.142L57.1319 64.109C56.8899 64.065 56.6809 64.131 56.4939 63.328L56.2299 62.217C56.0979 61.722 55.7349 61.216 55.2839 61.062C55.8339 60.831 56.0209 60.336 56.1199 59.874L56.2739 59.181C56.3619 58.763 56.4499 58.389 56.8789 58.312L57.0989 58.268C57.1869 58.246 57.2419 58.202 57.2419 58.125C57.2419 58.103 57.2419 58.081 57.2309 58.059L57.0439 57.421C57.0109 57.311 56.9229 57.289 56.8459 57.289C56.6039 57.289 56.0759 57.421 55.7569 57.74C55.4599 58.037 55.3719 58.433 55.2839 58.829L55.0969 59.698C54.9979 60.193 54.7229 60.578 54.1839 60.578H53.6229V57.597C53.6229 57.509 53.5679 57.454 53.4909 57.454H52.5339C52.4789 57.454 52.4239 57.498 52.4239 57.575V64.824C52.4239 64.967 52.4789 65 52.5999 65H53.4469ZM62.6136 64.23L62.2836 63.702C62.2506 63.647 62.2066 63.636 62.1736 63.636C62.1186 63.636 62.0746 63.669 62.0196 63.713C61.6456 63.999 61.3156 64.142 60.9636 64.142C59.9626 64.142 59.4786 63.108 59.4786 60.974C59.4786 59.126 59.9076 58.29 60.8316 58.29C61.3046 58.29 61.6346 58.543 61.9866 58.818C62.0196 58.851 62.0746 58.873 62.1186 58.873C62.1516 58.873 62.1956 58.862 62.2176 58.818L62.5696 58.257C62.6026 58.202 62.6246 58.158 62.6246 58.114C62.6246 58.059 62.5916 58.004 62.5146 57.938C62.0416 57.531 61.4036 57.278 60.7876 57.278C58.6866 57.278 58.1916 59.445 58.1916 61.139C58.1916 63.757 59.1156 65.165 60.8536 65.165C61.4586 65.165 61.9426 65.033 62.5476 64.549C62.6356 64.472 62.6686 64.428 62.6686 64.373C62.6686 64.329 62.6466 64.285 62.6136 64.23ZM64.8873 65C65.0083 65 65.0633 64.945 65.0633 64.824V61.568H65.6133C66.1303 61.568 66.4053 61.733 66.5813 62.525L66.8343 63.702C67.0653 64.78 67.5163 65.165 68.4953 65.165C68.6383 65.165 68.6713 65.143 68.7043 65.033L68.9353 64.34C68.9463 64.318 68.9463 64.296 68.9463 64.274C68.9463 64.164 68.8143 64.153 68.7813 64.142L68.5723 64.109C68.3303 64.065 68.1213 64.131 67.9343 63.328L67.6703 62.217C67.5383 61.722 67.1753 61.216 66.7243 61.062C67.2743 60.831 67.4613 60.336 67.5603 59.874L67.7143 59.181C67.8023 58.763 67.8903 58.389 68.3193 58.312L68.5393 58.268C68.6273 58.246 68.6823 58.202 68.6823 58.125C68.6823 58.103 68.6823 58.081 68.6713 58.059L68.4843 57.421C68.4513 57.311 68.3633 57.289 68.2863 57.289C68.0443 57.289 67.5163 57.421 67.1973 57.74C66.9003 58.037 66.8123 58.433 66.7243 58.829L66.5373 59.698C66.4383 60.193 66.1633 60.578 65.6243 60.578H65.0633V57.597C65.0633 57.509 65.0083 57.454 64.9313 57.454H63.9743C63.9193 57.454 63.8643 57.498 63.8643 57.575V64.824C63.8643 64.967 63.9193 65 64.0403 65H64.8873ZM74.8209 57.63C74.8209 57.487 74.7659 57.454 74.6449 57.454H71.0149C70.9049 57.454 70.8499 57.487 70.8499 57.619V58.763C70.8499 60.49 70.9049 63.108 70.2119 63.779C69.9699 64.01 69.6619 64.087 69.4639 64.109L69.2989 64.131C69.2109 64.142 69.1449 64.197 69.1449 64.296C69.1449 64.318 69.1559 64.34 69.1559 64.362L69.3209 65.011C69.3429 65.11 69.3759 65.165 69.5409 65.165C71.2349 65.165 71.6419 63.262 71.7629 62.217C71.8619 61.293 71.8949 60.303 71.9059 59.511L71.9169 58.444H73.6109V64.824C73.6109 64.967 73.6659 65 73.7869 65H74.6449C74.7659 65 74.8209 64.945 74.8209 64.824V57.63ZM78.0939 60.6V57.63C78.0939 57.465 78.0169 57.454 77.9069 57.454H77.0819C76.9609 57.454 76.8839 57.465 76.8839 57.63V64.835C76.8839 64.978 76.9609 65 77.0709 65H77.9399C78.0829 65 78.0939 64.901 78.0939 64.813V61.59H79.1939C79.2269 63.119 79.7989 65.165 81.8119 65.165C84.1769 65.165 84.3859 62.294 84.3859 61.238C84.3859 60.303 84.2429 57.278 81.8119 57.278C79.6339 57.278 79.2599 59.632 79.2049 60.6H78.0939ZM81.7679 64.197C81.4379 64.197 81.1849 64.098 80.9759 63.878C80.6789 63.57 80.4259 62.899 80.4259 61.216C80.4259 59.511 80.7229 58.84 81.0199 58.543C81.1409 58.422 81.3829 58.246 81.7679 58.246C82.0759 58.246 82.3179 58.356 82.5049 58.543C82.8019 58.84 83.0989 59.5 83.0989 61.227C83.0989 63.185 82.7139 63.724 82.5049 63.922C82.2519 64.164 81.9439 64.197 81.7679 64.197ZM86.5765 61.425C86.5765 61.568 86.6315 61.601 86.7525 61.601H87.1705C87.7865 61.601 88.5235 61.898 88.5235 62.844C88.5235 63.317 88.4025 64.175 87.1925 64.175C86.6425 64.175 86.2355 63.922 85.9165 63.702L85.8065 63.625C85.7515 63.581 85.6965 63.57 85.6635 63.57C85.6195 63.57 85.5975 63.581 85.5755 63.614L85.2345 64.208C85.2125 64.241 85.2125 64.263 85.2125 64.296C85.2125 64.505 85.6635 64.78 85.9605 64.912C86.4115 65.121 86.8735 65.165 87.3575 65.165C87.9295 65.165 88.6225 65.088 89.1835 64.505C89.6785 63.988 89.7665 63.361 89.7665 62.877C89.7665 62.239 89.5355 61.37 88.4355 61.007C89.3265 60.71 89.5465 59.929 89.5465 59.313C89.5465 58.631 89.2715 57.278 87.4125 57.278C86.5655 57.278 85.9055 57.586 85.4875 58.026C85.4215 58.092 85.3885 58.147 85.3885 58.202C85.3885 58.246 85.4105 58.279 85.4435 58.334L85.7515 58.774C85.7845 58.818 85.8285 58.84 85.8835 58.84C85.9275 58.84 85.9715 58.829 86.0045 58.796L86.1255 58.697C86.4665 58.422 86.7855 58.268 87.2145 58.268C87.9735 58.268 88.3585 58.851 88.3585 59.445C88.3585 59.72 88.3035 60.05 88.0395 60.314C87.7315 60.611 87.3245 60.633 87.0605 60.633H86.7525C86.6315 60.633 86.5765 60.688 86.5765 60.809V61.425ZM96.4658 57.63C96.4658 57.509 96.4328 57.454 96.2898 57.454H95.3108C95.2778 57.454 95.1898 57.465 95.1348 57.575L93.1438 61.777C93.0008 62.074 92.7258 62.822 92.6378 63.042H92.6048C92.6598 62.272 92.6818 62.03 92.6818 61.777V57.63C92.6818 57.509 92.6488 57.454 92.5058 57.454H91.6478C91.5048 57.454 91.4718 57.509 91.4718 57.63V64.824C91.4718 64.945 91.5268 65 91.6478 65H92.5278C92.6708 65 92.6928 64.945 92.7368 64.846L94.8488 60.446C95.0468 60.039 95.1788 59.731 95.2998 59.291H95.3328C95.2888 59.632 95.2558 60.017 95.2558 60.391V64.824C95.2558 64.967 95.3108 65 95.4318 65H96.2898C96.4108 65 96.4658 64.967 96.4658 64.824V57.63ZM103.16 62.888C103.16 61.975 102.72 61.304 101.796 61.051C102.533 60.699 102.885 60.149 102.885 59.324C102.885 58.774 102.676 58.246 102.335 57.916C101.961 57.553 101.565 57.454 100.509 57.454H98.7054C98.5404 57.454 98.5294 57.476 98.5294 57.641V64.813C98.5294 64.978 98.5404 65 98.7054 65H100.443C101.169 65 101.334 64.989 101.708 64.901C102.577 64.714 103.16 63.889 103.16 62.888ZM101.653 59.456C101.653 60.281 101.246 60.688 100.399 60.688H99.6844V58.367H100.487C101.312 58.367 101.653 58.686 101.653 59.456ZM101.917 62.833C101.917 63.669 101.477 64.032 100.487 64.032H99.6844V61.612H100.465C101.466 61.612 101.917 62.008 101.917 62.833ZM109.675 64.813V57.641C109.675 57.476 109.642 57.454 109.477 57.454H108.652C108.487 57.454 108.465 57.476 108.465 57.641V60.611H106.045V57.641C106.045 57.476 106.001 57.454 105.847 57.454H105.011C104.846 57.454 104.835 57.476 104.835 57.641V64.813C104.835 64.978 104.846 65 105.011 65H105.847C106.001 65 106.045 64.978 106.045 64.813V61.546H108.465V64.813C108.465 64.978 108.487 65 108.652 65H109.477C109.642 65 109.675 64.978 109.675 64.813ZM116.45 61.172C116.45 58.587 115.592 57.278 113.887 57.278C111.962 57.278 111.247 58.972 111.247 61.183C111.247 63.845 112.105 65.165 113.81 65.165C115.548 65.165 116.45 63.812 116.45 61.172ZM115.163 61.216C115.163 63.273 114.756 64.197 113.843 64.197C112.886 64.197 112.534 63.097 112.534 61.205C112.534 59.181 112.952 58.246 113.865 58.246C114.778 58.246 115.163 59.324 115.163 61.216ZM31.1485 77.296L30.6425 76.295C30.6095 76.229 30.5765 76.196 30.5435 76.196C30.5105 76.196 30.4775 76.218 30.4335 76.251C30.1475 76.46 29.7955 76.68 29.3445 76.68C28.5525 76.68 28.0575 75.932 28.0575 73.919C28.0575 72.39 28.5195 71.774 29.1905 71.774C29.6965 71.774 30.0815 72.115 30.4225 72.324C30.4555 72.346 30.4775 72.357 30.5105 72.357C30.5655 72.357 30.5985 72.324 30.6315 72.258L31.1375 71.224C31.1595 71.191 31.1595 71.158 31.1595 71.125C31.1595 71.048 31.1045 71.004 31.0165 70.927C30.5215 70.509 29.7735 70.267 29.1245 70.267C27.3095 70.267 26.1875 71.708 26.1875 74.139C26.1875 76.702 27.1995 78.187 29.1905 78.187C29.8835 78.187 31.1815 77.802 31.1815 77.406C31.1815 77.373 31.1705 77.34 31.1485 77.296ZM40.0726 74.117C40.0726 71.631 39.1486 70.267 37.2016 70.267C34.8476 70.267 34.3086 72.357 34.3086 74.117C34.3086 76.779 35.1996 78.187 37.1576 78.187C39.1376 78.187 40.0726 76.746 40.0726 74.117ZM38.2026 74.216C38.2026 76.064 37.8176 76.801 37.2016 76.801C36.5856 76.801 36.1786 76.086 36.1786 74.26C36.1786 72.434 36.5966 71.653 37.2016 71.653C37.8286 71.653 38.2026 72.357 38.2026 74.216ZM43.386 71.994H44.387V77.78C44.387 77.934 44.431 78 44.618 78H45.993C46.169 78 46.213 77.923 46.213 77.78V70.652C46.213 70.509 46.136 70.454 46.037 70.454H41.945C41.802 70.454 41.725 70.531 41.725 70.674V72.247C41.725 72.731 41.725 73.204 41.714 73.93C41.692 74.81 41.725 75.778 41.252 76.273C40.988 76.548 40.658 76.603 40.449 76.647L40.295 76.68C40.24 76.691 40.152 76.713 40.152 76.845C40.152 76.878 40.163 76.922 40.174 76.966L40.493 78.033C40.526 78.154 40.614 78.165 40.724 78.165C41.241 78.165 41.945 77.967 42.418 77.494C43.111 76.801 43.243 75.811 43.298 74.964C43.331 74.458 43.386 73.325 43.386 72.819V71.994ZM49.4726 74.711H50.0226C50.5836 74.711 51.0456 75.008 51.0456 75.657C51.0456 76.592 50.3416 76.592 49.9456 76.592H49.4726V74.711ZM47.8666 70.454C47.6906 70.454 47.6466 70.531 47.6466 70.674V77.78C47.6466 77.923 47.7236 78 47.8666 78H50.1106C50.7376 78 51.5736 77.923 52.1676 77.351C52.6846 76.856 52.7836 76.196 52.7836 75.701C52.7836 74.766 52.4316 74.249 52.1786 74.007C51.6286 73.457 50.8586 73.391 50.2646 73.391H49.4726V70.597C49.4726 70.454 49.3956 70.454 49.2856 70.454H47.8666ZM57.9264 70.454H54.0434C53.8344 70.454 53.8234 70.476 53.8234 70.685V77.78C53.8234 77.967 53.8344 78 54.0434 78H55.4184C55.6054 78 55.6494 77.967 55.6494 77.78V72.027H57.7394C57.9044 72.027 57.9484 72.005 57.9814 71.84L58.1794 70.707C58.1904 70.663 58.1904 70.63 58.1904 70.597C58.1904 70.476 58.1244 70.454 57.9264 70.454ZM64.2211 74.117C64.2211 71.631 63.2971 70.267 61.3501 70.267C58.9961 70.267 58.4571 72.357 58.4571 74.117C58.4571 76.779 59.3481 78.187 61.3061 78.187C63.2861 78.187 64.2211 76.746 64.2211 74.117ZM62.3511 74.216C62.3511 76.064 61.9661 76.801 61.3501 76.801C60.7341 76.801 60.3271 76.086 60.3271 74.26C60.3271 72.434 60.7451 71.653 61.3501 71.653C61.9771 71.653 62.3511 72.357 62.3511 74.216ZM69.0788 67.924H69.0568C69.0018 67.924 68.9358 67.957 68.9248 68.012L68.8918 68.166C68.8698 68.309 68.7378 68.727 68.1658 68.727C67.6378 68.727 67.4948 68.386 67.4508 68.188L67.4068 68.012C67.3848 67.935 67.3518 67.924 67.3078 67.924L66.2408 68.045C66.1418 68.056 66.1088 68.122 66.1088 68.221C66.1088 69.486 67.5388 69.816 68.1768 69.816C68.9028 69.816 70.2118 69.453 70.2118 68.243C70.2118 68.144 70.1898 68.056 70.0908 68.045L69.0788 67.924ZM65.3498 77.813C65.3498 77.901 65.3608 78 65.4928 78H66.9228C67.0768 78 67.1318 77.956 67.2088 77.791L68.6828 74.469C68.8588 74.084 69.0458 73.644 69.2438 73.039H69.2768C69.1998 73.655 69.1448 74.381 69.1448 74.898V77.824C69.1448 77.923 69.1558 78 69.2878 78H70.8278C70.9598 78 70.9708 77.89 70.9708 77.802V70.674C70.9708 70.476 70.8718 70.454 70.7398 70.454H69.2878C69.2218 70.454 69.1448 70.454 69.0788 70.597L67.6928 73.699C67.4288 74.282 67.2528 74.678 67.0658 75.206H67.0218C67.0768 74.777 67.1758 73.666 67.1758 73.105V70.674C67.1758 70.553 67.1428 70.454 66.9888 70.454H65.5478C65.4268 70.454 65.3498 70.531 65.3498 70.674V77.813ZM79.628 77.296L79.122 76.295C79.089 76.229 79.056 76.196 79.023 76.196C78.99 76.196 78.957 76.218 78.913 76.251C78.627 76.46 78.275 76.68 77.824 76.68C77.032 76.68 76.537 75.932 76.537 73.919C76.537 72.39 76.999 71.774 77.67 71.774C78.176 71.774 78.561 72.115 78.902 72.324C78.935 72.346 78.957 72.357 78.99 72.357C79.045 72.357 79.078 72.324 79.111 72.258L79.617 71.224C79.639 71.191 79.639 71.158 79.639 71.125C79.639 71.048 79.584 71.004 79.496 70.927C79.001 70.509 78.253 70.267 77.604 70.267C75.789 70.267 74.667 71.708 74.667 74.139C74.667 76.702 75.679 78.187 77.67 78.187C78.363 78.187 79.661 77.802 79.661 77.406C79.661 77.373 79.65 77.34 79.628 77.296ZM84.9177 70.696C84.9287 70.641 84.9397 70.586 84.9397 70.553C84.9397 70.476 84.8957 70.454 84.7527 70.454H80.7377C80.5287 70.454 80.5177 70.487 80.5177 70.674V77.769C80.5177 77.978 80.5287 78 80.7377 78H84.6317C84.8187 78 84.8627 77.956 84.8627 77.769V76.768C84.8627 76.559 84.8187 76.537 84.6317 76.537H82.3437V74.832H84.1367C84.3237 74.832 84.3677 74.788 84.3677 74.601V73.589C84.3677 73.38 84.3237 73.358 84.1367 73.358H82.3437V71.917H84.4777C84.6207 71.917 84.6867 71.873 84.7197 71.73L84.9177 70.696ZM90.8265 72.588C90.8265 71.939 90.5845 71.301 90.1885 70.949C89.7595 70.575 89.1875 70.454 88.1315 70.454H86.1625C85.9535 70.454 85.9425 70.465 85.9425 70.674V77.769C85.9425 77.978 85.9535 78 86.1625 78H87.5375C87.7245 78 87.7685 77.978 87.7685 77.769V75.085H88.2085C89.7925 75.085 90.8265 74.095 90.8265 72.588ZM89.1435 72.687C89.1435 73.402 88.8575 73.655 88.0325 73.655H87.7685V71.785H88.1205C88.8465 71.785 89.1435 72.016 89.1435 72.687ZM93.9746 70.454C93.4466 70.454 92.5226 70.498 91.9066 71.125C91.4446 71.587 91.3566 72.17 91.3566 72.654C91.3566 73.369 91.6536 74.117 92.6546 74.315V74.337C92.6106 74.359 92.3576 74.469 92.1706 74.656C91.9396 74.887 91.8406 75.195 91.7856 75.448L91.6646 76.02C91.5876 76.339 91.4886 76.614 90.9826 76.702L90.8836 76.724C90.7956 76.746 90.7406 76.812 90.7406 76.9C90.7406 76.922 90.7406 76.955 90.7516 76.977L91.0926 78.022C91.1476 78.176 91.2356 78.187 91.3566 78.187C91.7746 78.187 92.3356 78.066 92.7096 77.703C93.0396 77.384 93.1386 76.966 93.2046 76.603L93.3256 75.899C93.3916 75.503 93.4466 74.997 94.2056 74.997H94.4916V77.78C94.4916 77.923 94.5356 78 94.7116 78H96.0976C96.2406 78 96.3176 77.956 96.3176 77.78V70.652C96.3176 70.487 96.2516 70.454 96.0976 70.454H93.9746ZM94.4916 73.644H94.0186C93.3036 73.644 93.0946 73.105 93.0946 72.72C93.0946 72.577 93.1166 72.236 93.3366 72.016C93.5456 71.807 93.8206 71.807 93.9856 71.807H94.4916V73.644ZM99.5742 71.972H101.884C101.994 71.972 102.071 71.906 102.093 71.818L102.357 70.641C102.368 70.608 102.368 70.597 102.368 70.575C102.368 70.465 102.28 70.454 102.203 70.454H97.9462C97.8252 70.454 97.7482 70.531 97.7482 70.674V77.802C97.7482 77.901 97.7702 78 97.9132 78H100.278C101.147 78 102.885 77.89 102.885 75.657C102.885 75.239 102.808 74.546 102.291 74.018C101.73 73.446 101.026 73.391 100.366 73.391H99.5742V71.972ZM99.5742 74.711H100.025C100.52 74.711 101.147 74.843 101.147 75.646C101.147 76.482 100.476 76.592 100.069 76.592H99.5742V74.711ZM105.628 78C105.804 78 105.815 77.868 105.815 77.78V74.799H106.244C106.662 74.799 106.981 74.986 107.047 75.503L107.234 76.669C107.289 76.999 107.377 77.406 107.652 77.703C108.048 78.132 108.653 78.187 109.071 78.187C109.269 78.187 109.291 78.11 109.324 78.022L109.665 76.922C109.676 76.9 109.676 76.867 109.676 76.845C109.676 76.768 109.643 76.724 109.555 76.702L109.324 76.658C108.994 76.592 108.862 76.471 108.796 76.075L108.62 75.195C108.543 74.854 108.356 74.26 107.652 74.073V74.04C108.246 73.831 108.455 73.314 108.51 72.962L108.62 72.291C108.664 72.06 108.763 71.84 109.126 71.73L109.379 71.664C109.456 71.642 109.5 71.576 109.5 71.499C109.5 71.477 109.5 71.455 109.489 71.433L109.203 70.41C109.181 70.322 109.104 70.267 108.939 70.267C108.543 70.267 107.894 70.476 107.586 70.795C107.289 71.092 107.212 71.455 107.157 71.785L107.025 72.588C106.926 73.127 106.706 73.391 106.145 73.391H105.815V70.674C105.815 70.586 105.793 70.454 105.639 70.454H104.165C104.011 70.454 103.989 70.586 103.989 70.674V77.78C103.989 77.923 104.033 78 104.209 78H105.628ZM110.445 77.813C110.445 77.901 110.456 78 110.588 78H112.018C112.172 78 112.227 77.956 112.304 77.791L113.778 74.469C113.954 74.084 114.141 73.644 114.339 73.039H114.372C114.295 73.655 114.24 74.381 114.24 74.898V77.824C114.24 77.923 114.251 78 114.383 78H115.923C116.055 78 116.066 77.89 116.066 77.802V70.674C116.066 70.476 115.967 70.454 115.835 70.454H114.383C114.317 70.454 114.24 70.454 114.174 70.597L112.788 73.699C112.524 74.282 112.348 74.678 112.161 75.206H112.117C112.172 74.777 112.271 73.666 112.271 73.105V70.674C112.271 70.553 112.238 70.454 112.084 70.454H110.643C110.522 70.454 110.445 70.531 110.445 70.674V77.813ZM122.871 77.769V70.674C122.871 70.487 122.849 70.454 122.64 70.454H121.276C121.067 70.454 121.045 70.487 121.045 70.674V73.391H119.318V70.674C119.318 70.487 119.274 70.454 119.087 70.454H117.723C117.514 70.454 117.492 70.487 117.492 70.674V77.769C117.492 77.978 117.514 78 117.723 78H119.087C119.274 78 119.318 77.978 119.318 77.769V74.843H121.045V77.769C121.045 77.978 121.067 78 121.276 78H122.64C122.849 78 122.871 77.978 122.871 77.769ZM129.77 74.117C129.77 71.631 128.846 70.267 126.899 70.267C124.545 70.267 124.006 72.357 124.006 74.117C124.006 76.779 124.897 78.187 126.855 78.187C128.835 78.187 129.77 76.746 129.77 74.117ZM127.9 74.216C127.9 76.064 127.515 76.801 126.899 76.801C126.283 76.801 125.876 76.086 125.876 74.26C125.876 72.434 126.294 71.653 126.899 71.653C127.526 71.653 127.9 72.357 127.9 74.216ZM134.628 67.924H134.606C134.551 67.924 134.485 67.957 134.474 68.012L134.441 68.166C134.419 68.309 134.287 68.727 133.715 68.727C133.187 68.727 133.044 68.386 133 68.188L132.956 68.012C132.934 67.935 132.901 67.924 132.857 67.924L131.79 68.045C131.691 68.056 131.658 68.122 131.658 68.221C131.658 69.486 133.088 69.816 133.726 69.816C134.452 69.816 135.761 69.453 135.761 68.243C135.761 68.144 135.739 68.056 135.64 68.045L134.628 67.924ZM130.899 77.813C130.899 77.901 130.91 78 131.042 78H132.472C132.626 78 132.681 77.956 132.758 77.791L134.232 74.469C134.408 74.084 134.595 73.644 134.793 73.039H134.826C134.749 73.655 134.694 74.381 134.694 74.898V77.824C134.694 77.923 134.705 78 134.837 78H136.377C136.509 78 136.52 77.89 136.52 77.802V70.674C136.52 70.476 136.421 70.454 136.289 70.454H134.837C134.771 70.454 134.694 70.454 134.628 70.597L133.242 73.699C132.978 74.282 132.802 74.678 132.615 75.206H132.571C132.626 74.777 132.725 73.666 132.725 73.105V70.674C132.725 70.553 132.692 70.454 132.538 70.454H131.097C130.976 70.454 130.899 70.531 130.899 70.674V77.813Z" fill="white"/>
<rect y="0.325195" width="162" height="40.3494" rx="20.1747" fill="white"/>
<path d="M26.1186 18.0008L24.2675 19.852L22.4163 18.0008C21.3949 16.9794 21.3949 15.3198 22.4163 14.2665C23.4376 13.2452 25.0973 13.2452 26.1186 14.2665C27.14 15.2878 27.14 16.9794 26.1186 18.0008Z" fill="#14582A"/>
<path d="M22.4163 23.235L24.2675 21.3838L26.1186 23.235C27.14 24.2563 27.14 25.916 26.1186 26.9693C25.0973 27.9906 23.4376 27.9906 22.4163 26.9693C21.3949 25.916 21.3949 24.2563 22.4163 23.235Z" fill="#14582A"/>
<path d="M26.853 22.4689L25.0018 20.6177L26.853 18.7665C27.8744 17.7452 29.534 17.7452 30.5554 18.7665C31.5767 19.7878 31.5767 21.4475 30.5554 22.5008C29.534 23.4902 27.8744 23.4902 26.853 22.4689Z" fill="#14582A"/>
<path d="M21.6505 18.735L23.5017 20.5862L21.6505 22.4693C20.6292 23.4906 18.9695 23.4906 17.9481 22.4693C16.9268 21.4479 16.9268 19.7883 17.9481 18.735C18.9695 17.7137 20.6292 17.7137 21.6505 18.735Z" fill="#14582A"/>
<path d="M125.381 17.873H117.72V20.0434H120.433V26.5545H122.668V20.0434H125.381V17.873Z" fill="#14582A"/>
<path d="M51.5882 24.7671C52.4499 24.7671 53.1521 24.416 53.5351 23.9053L55.3224 24.9586C54.5245 26.1395 53.2159 26.8098 51.5562 26.8098C48.6518 26.8098 46.8325 24.799 46.8325 22.2137C46.8325 19.6284 48.6837 17.6177 51.3966 17.6177C53.95 17.6177 55.7693 19.6604 55.7693 22.2137C55.7693 22.5329 55.7374 22.8521 55.6735 23.1393H49.1625C49.4816 24.2883 50.4072 24.7671 51.5882 24.7671ZM53.5351 21.4158C53.2478 20.171 52.3222 19.6604 51.3966 19.6604C50.2157 19.6604 49.3859 20.2987 49.1305 21.4158H53.5351Z" fill="#14582A"/>
<path d="M66.5578 22.2137C66.5578 24.799 64.6428 26.8098 62.3448 26.8098C61.0681 26.8098 60.1744 26.331 59.5361 25.5331V30.0334H57.3019V17.873H59.5361V18.8944C60.1425 18.0964 61.0681 17.6177 62.3448 17.6177C64.6747 17.6496 66.5578 19.6284 66.5578 22.2137ZM64.3236 22.2137C64.3236 20.7455 63.3023 19.7561 61.9298 19.7561C60.5574 19.7561 59.5361 20.7455 59.5361 22.2137C59.5361 23.6819 60.5574 24.6713 61.9298 24.6713C63.3023 24.6713 64.3236 23.6819 64.3236 22.2137Z" fill="#14582A"/>
<path d="M72.4622 24.7671C73.3239 24.7671 74.0261 24.416 74.4091 23.9053L76.1965 24.9586C75.3985 26.1395 74.0899 26.8098 72.4303 26.8098C69.5258 26.8098 67.7065 24.799 67.7065 22.2137C67.7065 19.6284 69.5577 17.6177 72.2707 17.6177C74.824 17.6177 76.6433 19.6604 76.6433 22.2137C76.6433 22.5329 76.6114 22.8521 76.5475 23.1393H70.0365C70.3237 24.2883 71.2812 24.7671 72.4622 24.7671ZM74.4091 21.4158C74.1219 20.171 73.1963 19.6604 72.2707 19.6604C71.0897 19.6604 70.2599 20.2987 70.0046 21.4158H74.4091Z" fill="#14582A"/>
<path d="M97.1662 22.2137C97.1662 24.799 95.2512 26.8098 92.9532 26.8098C91.6765 26.8098 90.7828 26.331 90.1445 25.5331V30.0334H87.9103V17.873H90.1445V18.8944C90.7509 18.0964 91.6765 17.6177 92.9532 17.6177C95.2512 17.6496 97.1662 19.6284 97.1662 22.2137ZM94.932 22.2137C94.932 20.7455 93.9107 19.7561 92.5382 19.7561C91.1658 19.7561 90.1445 20.7455 90.1445 22.2137C90.1445 23.6819 91.1658 24.6713 92.5382 24.6713C93.9107 24.6713 94.932 23.6819 94.932 22.2137Z" fill="#14582A"/>
<path d="M103.039 24.7673C103.9 24.7673 104.603 24.4162 104.986 23.9055L106.773 24.9588C105.975 26.1397 104.666 26.81 103.007 26.81C100.102 26.81 98.283 24.7992 98.283 22.2139C98.283 19.6286 100.134 17.6179 102.847 17.6179C105.4 17.6179 107.22 19.6606 107.22 22.2139C107.22 22.5331 107.188 22.8523 107.124 23.1395H100.613C100.932 24.2885 101.89 24.7673 103.039 24.7673ZM99.9107 15.7986C99.9107 15.1603 100.453 14.6177 101.092 14.6177C101.73 14.6177 102.241 15.1603 102.241 15.7986C102.241 16.4369 101.73 16.9476 101.092 16.9476C100.453 16.9476 99.9107 16.4369 99.9107 15.7986ZM104.986 21.416C104.698 20.1712 103.773 19.6606 102.847 19.6606C101.666 19.6606 100.836 20.2989 100.581 21.416H104.986ZM103.198 15.7986C103.198 15.1603 103.741 14.6177 104.379 14.6177C105.017 14.6177 105.528 15.1603 105.528 15.7986C105.528 16.4369 105.017 16.9476 104.379 16.9476C103.741 16.9476 103.198 16.4369 103.198 15.7986Z" fill="#14582A"/>
<path d="M108.273 22.2137C108.273 19.6284 110.22 17.6177 112.837 17.6177C114.528 17.6177 115.997 18.5114 116.699 19.8519L114.784 20.969C114.433 20.2668 113.699 19.8199 112.805 19.8199C111.464 19.8199 110.475 20.8094 110.475 22.2137C110.475 23.5862 111.464 24.5756 112.805 24.5756C113.699 24.5756 114.433 24.1287 114.784 23.4266L116.731 24.5437C115.997 25.8842 114.528 26.8098 112.837 26.8098C110.188 26.8098 108.273 24.799 108.273 22.2137Z" fill="#14582A"/>
<path d="M126.114 22.2137C126.114 19.6284 128.125 17.6177 130.678 17.6177C133.232 17.6177 135.274 19.6284 135.274 22.2137C135.274 24.799 133.232 26.8098 130.678 26.8098C128.125 26.8098 126.114 24.799 126.114 22.2137ZM133.008 22.2137C133.008 20.8094 131.987 19.8199 130.646 19.8199C129.338 19.8199 128.317 20.8094 128.317 22.2137C128.317 23.6181 129.338 24.6075 130.646 24.6075C131.987 24.6075 133.008 23.6181 133.008 22.2137Z" fill="#14582A"/>
<path d="M83.8565 26.5545H86.4418L83.1224 22.1818L86.346 17.873H83.665L81.1755 21.4158H80.4095V17.873H78.1753V26.5545H80.4095V23.1393H81.367L83.8565 26.5545Z" fill="#14582A"/>
<path d="M142.233 26.5545H144.818L141.531 22.1818L144.722 17.873H142.073L139.552 21.4158H138.818V17.873H136.583V26.5545H138.818V23.1393H139.743L142.233 26.5545Z" fill="#14582A"/>
<path d="M45.3648 26.5546H42.971V16.8519H38.6941V26.5546H36.3323V14.6177H45.3648V26.5546Z" fill="#14582A"/>
<defs>
<linearGradient id="paint0_linear" x1="81.2742" y1="93.0211" x2="81.2742" y2="44.4844" gradientUnits="userSpaceOnUse">
<stop stop-color="#A90000"/>
<stop offset="0.468349" stop-color="#D20000"/>
<stop offset="1" stop-color="#FA0000"/>
</linearGradient>
</defs>
</svg>
