<svg width="212" height="122" viewBox="0 0 212 122" fill="none" xmlns="http://www.w3.org/2000/svg">
<path d="M187 105.644C187 111.214 119.18 122 106.471 122C93.7617 122 26 111.41 26 105.056C26 98.7021 26.112 61 26.112 61H186.87C186.87 61 187 100.114 187 105.644Z" fill="url(#paint0_linear)"/>
<path d="M55.8714 93.96L56.3674 93.176C56.4207 93.0907 56.4794 93.048 56.5434 93.048C56.6074 93.048 56.6607 93.0693 56.7034 93.112L56.8794 93.24C57.4234 93.6347 57.93 93.832 58.3994 93.832C58.7834 93.832 59.114 93.7307 59.3914 93.528C59.6794 93.3253 59.8927 93.0907 60.0314 92.824C60.17 92.5467 60.2767 92.2213 60.3514 91.848C60.4367 91.464 60.4847 91.16 60.4954 90.936C60.5167 90.7013 60.5274 90.4667 60.5274 90.232V90.024H57.6314C57.4607 90.024 57.3754 89.9387 57.3754 89.768V88.856C57.3754 88.6747 57.466 88.584 57.6474 88.584H60.5274V88.424C60.5274 88.0507 60.4954 87.6933 60.4314 87.352C60.378 87.0107 60.282 86.6693 60.1434 86.328C60.0154 85.976 59.8127 85.6987 59.5354 85.496C59.258 85.2827 58.9274 85.176 58.5434 85.176C58.0634 85.176 57.546 85.4 56.9914 85.848L56.7994 85.992C56.7567 86.024 56.7194 86.04 56.6874 86.04C56.634 86.04 56.5807 85.9973 56.5274 85.912L56.0154 85.192C55.9727 85.128 55.9514 85.0747 55.9514 85.032C55.9514 84.936 56.0207 84.8347 56.1594 84.728C56.8954 84.088 57.7487 83.768 58.7194 83.768C59.3807 83.768 59.9514 83.9173 60.4314 84.216C60.922 84.5147 61.306 84.936 61.5834 85.48C61.8607 86.0133 62.0634 86.616 62.1914 87.288C62.3194 87.96 62.3834 88.712 62.3834 89.544C62.3834 91.5387 62.0207 93.0053 61.2954 93.944C60.634 94.808 59.7114 95.24 58.5274 95.24C57.4074 95.24 56.554 94.9253 55.9674 94.296C55.882 94.2107 55.8394 94.136 55.8394 94.072C55.8394 94.04 55.85 94.0027 55.8714 93.96ZM66.1955 95H64.9635C64.7928 95 64.7075 94.9147 64.7075 94.744V84.2C64.7075 84.0827 64.7608 84.024 64.8675 84.024H66.2595C66.3875 84.024 66.4515 84.0933 66.4515 84.232V88.568H67.2675C67.9822 88.568 68.4248 88.1413 68.5955 87.288L68.8675 86.024C69.0382 85.256 69.2675 84.728 69.5555 84.44C69.7688 84.2267 70.0302 84.0667 70.3395 83.96C70.6595 83.8427 70.9262 83.784 71.1395 83.784C71.2888 83.784 71.3848 83.848 71.4275 83.976L71.6995 84.904C71.7102 84.9253 71.7155 84.9573 71.7155 85C71.7155 85.1067 71.6462 85.176 71.5075 85.208L71.1875 85.272C70.9955 85.304 70.8355 85.3893 70.7075 85.528C70.5795 85.6667 70.4942 85.8053 70.4515 85.944C70.4088 86.0827 70.3608 86.28 70.3075 86.536L70.0835 87.544C69.8915 88.44 69.4862 89.016 68.8675 89.272C69.1875 89.3787 69.4702 89.592 69.7155 89.912C69.9715 90.232 70.1475 90.5787 70.2435 90.952L70.6275 92.568C70.6702 92.728 70.7075 92.872 70.7395 93C70.7822 93.1173 70.8248 93.2187 70.8675 93.304C70.9208 93.3787 70.9635 93.4427 70.9955 93.496C71.0275 93.5387 71.0755 93.576 71.1395 93.608C71.2035 93.6293 71.2462 93.6453 71.2675 93.656C71.2888 93.6667 71.3368 93.6773 71.4115 93.688C71.4862 93.6987 71.5342 93.704 71.5555 93.704L71.8595 93.752C72.0195 93.8053 72.0995 93.8693 72.0995 93.944C72.0995 93.9867 72.0942 94.0187 72.0835 94.04L71.7475 95.048C71.7262 95.1333 71.6942 95.1867 71.6515 95.208C71.6195 95.2293 71.5502 95.24 71.4435 95.24C70.7288 95.24 70.1902 95.08 69.8275 94.76C69.4648 94.44 69.1982 93.8907 69.0275 93.112L68.6595 91.4C68.5422 90.8453 68.3768 90.4773 68.1635 90.296C67.9502 90.104 67.6462 90.008 67.2515 90.008H66.4515V94.744C66.4515 94.9147 66.3662 95 66.1955 95ZM79.5289 93.88C79.5822 93.9653 79.6089 94.0347 79.6089 94.088C79.6089 94.152 79.5502 94.2373 79.4329 94.344C78.6862 94.9413 77.8649 95.24 76.9689 95.24C75.7102 95.24 74.7502 94.744 74.0889 93.752C73.4275 92.7493 73.0969 91.2933 73.0969 89.384C73.0969 88.8507 73.1289 88.3387 73.1929 87.848C73.2569 87.3573 73.3742 86.856 73.5449 86.344C73.7262 85.832 73.9502 85.3947 74.2169 85.032C74.4942 84.6587 74.8569 84.3547 75.3049 84.12C75.7635 83.8853 76.2862 83.768 76.8729 83.768C77.8009 83.768 78.6382 84.088 79.3849 84.728C79.4915 84.824 79.5449 84.9093 79.5449 84.984C79.5449 85.0373 79.5182 85.1067 79.4649 85.192L78.9529 86.008C78.9315 86.0613 78.8835 86.088 78.8089 86.088C78.7342 86.088 78.6702 86.0613 78.6169 86.008C77.9662 85.496 77.4062 85.24 76.9369 85.24C76.2649 85.24 75.7689 85.5547 75.4489 86.184C75.1289 86.8133 74.9689 87.8 74.9689 89.144C74.9689 92.216 75.6889 93.752 77.1289 93.752C77.6089 93.752 78.1209 93.544 78.6649 93.128C78.7609 93.0533 78.8355 93.016 78.8889 93.016C78.9529 93.016 79.0062 93.048 79.0489 93.112L79.5289 93.88ZM82.8361 95H81.6041C81.4335 95 81.3481 94.9147 81.3481 94.744V84.2C81.3481 84.0827 81.4015 84.024 81.5081 84.024H82.9001C83.0281 84.024 83.0921 84.0933 83.0921 84.232V88.568H83.9081C84.6228 88.568 85.0655 88.1413 85.2361 87.288L85.5081 86.024C85.6788 85.256 85.9081 84.728 86.1961 84.44C86.4095 84.2267 86.6708 84.0667 86.9801 83.96C87.3001 83.8427 87.5668 83.784 87.7801 83.784C87.9295 83.784 88.0255 83.848 88.0681 83.976L88.3401 84.904C88.3508 84.9253 88.3561 84.9573 88.3561 85C88.3561 85.1067 88.2868 85.176 88.1481 85.208L87.8281 85.272C87.6361 85.304 87.4761 85.3893 87.3481 85.528C87.2201 85.6667 87.1348 85.8053 87.0921 85.944C87.0495 86.0827 87.0015 86.28 86.9481 86.536L86.7241 87.544C86.5321 88.44 86.1268 89.016 85.5081 89.272C85.8281 89.3787 86.1108 89.592 86.3561 89.912C86.6121 90.232 86.7881 90.5787 86.8841 90.952L87.2681 92.568C87.3108 92.728 87.3481 92.872 87.3801 93C87.4228 93.1173 87.4655 93.2187 87.5081 93.304C87.5615 93.3787 87.6041 93.4427 87.6361 93.496C87.6681 93.5387 87.7161 93.576 87.7801 93.608C87.8441 93.6293 87.8868 93.6453 87.9081 93.656C87.9295 93.6667 87.9775 93.6773 88.0521 93.688C88.1268 93.6987 88.1748 93.704 88.1961 93.704L88.5001 93.752C88.6601 93.8053 88.7401 93.8693 88.7401 93.944C88.7401 93.9867 88.7348 94.0187 88.7241 94.04L88.3881 95.048C88.3668 95.1333 88.3348 95.1867 88.2921 95.208C88.2601 95.2293 88.1908 95.24 88.0841 95.24C87.3695 95.24 86.8308 95.08 86.4681 94.76C86.1055 94.44 85.8388 93.8907 85.6681 93.112L85.3001 91.4C85.1828 90.8453 85.0175 90.4773 84.8041 90.296C84.5908 90.104 84.2868 90.008 83.8921 90.008H83.0921V94.744C83.0921 94.9147 83.0068 95 82.8361 95ZM97.285 84.28V94.744C97.285 94.9147 97.1997 95 97.029 95H95.781C95.6103 95 95.525 94.9147 95.525 94.744V85.464H93.061L93.045 87.016C93.0237 88.5413 92.9543 89.8533 92.837 90.952C92.7943 91.3147 92.7357 91.6613 92.661 91.992C92.597 92.3227 92.485 92.696 92.325 93.112C92.165 93.528 91.973 93.8853 91.749 94.184C91.5357 94.472 91.2423 94.7227 90.869 94.936C90.4957 95.1387 90.0743 95.24 89.605 95.24C89.4237 95.24 89.317 95.1653 89.285 95.016L89.045 94.072C89.045 94.0613 89.045 94.0453 89.045 94.024C89.0343 94.0027 89.029 93.9867 89.029 93.976C89.029 93.8373 89.1037 93.7573 89.253 93.736L89.493 93.704C89.9303 93.6507 90.293 93.4907 90.581 93.224C90.869 92.9467 91.0877 92.376 91.237 91.512C91.3863 90.648 91.4663 89.8853 91.477 89.224C91.4983 88.552 91.509 87.624 91.509 86.44C91.509 86.2053 91.509 86.0347 91.509 85.928V84.264C91.509 84.104 91.589 84.024 91.749 84.024H97.029C97.1997 84.024 97.285 84.1093 97.285 84.28ZM102.046 88.6H103.662C103.683 88.312 103.715 88.0293 103.758 87.752C103.8 87.464 103.87 87.1227 103.966 86.728C104.072 86.3333 104.216 85.976 104.398 85.656C104.59 85.3253 104.814 85.016 105.07 84.728C105.336 84.4293 105.672 84.1947 106.078 84.024C106.494 83.8533 106.952 83.768 107.454 83.768C108.019 83.768 108.52 83.8747 108.958 84.088C109.395 84.3013 109.742 84.5947 109.998 84.968C110.254 85.3413 110.467 85.7253 110.638 86.12C110.819 86.5147 110.947 86.9573 111.022 87.448C111.096 87.928 111.144 88.3173 111.166 88.616C111.187 88.9147 111.198 89.2187 111.198 89.528C111.198 89.848 111.182 90.1733 111.15 90.504C111.128 90.824 111.075 91.2187 110.99 91.688C110.915 92.1573 110.787 92.5893 110.606 92.984C110.435 93.368 110.216 93.7413 109.95 94.104C109.694 94.456 109.347 94.7333 108.91 94.936C108.483 95.1387 107.998 95.24 107.454 95.24C106.888 95.24 106.382 95.1333 105.934 94.92C105.496 94.696 105.139 94.408 104.862 94.056C104.584 93.704 104.35 93.2933 104.158 92.824C103.976 92.3547 103.848 91.896 103.774 91.448C103.699 90.9893 103.656 90.52 103.646 90.04H102.046V94.728C102.046 94.9093 101.971 95 101.822 95H100.558C100.376 95 100.286 94.92 100.286 94.76V84.28C100.286 84.1733 100.307 84.104 100.35 84.072C100.392 84.04 100.467 84.024 100.574 84.024H101.774C101.955 84.024 102.046 84.1093 102.046 84.28V88.6ZM107.39 93.832C107.827 93.832 108.184 93.6987 108.462 93.432C109.038 92.888 109.326 91.5813 109.326 89.512C109.326 87.4853 109.038 86.184 108.462 85.608C108.174 85.32 107.816 85.176 107.39 85.176C106.952 85.176 106.59 85.32 106.302 85.608C105.726 86.184 105.438 87.48 105.438 89.496C105.438 91.5227 105.704 92.8133 106.238 93.368C106.536 93.6773 106.92 93.832 107.39 93.832ZM114.384 89.8V88.904C114.384 88.7333 114.469 88.648 114.64 88.648H115.088C115.717 88.648 116.192 88.4933 116.512 88.184C116.821 87.8747 116.976 87.4533 116.976 86.92C116.976 86.4507 116.827 86.0507 116.528 85.72C116.24 85.3787 115.835 85.208 115.312 85.208C114.768 85.208 114.24 85.416 113.728 85.832L113.552 85.976C113.509 86.0187 113.451 86.04 113.376 86.04C113.291 86.04 113.227 86.008 113.184 85.944L112.736 85.304C112.683 85.2187 112.656 85.1547 112.656 85.112C112.656 85.0373 112.704 84.952 112.8 84.856C113.493 84.1307 114.427 83.768 115.6 83.768C116.229 83.768 116.763 83.8747 117.2 84.088C117.648 84.2907 117.973 84.5627 118.176 84.904C118.379 85.2347 118.517 85.5493 118.592 85.848C118.667 86.136 118.704 86.4293 118.704 86.728C118.704 88.008 118.165 88.8293 117.088 89.192C118.379 89.6187 119.024 90.5253 119.024 91.912C119.024 92.904 118.741 93.6933 118.176 94.28C117.557 94.92 116.672 95.24 115.52 95.24C114.699 95.24 114.021 95.1173 113.488 94.872C113.221 94.7547 112.971 94.6107 112.736 94.44C112.512 94.2693 112.4 94.1147 112.4 93.976C112.4 93.9227 112.411 93.88 112.432 93.848L112.928 92.984C112.96 92.9413 113.003 92.92 113.056 92.92C113.131 92.92 113.2 92.9467 113.264 93L113.424 93.112C114.085 93.5707 114.704 93.8 115.28 93.8C116.571 93.8 117.216 93.1547 117.216 91.864C117.216 91.2347 117.019 90.776 116.624 90.488C116.24 90.2 115.781 90.056 115.248 90.056H114.64C114.469 90.056 114.384 89.9707 114.384 89.8ZM128.768 84.28V94.744C128.768 94.9147 128.683 95 128.512 95H127.264C127.094 95 127.008 94.9147 127.008 94.744V88.296C127.008 87.8053 127.046 87.272 127.12 86.696H127.072C126.934 87.208 126.715 87.768 126.416 88.376L123.344 94.776C123.28 94.9253 123.179 95 123.04 95H121.76C121.59 95 121.504 94.9147 121.504 94.744V84.28C121.504 84.1093 121.59 84.024 121.76 84.024H123.008C123.179 84.024 123.264 84.1093 123.264 84.28V90.312C123.264 90.4933 123.227 91.1067 123.152 92.152H123.2C123.222 92.0987 123.286 91.9333 123.392 91.656C123.499 91.3787 123.6 91.1173 123.696 90.872C123.792 90.6267 123.872 90.44 123.936 90.312L126.832 84.2C126.896 84.0827 126.982 84.024 127.088 84.024H128.512C128.683 84.024 128.768 84.1093 128.768 84.28ZM138.506 91.928C138.506 92.664 138.309 93.304 137.914 93.848C137.53 94.3813 137.023 94.7173 136.394 94.856C135.989 94.952 135.375 95 134.554 95H132.026C131.909 95 131.834 94.984 131.802 94.952C131.781 94.92 131.77 94.8453 131.77 94.728V84.296C131.77 84.1787 131.781 84.104 131.802 84.072C131.834 84.04 131.909 84.024 132.026 84.024H134.65C135.418 84.024 135.983 84.072 136.346 84.168C136.719 84.2533 137.039 84.4293 137.306 84.696C137.839 85.208 138.106 85.8907 138.106 86.744C138.106 87.9173 137.578 88.7547 136.522 89.256C137.845 89.6187 138.506 90.5093 138.506 91.928ZM136.314 86.936C136.314 86.3707 136.181 85.9653 135.914 85.72C135.647 85.4747 135.215 85.352 134.618 85.352H133.45V88.728H134.49C135.706 88.728 136.314 88.1307 136.314 86.936ZM136.202 93.176C136.533 92.8987 136.698 92.456 136.698 91.848C136.698 91.24 136.527 90.792 136.186 90.504C135.845 90.216 135.311 90.072 134.586 90.072H133.45V93.592H134.618C135.343 93.592 135.871 93.4533 136.202 93.176ZM147.982 94.728C147.982 94.8453 147.961 94.92 147.918 94.952C147.886 94.984 147.811 95 147.694 95H146.494C146.377 95 146.302 94.984 146.27 94.952C146.238 94.92 146.222 94.8453 146.222 94.728V89.976H142.702V94.728C142.702 94.8453 142.681 94.92 142.638 94.952C142.606 94.984 142.531 95 142.414 95H141.198C141.081 95 141.006 94.984 140.974 94.952C140.953 94.92 140.942 94.8453 140.942 94.728V84.296C140.942 84.1787 140.953 84.104 140.974 84.072C141.006 84.04 141.081 84.024 141.198 84.024H142.414C142.531 84.024 142.606 84.04 142.638 84.072C142.681 84.104 142.702 84.1787 142.702 84.296V88.616H146.222V84.296C146.222 84.1787 146.238 84.104 146.27 84.072C146.302 84.04 146.377 84.024 146.494 84.024H147.694C147.811 84.024 147.886 84.04 147.918 84.072C147.961 84.104 147.982 84.1787 147.982 84.296V94.728ZM157.837 89.432C157.837 93.304 156.557 95.24 153.997 95.24C151.511 95.24 150.269 93.3093 150.269 89.448C150.269 87.72 150.578 86.344 151.197 85.32C151.815 84.2853 152.786 83.768 154.109 83.768C156.594 83.768 157.837 85.656 157.837 89.432ZM155.965 89.496C155.965 86.616 155.335 85.176 154.077 85.176C153.415 85.176 152.925 85.528 152.605 86.232C152.295 86.9253 152.141 88.008 152.141 89.48C152.141 90.9093 152.29 91.992 152.589 92.728C152.887 93.464 153.373 93.832 154.045 93.832C154.706 93.832 155.191 93.4853 155.501 92.792C155.81 92.088 155.965 90.9893 155.965 89.496Z" fill="white"/>
<rect width="212" height="52.803" rx="26.4015" fill="white"/>
<path d="M34.1798 23.1312L31.7572 25.5538L29.3347 23.1312C27.9981 21.7946 27.9981 19.6227 29.3347 18.2444C30.6712 16.9078 32.8432 16.9078 34.1798 18.2444C35.5163 19.5809 35.5163 21.7946 34.1798 23.1312Z" fill="#14582A"/>
<path d="M29.3347 29.981L31.7572 27.5585L34.1798 29.981C35.5163 31.3176 35.5163 33.4895 34.1798 34.8679C32.8432 36.2044 30.6712 36.2044 29.3347 34.8679C27.9981 33.4895 27.9981 31.3176 29.3347 29.981Z" fill="#14582A"/>
<path d="M35.1407 28.9786L32.7182 26.5561L35.1407 24.1335C36.4773 22.797 38.6492 22.797 39.9858 24.1335C41.3224 25.4701 41.3224 27.642 39.9858 29.0204C38.6492 30.3152 36.4773 30.3152 35.1407 28.9786Z" fill="#14582A"/>
<path d="M28.3322 24.092L30.7548 26.5146L28.3322 28.9789C26.9957 30.3154 24.8237 30.3154 23.4872 28.9789C22.1506 27.6423 22.1506 25.4704 23.4872 24.092C24.8237 22.7555 26.9957 22.7555 28.3322 24.092Z" fill="#14582A"/>
<path d="M164.078 22.9639H154.054V25.8041H157.604V34.3247H160.528V25.8041H164.078V22.9639Z" fill="#14582A"/>
<path d="M67.5105 31.9859C68.6382 31.9859 69.5571 31.5264 70.0583 30.8582L72.3973 32.2365C71.3531 33.7819 69.6406 34.659 67.4687 34.659C63.6678 34.659 61.287 32.0277 61.287 28.6445C61.287 25.2613 63.7096 22.6299 67.2599 22.6299C70.6013 22.6299 72.9821 25.303 72.9821 28.6445C72.9821 29.0621 72.9403 29.4798 72.8568 29.8557H64.3361C64.7538 31.3594 65.9651 31.9859 67.5105 31.9859ZM70.0583 27.6003C69.6824 25.9713 68.4711 25.303 67.2599 25.303C65.7144 25.303 64.6285 26.1384 64.2943 27.6003H70.0583Z" fill="#14582A"/>
<path d="M87.1 28.6445C87.1 32.0277 84.5939 34.659 81.5866 34.659C79.9159 34.659 78.7464 34.0325 77.911 32.9883V38.8776H74.9873V22.964H77.911V24.3006C78.7046 23.2564 79.9159 22.6299 81.5866 22.6299C84.6357 22.6717 87.1 25.2613 87.1 28.6445ZM84.1762 28.6445C84.1762 26.7231 82.8396 25.4283 81.0436 25.4283C79.2476 25.4283 77.911 26.7231 77.911 28.6445C77.911 30.5658 79.2476 31.8606 81.0436 31.8606C82.8396 31.8606 84.1762 30.5658 84.1762 28.6445Z" fill="#14582A"/>
<path d="M94.8267 31.9859C95.9544 31.9859 96.8733 31.5264 97.3745 30.8582L99.7135 32.2365C98.6693 33.7819 96.9569 34.659 94.7849 34.659C90.984 34.659 88.6033 32.0277 88.6033 28.6445C88.6033 25.2613 91.0258 22.6299 94.5761 22.6299C97.9175 22.6299 100.298 25.303 100.298 28.6445C100.298 29.0621 100.257 29.4798 100.173 29.8557H91.6523C92.0282 31.3594 93.2813 31.9859 94.8267 31.9859ZM97.3745 27.6003C96.9986 25.9713 95.7874 25.303 94.5761 25.303C93.0307 25.303 91.9447 26.1384 91.6106 27.6003H97.3745Z" fill="#14582A"/>
<path d="M127.156 28.6445C127.156 32.0277 124.649 34.659 121.642 34.659C119.971 34.659 118.802 34.0325 117.967 32.9883V38.8776H115.043V22.964H117.967V24.3006C118.76 23.2564 119.971 22.6299 121.642 22.6299C124.649 22.6717 127.156 25.2613 127.156 28.6445ZM124.232 28.6445C124.232 26.7231 122.895 25.4283 121.099 25.4283C119.303 25.4283 117.967 26.7231 117.967 28.6445C117.967 30.5658 119.303 31.8606 121.099 31.8606C122.895 31.8606 124.232 30.5658 124.232 28.6445Z" fill="#14582A"/>
<path d="M134.841 31.9859C135.968 31.9859 136.887 31.5265 137.388 30.8582L139.727 32.2365C138.683 33.7819 136.971 34.6591 134.799 34.6591C130.998 34.6591 128.617 32.0277 128.617 28.6445C128.617 25.2613 131.04 22.6299 134.59 22.6299C137.931 22.6299 140.312 25.3031 140.312 28.6445C140.312 29.0622 140.27 29.4799 140.187 29.8558H131.666C132.084 31.3594 133.337 31.9859 134.841 31.9859ZM130.747 20.2491C130.747 19.4138 131.457 18.7037 132.293 18.7037C133.128 18.7037 133.796 19.4138 133.796 20.2491C133.796 21.0845 133.128 21.7528 132.293 21.7528C131.457 21.7528 130.747 21.0845 130.747 20.2491ZM137.388 27.6003C137.013 25.9713 135.801 25.3031 134.59 25.3031C133.045 25.3031 131.959 26.1384 131.624 27.6003H137.388ZM135.049 20.2491C135.049 19.4138 135.76 18.7037 136.595 18.7037C137.43 18.7037 138.098 19.4138 138.098 20.2491C138.098 21.0845 137.43 21.7528 136.595 21.7528C135.76 21.7528 135.049 21.0845 135.049 20.2491Z" fill="#14582A"/>
<path d="M141.69 28.6445C141.69 25.2613 144.238 22.6299 147.663 22.6299C149.877 22.6299 151.798 23.7994 152.717 25.5536L150.211 27.0155C149.752 26.0966 148.791 25.5119 147.621 25.5119C145.867 25.5119 144.572 26.8067 144.572 28.6445C144.572 30.4405 145.867 31.7353 147.621 31.7353C148.791 31.7353 149.752 31.1505 150.211 30.2316L152.759 31.6935C151.798 33.4478 149.877 34.659 147.663 34.659C144.196 34.659 141.69 32.0277 141.69 28.6445Z" fill="#14582A"/>
<path d="M165.038 28.6445C165.038 25.2613 167.67 22.6299 171.011 22.6299C174.353 22.6299 177.026 25.2613 177.026 28.6445C177.026 32.0277 174.353 34.659 171.011 34.659C167.67 34.659 165.038 32.0277 165.038 28.6445ZM174.06 28.6445C174.06 26.8067 172.724 25.5119 170.969 25.5119C169.257 25.5119 167.92 26.8067 167.92 28.6445C167.92 30.4822 169.257 31.7771 170.969 31.7771C172.724 31.7771 174.06 30.4822 174.06 28.6445Z" fill="#14582A"/>
<path d="M109.738 34.3247H113.121L108.777 28.6025L112.996 22.9639H109.487L106.23 27.6001H105.227V22.9639H102.303V34.3247H105.227V29.8556H106.48L109.738 34.3247Z" fill="#14582A"/>
<path d="M186.132 34.3247H189.515L185.213 28.6025L189.39 22.9639H185.923L182.623 27.6001H181.662V22.9639H178.739V34.3247H181.662V29.8556H182.874L186.132 34.3247Z" fill="#14582A"/>
<path d="M59.3658 34.3249H56.2332V21.6275H50.6363V34.3249H47.5455V18.7037H59.3658V34.3249Z" fill="#14582A"/>
<defs>
<linearGradient id="paint0_linear" x1="106.773" y1="122.029" x2="106.773" y2="56.2344" gradientUnits="userSpaceOnUse">
<stop stop-color="#A90000"/>
<stop offset="0.468349" stop-color="#D20000"/>
<stop offset="1" stop-color="#FA0000"/>
</linearGradient>
</defs>
</svg>
