<svg width="162" height="92" viewBox="0 0 162 92" fill="none" xmlns="http://www.w3.org/2000/svg">
<path d="M162 73.4754C162 79.443 94.1797 91 81.4707 91C68.7617 91 1 79.6531 1 72.845C1 66.0369 1.11203 48 1.11203 48H161.87C161.87 48 162 67.5498 162 73.4754Z" fill="url(#paint0_linear)"/>
<path d="M31.1339 69.3263L31.6299 68.5423C31.6833 68.457 31.7419 68.4143 31.8059 68.4143C31.8699 68.4143 31.9233 68.4357 31.9659 68.4783L32.1419 68.6063C32.6859 69.001 33.1926 69.1983 33.6619 69.1983C34.0459 69.1983 34.3766 69.097 34.6539 68.8943C34.9419 68.6917 35.1553 68.457 35.2939 68.1903C35.4326 67.913 35.5393 67.5877 35.6139 67.2143C35.6993 66.8303 35.7473 66.5263 35.7579 66.3023C35.7793 66.0677 35.7899 65.833 35.7899 65.5983V65.3903H32.8939C32.7233 65.3903 32.6379 65.305 32.6379 65.1343V64.2223C32.6379 64.041 32.7286 63.9503 32.9099 63.9503H35.7899V63.7903C35.7899 63.417 35.7579 63.0597 35.6939 62.7183C35.6406 62.377 35.5446 62.0357 35.4059 61.6943C35.2779 61.3423 35.0753 61.065 34.7979 60.8623C34.5206 60.649 34.1899 60.5423 33.8059 60.5423C33.3259 60.5423 32.8086 60.7663 32.2539 61.2143L32.0619 61.3583C32.0193 61.3903 31.9819 61.4063 31.9499 61.4063C31.8966 61.4063 31.8433 61.3637 31.7899 61.2783L31.2779 60.5583C31.2353 60.4943 31.2139 60.441 31.2139 60.3983C31.2139 60.3023 31.2833 60.201 31.4219 60.0943C32.1579 59.4543 33.0113 59.1343 33.9819 59.1343C34.6433 59.1343 35.2139 59.2837 35.6939 59.5823C36.1846 59.881 36.5686 60.3023 36.8459 60.8463C37.1233 61.3797 37.3259 61.9823 37.4539 62.6543C37.5819 63.3263 37.6459 64.0783 37.6459 64.9103C37.6459 66.905 37.2833 68.3717 36.5579 69.3103C35.8966 70.1743 34.9739 70.6063 33.7899 70.6063C32.6699 70.6063 31.8166 70.2917 31.2299 69.6623C31.1446 69.577 31.1019 69.5023 31.1019 69.4383C31.1019 69.4063 31.1126 69.369 31.1339 69.3263ZM41.4581 70.3663H40.2261C40.0554 70.3663 39.9701 70.281 39.9701 70.1103V59.5663C39.9701 59.449 40.0234 59.3903 40.1301 59.3903H41.5221C41.6501 59.3903 41.7141 59.4597 41.7141 59.5983V63.9343H42.5301C43.2447 63.9343 43.6874 63.5077 43.8581 62.6543L44.1301 61.3903C44.3007 60.6223 44.5301 60.0943 44.8181 59.8063C45.0314 59.593 45.2927 59.433 45.6021 59.3263C45.9221 59.209 46.1887 59.1503 46.4021 59.1503C46.5514 59.1503 46.6474 59.2143 46.6901 59.3423L46.9621 60.2703C46.9727 60.2917 46.9781 60.3237 46.9781 60.3663C46.9781 60.473 46.9087 60.5423 46.7701 60.5743L46.4501 60.6383C46.2581 60.6703 46.0981 60.7557 45.9701 60.8943C45.8421 61.033 45.7567 61.1717 45.7141 61.3103C45.6714 61.449 45.6234 61.6463 45.5701 61.9023L45.3461 62.9103C45.1541 63.8063 44.7487 64.3823 44.1301 64.6383C44.4501 64.745 44.7327 64.9583 44.9781 65.2783C45.2341 65.5983 45.4101 65.945 45.5061 66.3183L45.8901 67.9343C45.9327 68.0943 45.9701 68.2383 46.0021 68.3663C46.0447 68.4837 46.0874 68.585 46.1301 68.6703C46.1834 68.745 46.2261 68.809 46.2581 68.8623C46.2901 68.905 46.3381 68.9423 46.4021 68.9743C46.4661 68.9957 46.5087 69.0117 46.5301 69.0223C46.5514 69.033 46.5994 69.0437 46.6741 69.0543C46.7487 69.065 46.7967 69.0703 46.8181 69.0703L47.1221 69.1183C47.2821 69.1717 47.3621 69.2357 47.3621 69.3103C47.3621 69.353 47.3567 69.385 47.3461 69.4063L47.0101 70.4143C46.9887 70.4997 46.9567 70.553 46.9141 70.5743C46.8821 70.5957 46.8127 70.6063 46.7061 70.6063C45.9914 70.6063 45.4527 70.4463 45.0901 70.1263C44.7274 69.8063 44.4607 69.257 44.2901 68.4783L43.9221 66.7663C43.8047 66.2117 43.6394 65.8437 43.4261 65.6623C43.2127 65.4703 42.9087 65.3743 42.5141 65.3743H41.7141V70.1103C41.7141 70.281 41.6287 70.3663 41.4581 70.3663ZM54.7914 69.2463C54.8448 69.3317 54.8714 69.401 54.8714 69.4543C54.8714 69.5183 54.8128 69.6037 54.6954 69.7103C53.9488 70.3077 53.1274 70.6063 52.2314 70.6063C50.9728 70.6063 50.0128 70.1103 49.3514 69.1183C48.6901 68.1157 48.3594 66.6597 48.3594 64.7503C48.3594 64.217 48.3914 63.705 48.4554 63.2143C48.5194 62.7237 48.6368 62.2223 48.8074 61.7103C48.9888 61.1983 49.2128 60.761 49.4794 60.3983C49.7568 60.025 50.1194 59.721 50.5674 59.4863C51.0261 59.2517 51.5488 59.1343 52.1354 59.1343C53.0634 59.1343 53.9008 59.4543 54.6474 60.0943C54.7541 60.1903 54.8074 60.2757 54.8074 60.3503C54.8074 60.4037 54.7808 60.473 54.7274 60.5583L54.2154 61.3743C54.1941 61.4277 54.1461 61.4543 54.0714 61.4543C53.9968 61.4543 53.9328 61.4277 53.8794 61.3743C53.2288 60.8623 52.6688 60.6063 52.1994 60.6063C51.5274 60.6063 51.0314 60.921 50.7114 61.5503C50.3914 62.1797 50.2314 63.1663 50.2314 64.5103C50.2314 67.5823 50.9514 69.1183 52.3914 69.1183C52.8714 69.1183 53.3834 68.9103 53.9274 68.4943C54.0234 68.4197 54.0981 68.3823 54.1514 68.3823C54.2154 68.3823 54.2688 68.4143 54.3114 68.4783L54.7914 69.2463ZM58.0987 70.3663H56.8667C56.696 70.3663 56.6107 70.281 56.6107 70.1103V59.5663C56.6107 59.449 56.664 59.3903 56.7707 59.3903H58.1627C58.2907 59.3903 58.3547 59.4597 58.3547 59.5983V63.9343H59.1707C59.8854 63.9343 60.328 63.5077 60.4987 62.6543L60.7707 61.3903C60.9414 60.6223 61.1707 60.0943 61.4587 59.8063C61.672 59.593 61.9334 59.433 62.2427 59.3263C62.5627 59.209 62.8294 59.1503 63.0427 59.1503C63.192 59.1503 63.288 59.2143 63.3307 59.3423L63.6027 60.2703C63.6134 60.2917 63.6187 60.3237 63.6187 60.3663C63.6187 60.473 63.5494 60.5423 63.4107 60.5743L63.0907 60.6383C62.8987 60.6703 62.7387 60.7557 62.6107 60.8943C62.4827 61.033 62.3974 61.1717 62.3547 61.3103C62.312 61.449 62.264 61.6463 62.2107 61.9023L61.9867 62.9103C61.7947 63.8063 61.3894 64.3823 60.7707 64.6383C61.0907 64.745 61.3734 64.9583 61.6187 65.2783C61.8747 65.5983 62.0507 65.945 62.1467 66.3183L62.5307 67.9343C62.5734 68.0943 62.6107 68.2383 62.6427 68.3663C62.6854 68.4837 62.728 68.585 62.7707 68.6703C62.824 68.745 62.8667 68.809 62.8987 68.8623C62.9307 68.905 62.9787 68.9423 63.0427 68.9743C63.1067 68.9957 63.1494 69.0117 63.1707 69.0223C63.192 69.033 63.24 69.0437 63.3147 69.0543C63.3894 69.065 63.4374 69.0703 63.4587 69.0703L63.7627 69.1183C63.9227 69.1717 64.0027 69.2357 64.0027 69.3103C64.0027 69.353 63.9974 69.385 63.9867 69.4063L63.6507 70.4143C63.6294 70.4997 63.5974 70.553 63.5547 70.5743C63.5227 70.5957 63.4534 70.6063 63.3467 70.6063C62.632 70.6063 62.0934 70.4463 61.7307 70.1263C61.368 69.8063 61.1014 69.257 60.9307 68.4783L60.5627 66.7663C60.4454 66.2117 60.28 65.8437 60.0667 65.6623C59.8534 65.4703 59.5494 65.3743 59.1547 65.3743H58.3547V70.1103C58.3547 70.281 58.2694 70.3663 58.0987 70.3663ZM72.5476 59.6463V70.1103C72.5476 70.281 72.4622 70.3663 72.2916 70.3663H71.0436C70.8729 70.3663 70.7876 70.281 70.7876 70.1103V60.8303H68.3236L68.3076 62.3823C68.2862 63.9077 68.2169 65.2197 68.0996 66.3183C68.0569 66.681 67.9982 67.0277 67.9236 67.3583C67.8596 67.689 67.7476 68.0623 67.5876 68.4783C67.4276 68.8943 67.2356 69.2517 67.0116 69.5503C66.7982 69.8383 66.5049 70.089 66.1316 70.3023C65.7582 70.505 65.3369 70.6063 64.8676 70.6063C64.6862 70.6063 64.5796 70.5317 64.5476 70.3823L64.3076 69.4383C64.3076 69.4277 64.3076 69.4117 64.3076 69.3903C64.2969 69.369 64.2916 69.353 64.2916 69.3423C64.2916 69.2037 64.3662 69.1237 64.5156 69.1023L64.7556 69.0703C65.1929 69.017 65.5556 68.857 65.8436 68.5903C66.1316 68.313 66.3502 67.7423 66.4996 66.8783C66.6489 66.0143 66.7289 65.2517 66.7396 64.5903C66.7609 63.9183 66.7716 62.9903 66.7716 61.8063C66.7716 61.5717 66.7716 61.401 66.7716 61.2943V59.6303C66.7716 59.4703 66.8516 59.3903 67.0116 59.3903H72.2916C72.4622 59.3903 72.5476 59.4757 72.5476 59.6463ZM77.3082 63.9663H78.9242C78.9455 63.6783 78.9775 63.3957 79.0202 63.1183C79.0629 62.8303 79.1322 62.489 79.2282 62.0943C79.3349 61.6997 79.4789 61.3423 79.6602 61.0223C79.8522 60.6917 80.0762 60.3823 80.3322 60.0943C80.5989 59.7957 80.9349 59.561 81.3402 59.3903C81.7562 59.2197 82.2149 59.1343 82.7162 59.1343C83.2815 59.1343 83.7829 59.241 84.2202 59.4543C84.6575 59.6677 85.0042 59.961 85.2602 60.3343C85.5162 60.7077 85.7295 61.0917 85.9002 61.4863C86.0815 61.881 86.2095 62.3237 86.2842 62.8143C86.3589 63.2943 86.4069 63.6837 86.4282 63.9823C86.4495 64.281 86.4602 64.585 86.4602 64.8943C86.4602 65.2143 86.4442 65.5397 86.4122 65.8703C86.3909 66.1903 86.3375 66.585 86.2522 67.0543C86.1775 67.5237 86.0495 67.9557 85.8682 68.3503C85.6975 68.7343 85.4789 69.1077 85.2122 69.4703C84.9562 69.8223 84.6095 70.0997 84.1722 70.3023C83.7455 70.505 83.2602 70.6063 82.7162 70.6063C82.1509 70.6063 81.6442 70.4997 81.1962 70.2863C80.7589 70.0623 80.4015 69.7743 80.1242 69.4223C79.8469 69.0703 79.6122 68.6597 79.4202 68.1903C79.2389 67.721 79.1109 67.2623 79.0362 66.8143C78.9615 66.3557 78.9189 65.8863 78.9082 65.4063H77.3082V70.0943C77.3082 70.2757 77.2335 70.3663 77.0842 70.3663H75.8202C75.6389 70.3663 75.5482 70.2863 75.5482 70.1263V59.6463C75.5482 59.5397 75.5695 59.4703 75.6122 59.4383C75.6549 59.4063 75.7295 59.3903 75.8362 59.3903H77.0362C77.2175 59.3903 77.3082 59.4757 77.3082 59.6463V63.9663ZM82.6522 69.1983C83.0895 69.1983 83.4469 69.065 83.7242 68.7983C84.3002 68.2543 84.5882 66.9477 84.5882 64.8783C84.5882 62.8517 84.3002 61.5503 83.7242 60.9743C83.4362 60.6863 83.0789 60.5423 82.6522 60.5423C82.2149 60.5423 81.8522 60.6863 81.5642 60.9743C80.9882 61.5503 80.7002 62.8463 80.7002 64.8623C80.7002 66.889 80.9669 68.1797 81.5002 68.7343C81.7989 69.0437 82.1829 69.1983 82.6522 69.1983ZM89.6466 65.1663V64.2703C89.6466 64.0997 89.7319 64.0143 89.9026 64.0143H90.3506C90.9799 64.0143 91.4546 63.8597 91.7746 63.5503C92.0839 63.241 92.2386 62.8197 92.2386 62.2863C92.2386 61.817 92.0892 61.417 91.7906 61.0863C91.5026 60.745 91.0972 60.5743 90.5746 60.5743C90.0306 60.5743 89.5026 60.7823 88.9906 61.1983L88.8146 61.3423C88.7719 61.385 88.7132 61.4063 88.6386 61.4063C88.5532 61.4063 88.4892 61.3743 88.4466 61.3103L87.9986 60.6703C87.9452 60.585 87.9186 60.521 87.9186 60.4783C87.9186 60.4037 87.9666 60.3183 88.0626 60.2223C88.7559 59.497 89.6892 59.1343 90.8626 59.1343C91.4919 59.1343 92.0252 59.241 92.4626 59.4543C92.9106 59.657 93.2359 59.929 93.4386 60.2703C93.6412 60.601 93.7799 60.9157 93.8546 61.2143C93.9292 61.5023 93.9666 61.7957 93.9666 62.0943C93.9666 63.3743 93.4279 64.1957 92.3506 64.5583C93.6412 64.985 94.2866 65.8917 94.2866 67.2783C94.2866 68.2703 94.0039 69.0597 93.4386 69.6463C92.8199 70.2863 91.9346 70.6063 90.7826 70.6063C89.9612 70.6063 89.2839 70.4837 88.7506 70.2383C88.4839 70.121 88.2332 69.977 87.9986 69.8063C87.7746 69.6357 87.6626 69.481 87.6626 69.3423C87.6626 69.289 87.6732 69.2463 87.6946 69.2143L88.1906 68.3503C88.2226 68.3077 88.2652 68.2863 88.3186 68.2863C88.3932 68.2863 88.4626 68.313 88.5266 68.3663L88.6866 68.4783C89.3479 68.937 89.9666 69.1663 90.5426 69.1663C91.8332 69.1663 92.4786 68.521 92.4786 67.2303C92.4786 66.601 92.2812 66.1423 91.8866 65.8543C91.5026 65.5663 91.0439 65.4223 90.5106 65.4223H89.9026C89.7319 65.4223 89.6466 65.337 89.6466 65.1663ZM104.031 59.6463V70.1103C104.031 70.281 103.946 70.3663 103.775 70.3663H102.527C102.356 70.3663 102.271 70.281 102.271 70.1103V63.6623C102.271 63.1717 102.308 62.6383 102.383 62.0623H102.335C102.196 62.5743 101.978 63.1343 101.679 63.7423L98.6069 70.1423C98.5429 70.2917 98.4416 70.3663 98.3029 70.3663H97.0229C96.8523 70.3663 96.7669 70.281 96.7669 70.1103V59.6463C96.7669 59.4757 96.8523 59.3903 97.0229 59.3903H98.2709C98.4416 59.3903 98.5269 59.4757 98.5269 59.6463V65.6783C98.5269 65.8597 98.4896 66.473 98.4149 67.5183H98.4629C98.4843 67.465 98.5483 67.2997 98.6549 67.0223C98.7616 66.745 98.8629 66.4837 98.9589 66.2383C99.0549 65.993 99.1349 65.8063 99.1989 65.6783L102.095 59.5663C102.159 59.449 102.244 59.3903 102.351 59.3903H103.775C103.946 59.3903 104.031 59.4757 104.031 59.6463ZM113.769 67.2943C113.769 68.0303 113.571 68.6703 113.177 69.2143C112.793 69.7477 112.286 70.0837 111.657 70.2223C111.251 70.3183 110.638 70.3663 109.817 70.3663H107.289C107.171 70.3663 107.097 70.3503 107.065 70.3183C107.043 70.2863 107.033 70.2117 107.033 70.0943V59.6623C107.033 59.545 107.043 59.4703 107.065 59.4383C107.097 59.4063 107.171 59.3903 107.289 59.3903H109.913C110.681 59.3903 111.246 59.4383 111.609 59.5343C111.982 59.6197 112.302 59.7957 112.569 60.0623C113.102 60.5743 113.369 61.257 113.369 62.1103C113.369 63.2837 112.841 64.121 111.785 64.6223C113.107 64.985 113.769 65.8757 113.769 67.2943ZM111.577 62.3023C111.577 61.737 111.443 61.3317 111.177 61.0863C110.91 60.841 110.478 60.7183 109.881 60.7183H108.713V64.0943H109.753C110.969 64.0943 111.577 63.497 111.577 62.3023ZM111.465 68.5423C111.795 68.265 111.961 67.8223 111.961 67.2143C111.961 66.6063 111.79 66.1583 111.449 65.8703C111.107 65.5823 110.574 65.4383 109.849 65.4383H108.713V68.9583H109.881C110.606 68.9583 111.134 68.8197 111.465 68.5423ZM123.244 70.0943C123.244 70.2117 123.223 70.2863 123.18 70.3183C123.148 70.3503 123.074 70.3663 122.956 70.3663H121.756C121.639 70.3663 121.564 70.3503 121.532 70.3183C121.5 70.2863 121.484 70.2117 121.484 70.0943V65.3423H117.964V70.0943C117.964 70.2117 117.943 70.2863 117.9 70.3183C117.868 70.3503 117.794 70.3663 117.676 70.3663H116.46C116.343 70.3663 116.268 70.3503 116.236 70.3183C116.215 70.2863 116.204 70.2117 116.204 70.0943V59.6623C116.204 59.545 116.215 59.4703 116.236 59.4383C116.268 59.4063 116.343 59.3903 116.46 59.3903H117.676C117.794 59.3903 117.868 59.4063 117.9 59.4383C117.943 59.4703 117.964 59.545 117.964 59.6623V63.9823H121.484V59.6623C121.484 59.545 121.5 59.4703 121.532 59.4383C121.564 59.4063 121.639 59.3903 121.756 59.3903H122.956C123.074 59.3903 123.148 59.4063 123.18 59.4383C123.223 59.4703 123.244 59.545 123.244 59.6623V70.0943ZM133.099 64.7983C133.099 68.6703 131.819 70.6063 129.259 70.6063C126.774 70.6063 125.531 68.6757 125.531 64.8143C125.531 63.0863 125.841 61.7103 126.459 60.6863C127.078 59.6517 128.049 59.1343 129.371 59.1343C131.857 59.1343 133.099 61.0223 133.099 64.7983ZM131.227 64.8623C131.227 61.9823 130.598 60.5423 129.339 60.5423C128.678 60.5423 128.187 60.8943 127.867 61.5983C127.558 62.2917 127.403 63.3743 127.403 64.8463C127.403 66.2757 127.553 67.3583 127.851 68.0943C128.15 68.8303 128.635 69.1983 129.307 69.1983C129.969 69.1983 130.454 68.8517 130.763 68.1583C131.073 67.4543 131.227 66.3557 131.227 64.8623Z" fill="white"/>
<rect y="0.325317" width="162" height="40.3494" rx="20.1747" fill="white"/>
<path d="M26.1186 18.0009L24.2675 19.8521L22.4163 18.0009C21.3949 16.9796 21.3949 15.3199 22.4163 14.2666C23.4376 13.2453 25.0973 13.2453 26.1186 14.2666C27.14 15.288 27.14 16.9796 26.1186 18.0009Z" fill="#14582A"/>
<path d="M22.4163 23.235L24.2675 21.3838L26.1186 23.235C27.14 24.2563 27.14 25.916 26.1186 26.9693C25.0973 27.9906 23.4376 27.9906 22.4163 26.9693C21.3949 25.916 21.3949 24.2563 22.4163 23.235Z" fill="#14582A"/>
<path d="M26.853 22.469L25.0018 20.6178L26.853 18.7666C27.8744 17.7453 29.534 17.7453 30.5554 18.7666C31.5767 19.788 31.5767 21.4476 30.5554 22.5009C29.534 23.4903 27.8744 23.4903 26.853 22.469Z" fill="#14582A"/>
<path d="M21.6505 18.7351L23.5017 20.5863L21.6505 22.4694C20.6292 23.4908 18.9695 23.4908 17.9481 22.4694C16.9268 21.4481 16.9268 19.7884 17.9481 18.7351C18.9695 17.7138 20.6292 17.7138 21.6505 18.7351Z" fill="#14582A"/>
<path d="M125.381 17.8733H117.72V20.0436H120.433V26.5547H122.668V20.0436H125.381V17.8733Z" fill="#14582A"/>
<path d="M51.5882 24.7673C52.4499 24.7673 53.1521 24.4162 53.5351 23.9056L55.3224 24.9588C54.5245 26.1398 53.2159 26.81 51.5562 26.81C48.6518 26.81 46.8325 24.7992 46.8325 22.214C46.8325 19.6287 48.6837 17.6179 51.3966 17.6179C53.95 17.6179 55.7693 19.6606 55.7693 22.214C55.7693 22.5331 55.7374 22.8523 55.6735 23.1396H49.1625C49.4816 24.2886 50.4072 24.7673 51.5882 24.7673ZM53.5351 21.416C53.2478 20.1713 52.3222 19.6606 51.3966 19.6606C50.2157 19.6606 49.3859 20.2989 49.1305 21.416H53.5351Z" fill="#14582A"/>
<path d="M66.5578 22.214C66.5578 24.7992 64.6428 26.81 62.3448 26.81C61.0681 26.81 60.1744 26.3313 59.5361 25.5333V30.0336H57.3019V17.8733H59.5361V18.8946C60.1425 18.0967 61.0681 17.6179 62.3448 17.6179C64.6747 17.6498 66.5578 19.6287 66.5578 22.214ZM64.3236 22.214C64.3236 20.7458 63.3023 19.7564 61.9298 19.7564C60.5574 19.7564 59.5361 20.7458 59.5361 22.214C59.5361 23.6821 60.5574 24.6716 61.9298 24.6716C63.3023 24.6716 64.3236 23.6821 64.3236 22.214Z" fill="#14582A"/>
<path d="M72.4622 24.7673C73.3239 24.7673 74.0261 24.4162 74.4091 23.9056L76.1965 24.9588C75.3985 26.1398 74.0899 26.81 72.4303 26.81C69.5258 26.81 67.7065 24.7992 67.7065 22.214C67.7065 19.6287 69.5577 17.6179 72.2707 17.6179C74.824 17.6179 76.6433 19.6606 76.6433 22.214C76.6433 22.5331 76.6114 22.8523 76.5475 23.1396H70.0365C70.3237 24.2886 71.2812 24.7673 72.4622 24.7673ZM74.4091 21.416C74.1219 20.1713 73.1963 19.6606 72.2707 19.6606C71.0897 19.6606 70.2599 20.2989 70.0046 21.416H74.4091Z" fill="#14582A"/>
<path d="M97.1662 22.214C97.1662 24.7992 95.2512 26.81 92.9532 26.81C91.6765 26.81 90.7828 26.3313 90.1445 25.5333V30.0336H87.9103V17.8733H90.1445V18.8946C90.7509 18.0967 91.6765 17.6179 92.9532 17.6179C95.2512 17.6498 97.1662 19.6287 97.1662 22.214ZM94.932 22.214C94.932 20.7458 93.9107 19.7564 92.5382 19.7564C91.1658 19.7564 90.1445 20.7458 90.1445 22.214C90.1445 23.6821 91.1658 24.6716 92.5382 24.6716C93.9107 24.6716 94.932 23.6821 94.932 22.214Z" fill="#14582A"/>
<path d="M103.039 24.7675C103.9 24.7675 104.603 24.4164 104.986 23.9058L106.773 24.959C105.975 26.14 104.666 26.8102 103.007 26.8102C100.102 26.8102 98.283 24.7994 98.283 22.2142C98.283 19.6289 100.134 17.6181 102.847 17.6181C105.4 17.6181 107.22 19.6608 107.22 22.2142C107.22 22.5333 107.188 22.8525 107.124 23.1398H100.613C100.932 24.2888 101.89 24.7675 103.039 24.7675ZM99.9107 15.7988C99.9107 15.1605 100.453 14.6179 101.092 14.6179C101.73 14.6179 102.241 15.1605 102.241 15.7988C102.241 16.4372 101.73 16.9479 101.092 16.9479C100.453 16.9479 99.9107 16.4372 99.9107 15.7988ZM104.986 21.4162C104.698 20.1715 103.773 19.6608 102.847 19.6608C101.666 19.6608 100.836 20.2991 100.581 21.4162H104.986ZM103.198 15.7988C103.198 15.1605 103.741 14.6179 104.379 14.6179C105.017 14.6179 105.528 15.1605 105.528 15.7988C105.528 16.4372 105.017 16.9479 104.379 16.9479C103.741 16.9479 103.198 16.4372 103.198 15.7988Z" fill="#14582A"/>
<path d="M108.273 22.214C108.273 19.6287 110.22 17.6179 112.837 17.6179C114.528 17.6179 115.997 18.5116 116.699 19.8521L114.784 20.9692C114.433 20.267 113.699 19.8202 112.805 19.8202C111.464 19.8202 110.475 20.8096 110.475 22.214C110.475 23.5864 111.464 24.5758 112.805 24.5758C113.699 24.5758 114.433 24.129 114.784 23.4268L116.731 24.5439C115.997 25.8844 114.528 26.81 112.837 26.81C110.188 26.81 108.273 24.7992 108.273 22.214Z" fill="#14582A"/>
<path d="M126.114 22.214C126.114 19.6287 128.125 17.6179 130.678 17.6179C133.232 17.6179 135.274 19.6287 135.274 22.214C135.274 24.7992 133.232 26.81 130.678 26.81C128.125 26.81 126.114 24.7992 126.114 22.214ZM133.008 22.214C133.008 20.8096 131.987 19.8202 130.646 19.8202C129.338 19.8202 128.317 20.8096 128.317 22.214C128.317 23.6183 129.338 24.6077 130.646 24.6077C131.987 24.6077 133.008 23.6183 133.008 22.214Z" fill="#14582A"/>
<path d="M83.8565 26.5547H86.4418L83.1224 22.1821L86.346 17.8733H83.665L81.1755 21.4161H80.4095V17.8733H78.1753V26.5547H80.4095V23.1396H81.367L83.8565 26.5547Z" fill="#14582A"/>
<path d="M142.233 26.5547H144.818L141.531 22.1821L144.722 17.8733H142.073L139.552 21.4161H138.818V17.8733H136.583V26.5547H138.818V23.1396H139.743L142.233 26.5547Z" fill="#14582A"/>
<path d="M45.3648 26.5549H42.971V16.8521H38.6941V26.5549H36.3323V14.6179H45.3648V26.5549Z" fill="#14582A"/>
<defs>
<linearGradient id="paint0_linear" x1="81.7726" y1="91.0202" x2="81.7726" y2="44.6406" gradientUnits="userSpaceOnUse">
<stop stop-color="#A90000"/>
<stop offset="0.468349" stop-color="#D20000"/>
<stop offset="1" stop-color="#FA0000"/>
</linearGradient>
</defs>
</svg>
