<svg width="161" height="134" viewBox="0 0 161 134" fill="none" xmlns="http://www.w3.org/2000/svg">
<rect y="93.8682" width="161" height="40.1004" rx="20.0502" fill="white"/>
<path d="M25.9584 111.435L24.1186 113.274L22.2789 111.435C21.2638 110.42 21.2638 108.77 22.2789 107.723C23.2939 106.708 24.9433 106.708 25.9584 107.723C26.9734 108.738 26.9734 110.42 25.9584 111.435Z" fill="#14582A"/>
<path d="M22.2789 116.637L24.1186 114.797L25.9584 116.637C26.9734 117.652 26.9734 119.301 25.9584 120.348C24.9433 121.363 23.2939 121.363 22.2789 120.348C21.2638 119.301 21.2638 117.652 22.2789 116.637Z" fill="#14582A"/>
<path d="M26.6874 115.875L24.8477 114.036L26.6874 112.196C27.7025 111.181 29.3519 111.181 30.3669 112.196C31.382 113.211 31.382 114.86 30.3669 115.907C29.3519 116.89 27.7025 116.89 26.6874 115.875Z" fill="#14582A"/>
<path d="M21.517 112.164L23.3567 114.004L21.517 115.876C20.5019 116.891 18.8525 116.891 17.8375 115.876C16.8224 114.861 16.8224 113.211 17.8375 112.164C18.8525 111.149 20.5019 111.149 21.517 112.164Z" fill="#14582A"/>
<path d="M124.607 111.308H116.994V113.465H119.69V119.935H121.911V113.465H124.607V111.308Z" fill="#14582A"/>
<path d="M51.2692 118.159C52.1257 118.159 52.8235 117.81 53.2042 117.303L54.9805 118.35C54.1875 119.523 52.887 120.189 51.2375 120.189C48.351 120.189 46.543 118.191 46.543 115.622C46.543 113.052 48.3827 111.054 51.0789 111.054C53.6165 111.054 55.4246 113.084 55.4246 115.622C55.4246 115.939 55.3928 116.256 55.3294 116.542H48.8585C49.1757 117.683 50.0956 118.159 51.2692 118.159ZM53.2042 114.829C52.9187 113.592 51.9988 113.084 51.0789 113.084C49.9053 113.084 49.0806 113.718 48.8268 114.829H53.2042Z" fill="#14582A"/>
<path d="M66.1461 115.622C66.1461 118.191 64.2429 120.189 61.959 120.189C60.6902 120.189 59.8021 119.714 59.1677 118.921V123.393H56.9473V111.308H59.1677V112.323C59.7703 111.53 60.6902 111.054 61.959 111.054C64.2746 111.086 66.1461 113.052 66.1461 115.622ZM63.9257 115.622C63.9257 114.163 62.9106 113.179 61.5467 113.179C60.1827 113.179 59.1677 114.163 59.1677 115.622C59.1677 117.081 60.1827 118.064 61.5467 118.064C62.9106 118.064 63.9257 117.081 63.9257 115.622Z" fill="#14582A"/>
<path d="M72.0153 118.159C72.8718 118.159 73.5696 117.81 73.9503 117.303L75.7266 118.35C74.9336 119.523 73.6331 120.189 71.9836 120.189C69.0971 120.189 67.2891 118.191 67.2891 115.622C67.2891 113.052 69.1288 111.054 71.825 111.054C74.3626 111.054 76.1707 113.084 76.1707 115.622C76.1707 115.939 76.1389 116.256 76.0755 116.542H69.6046C69.8901 117.683 70.8417 118.159 72.0153 118.159ZM73.9503 114.829C73.6648 113.592 72.7449 113.084 71.825 113.084C70.6514 113.084 69.8267 113.718 69.5729 114.829H73.9503Z" fill="#14582A"/>
<path d="M96.566 115.622C96.566 118.191 94.6628 120.189 92.3789 120.189C91.1101 120.189 90.222 119.714 89.5876 118.921V123.393H87.3672V111.308H89.5876V112.323C90.1903 111.53 91.1101 111.054 92.3789 111.054C94.6628 111.086 96.566 113.052 96.566 115.622ZM94.3456 115.622C94.3456 114.163 93.3305 113.179 91.9666 113.179C90.6026 113.179 89.5876 114.163 89.5876 115.622C89.5876 117.081 90.6026 118.064 91.9666 118.064C93.3305 118.064 94.3456 117.081 94.3456 115.622Z" fill="#14582A"/>
<path d="M102.402 118.159C103.258 118.159 103.956 117.81 104.337 117.303L106.113 118.35C105.32 119.523 104.02 120.189 102.37 120.189C99.4838 120.189 97.6758 118.191 97.6758 115.622C97.6758 113.052 99.5155 111.054 102.212 111.054C104.749 111.054 106.557 113.084 106.557 115.622C106.557 115.939 106.526 116.256 106.462 116.541H99.9913C100.309 117.683 101.26 118.159 102.402 118.159ZM99.2935 109.246C99.2935 108.612 99.8327 108.072 100.467 108.072C101.102 108.072 101.609 108.612 101.609 109.246C101.609 109.88 101.102 110.388 100.467 110.388C99.8327 110.388 99.2935 109.88 99.2935 109.246ZM104.337 114.829C104.051 113.592 103.132 113.084 102.212 113.084C101.038 113.084 100.213 113.718 99.9596 114.829H104.337ZM102.561 109.246C102.561 108.612 103.1 108.072 103.734 108.072C104.369 108.072 104.876 108.612 104.876 109.246C104.876 109.88 104.369 110.388 103.734 110.388C103.1 110.388 102.561 109.88 102.561 109.246Z" fill="#14582A"/>
<path d="M107.605 115.622C107.605 113.052 109.54 111.054 112.141 111.054C113.823 111.054 115.282 111.942 115.98 113.274L114.076 114.385C113.727 113.687 112.998 113.243 112.11 113.243C110.777 113.243 109.794 114.226 109.794 115.622C109.794 116.986 110.777 117.969 112.11 117.969C112.998 117.969 113.727 117.525 114.076 116.827L116.011 117.937C115.282 119.269 113.823 120.189 112.141 120.189C109.509 120.189 107.605 118.191 107.605 115.622Z" fill="#14582A"/>
<path d="M125.336 115.622C125.336 113.052 127.334 111.054 129.872 111.054C132.409 111.054 134.44 113.052 134.44 115.622C134.44 118.191 132.409 120.189 129.872 120.189C127.334 120.189 125.336 118.191 125.336 115.622ZM132.187 115.622C132.187 114.226 131.172 113.243 129.84 113.243C128.54 113.243 127.525 114.226 127.525 115.622C127.525 117.017 128.54 118.001 129.84 118.001C131.172 118.001 132.187 117.017 132.187 115.622Z" fill="#14582A"/>
<path d="M83.3395 119.935H85.9088L82.61 115.59L85.8137 111.308H83.1492L80.675 114.829H79.9138V111.308H77.6934V119.935H79.9138V116.541H80.8654L83.3395 119.935Z" fill="#14582A"/>
<path d="M141.355 119.935H143.924L140.657 115.59L143.829 111.308H141.196L138.69 114.829H137.961V111.308H135.74V119.935H137.961V116.541H138.881L141.355 119.935Z" fill="#14582A"/>
<path d="M45.0842 119.936H42.7052V110.293H38.4547V119.936H36.1074V108.072H45.0842V119.936Z" fill="#14582A"/>
<path d="M161 43.6225C161 50.5616 93.1797 64 80.4707 64C67.7617 64 0 50.806 0 42.8895C0 34.9731 0.112034 0 0.112034 0H160.87C160.87 0 161 36.7323 161 43.6225Z" fill="url(#paint0_linear)"/>
<path d="M29.8714 31.96C29.8554 31.992 29.8394 32.04 29.8394 32.072C29.8394 32.152 29.9034 32.232 29.9674 32.296C30.1754 32.52 30.9434 33.24 32.5274 33.24C33.6314 33.24 34.5594 32.904 35.2954 31.944C36.2074 30.76 36.3834 29.048 36.3834 27.544C36.3834 24.36 35.4554 21.768 32.7194 21.768C31.6474 21.768 30.8794 22.104 30.1594 22.728C29.9994 22.856 29.9514 22.952 29.9514 23.032C29.9514 23.08 29.9834 23.144 30.0154 23.192L30.5274 23.912C30.5754 23.992 30.6234 24.04 30.6874 24.04C30.7194 24.04 30.7514 24.024 30.7994 23.992L30.9914 23.848C31.3914 23.528 31.8554 23.176 32.5434 23.176C34.1754 23.176 34.5274 25.112 34.5274 26.424V26.584H31.6474C31.4874 26.584 31.3754 26.632 31.3754 26.856V27.768C31.3754 27.976 31.4554 28.024 31.6314 28.024H34.5274V28.232C34.5274 29.048 34.4314 31.832 32.3994 31.832C31.8074 31.832 31.4074 31.624 30.8794 31.24L30.7034 31.112C30.6554 31.064 30.5914 31.048 30.5434 31.048C30.4794 31.048 30.4314 31.08 30.3674 31.176L29.8714 31.96ZM40.1955 33C40.3715 33 40.4515 32.92 40.4515 32.744V28.008H41.2515C42.0035 28.008 42.4035 28.248 42.6595 29.4L43.0275 31.112C43.3635 32.68 44.0195 33.24 45.4435 33.24C45.6515 33.24 45.6995 33.208 45.7475 33.048L46.0835 32.04C46.0995 32.008 46.0995 31.976 46.0995 31.944C46.0995 31.784 45.9075 31.768 45.8595 31.752L45.5555 31.704C45.2035 31.64 44.8995 31.736 44.6275 30.568L44.2435 28.952C44.0515 28.232 43.5235 27.496 42.8675 27.272C43.6675 26.936 43.9395 26.216 44.0835 25.544L44.3075 24.536C44.4355 23.928 44.5635 23.384 45.1875 23.272L45.5075 23.208C45.6355 23.176 45.7155 23.112 45.7155 23C45.7155 22.968 45.7155 22.936 45.6995 22.904L45.4275 21.976C45.3795 21.816 45.2515 21.784 45.1395 21.784C44.7875 21.784 44.0195 21.976 43.5555 22.44C43.1235 22.872 42.9955 23.448 42.8675 24.024L42.5955 25.288C42.4515 26.008 42.0515 26.568 41.2675 26.568H40.4515V22.232C40.4515 22.104 40.3715 22.024 40.2595 22.024H38.8675C38.7875 22.024 38.7075 22.088 38.7075 22.2V32.744C38.7075 32.952 38.7875 33 38.9635 33H40.1955ZM53.5289 31.88L53.0489 31.112C53.0009 31.032 52.9369 31.016 52.8889 31.016C52.8089 31.016 52.7449 31.064 52.6649 31.128C52.1209 31.544 51.6409 31.752 51.1289 31.752C49.6729 31.752 48.9689 30.248 48.9689 27.144C48.9689 24.456 49.5929 23.24 50.9369 23.24C51.6249 23.24 52.1049 23.608 52.6169 24.008C52.6649 24.056 52.7449 24.088 52.8089 24.088C52.8569 24.088 52.9209 24.072 52.9529 24.008L53.4649 23.192C53.5129 23.112 53.5449 23.048 53.5449 22.984C53.5449 22.904 53.4969 22.824 53.3849 22.728C52.6969 22.136 51.7689 21.768 50.8729 21.768C47.8169 21.768 47.0969 24.92 47.0969 27.384C47.0969 31.192 48.4409 33.24 50.9689 33.24C51.8489 33.24 52.5529 33.048 53.4329 32.344C53.5609 32.232 53.6089 32.168 53.6089 32.088C53.6089 32.024 53.5769 31.96 53.5289 31.88ZM56.8361 33C57.0121 33 57.0921 32.92 57.0921 32.744V28.008H57.8921C58.6441 28.008 59.0441 28.248 59.3001 29.4L59.6681 31.112C60.0041 32.68 60.6601 33.24 62.0841 33.24C62.2921 33.24 62.3401 33.208 62.3881 33.048L62.7241 32.04C62.7401 32.008 62.7401 31.976 62.7401 31.944C62.7401 31.784 62.5481 31.768 62.5001 31.752L62.1961 31.704C61.8441 31.64 61.5401 31.736 61.2681 30.568L60.8841 28.952C60.6921 28.232 60.1641 27.496 59.5081 27.272C60.3081 26.936 60.5801 26.216 60.7241 25.544L60.9481 24.536C61.0761 23.928 61.2041 23.384 61.8281 23.272L62.1481 23.208C62.2761 23.176 62.3561 23.112 62.3561 23C62.3561 22.968 62.3561 22.936 62.3401 22.904L62.0681 21.976C62.0201 21.816 61.8921 21.784 61.7801 21.784C61.4281 21.784 60.6601 21.976 60.1961 22.44C59.7641 22.872 59.6361 23.448 59.5081 24.024L59.2361 25.288C59.0921 26.008 58.6921 26.568 57.9081 26.568H57.0921V22.232C57.0921 22.104 57.0121 22.024 56.9001 22.024H55.5081C55.4281 22.024 55.3481 22.088 55.3481 22.2V32.744C55.3481 32.952 55.4281 33 55.6041 33H56.8361ZM71.285 22.28C71.285 22.072 71.205 22.024 71.029 22.024H65.749C65.589 22.024 65.509 22.072 65.509 22.264V23.928C65.509 26.44 65.589 30.248 64.581 31.224C64.229 31.56 63.781 31.672 63.493 31.704L63.253 31.736C63.125 31.752 63.029 31.832 63.029 31.976C63.029 32.008 63.045 32.04 63.045 32.072L63.285 33.016C63.317 33.16 63.365 33.24 63.605 33.24C66.069 33.24 66.661 30.472 66.837 28.952C66.981 27.608 67.029 26.168 67.045 25.016L67.061 23.464H69.525V32.744C69.525 32.952 69.605 33 69.781 33H71.029C71.205 33 71.285 32.92 71.285 32.744V22.28ZM76.0456 26.6V22.28C76.0456 22.04 75.9336 22.024 75.7736 22.024H74.5736C74.3976 22.024 74.2856 22.04 74.2856 22.28V32.76C74.2856 32.968 74.3976 33 74.5576 33H75.8216C76.0296 33 76.0456 32.856 76.0456 32.728V28.04H77.6456C77.6936 30.264 78.5256 33.24 81.4536 33.24C84.8936 33.24 85.1976 29.064 85.1976 27.528C85.1976 26.168 84.9896 21.768 81.4536 21.768C78.2856 21.768 77.7416 25.192 77.6616 26.6H76.0456ZM81.3896 31.832C80.9096 31.832 80.5416 31.688 80.2376 31.368C79.8056 30.92 79.4376 29.944 79.4376 27.496C79.4376 25.016 79.8696 24.04 80.3016 23.608C80.4776 23.432 80.8296 23.176 81.3896 23.176C81.8376 23.176 82.1896 23.336 82.4616 23.608C82.8936 24.04 83.3256 25 83.3256 27.512C83.3256 30.36 82.7656 31.144 82.4616 31.432C82.0936 31.784 81.6456 31.832 81.3896 31.832ZM88.384 27.8C88.384 28.008 88.464 28.056 88.64 28.056H89.248C90.144 28.056 91.216 28.488 91.216 29.864C91.216 30.552 91.04 31.8 89.28 31.8C88.48 31.8 87.888 31.432 87.424 31.112L87.264 31C87.184 30.936 87.104 30.92 87.056 30.92C86.992 30.92 86.96 30.936 86.928 30.984L86.432 31.848C86.4 31.896 86.4 31.928 86.4 31.976C86.4 32.28 87.056 32.68 87.488 32.872C88.144 33.176 88.816 33.24 89.52 33.24C90.352 33.24 91.36 33.128 92.176 32.28C92.896 31.528 93.024 30.616 93.024 29.912C93.024 28.984 92.688 27.72 91.088 27.192C92.384 26.76 92.704 25.624 92.704 24.728C92.704 23.736 92.304 21.768 89.6 21.768C88.368 21.768 87.408 22.216 86.8 22.856C86.704 22.952 86.656 23.032 86.656 23.112C86.656 23.176 86.688 23.224 86.736 23.304L87.184 23.944C87.232 24.008 87.296 24.04 87.376 24.04C87.44 24.04 87.504 24.024 87.552 23.976L87.728 23.832C88.224 23.432 88.688 23.208 89.312 23.208C90.416 23.208 90.976 24.056 90.976 24.92C90.976 25.32 90.896 25.8 90.512 26.184C90.064 26.616 89.472 26.648 89.088 26.648H88.64C88.464 26.648 88.384 26.728 88.384 26.904V27.8ZM102.768 22.28C102.768 22.104 102.72 22.024 102.512 22.024H101.088C101.04 22.024 100.912 22.04 100.832 22.2L97.9364 28.312C97.7284 28.744 97.3284 29.832 97.2004 30.152H97.1524C97.2324 29.032 97.2644 28.68 97.2644 28.312V22.28C97.2644 22.104 97.2164 22.024 97.0084 22.024H95.7604C95.5524 22.024 95.5044 22.104 95.5044 22.28V32.744C95.5044 32.92 95.5844 33 95.7604 33H97.0404C97.2484 33 97.2804 32.92 97.3444 32.776L100.416 26.376C100.704 25.784 100.896 25.336 101.072 24.696H101.12C101.056 25.192 101.008 25.752 101.008 26.296V32.744C101.008 32.952 101.088 33 101.264 33H102.512C102.688 33 102.768 32.952 102.768 32.744V22.28ZM112.506 29.928C112.506 28.6 111.866 27.624 110.522 27.256C111.594 26.744 112.106 25.944 112.106 24.744C112.106 23.944 111.802 23.176 111.306 22.696C110.762 22.168 110.186 22.024 108.65 22.024H106.026C105.786 22.024 105.77 22.056 105.77 22.296V32.728C105.77 32.968 105.786 33 106.026 33H108.554C109.61 33 109.85 32.984 110.394 32.856C111.658 32.584 112.506 31.384 112.506 29.928ZM110.314 24.936C110.314 26.136 109.722 26.728 108.49 26.728H107.45V23.352H108.618C109.818 23.352 110.314 23.816 110.314 24.936ZM110.698 29.848C110.698 31.064 110.058 31.592 108.618 31.592H107.45V28.072H108.586C110.042 28.072 110.698 28.648 110.698 29.848ZM121.982 32.728V22.296C121.982 22.056 121.934 22.024 121.694 22.024H120.494C120.254 22.024 120.222 22.056 120.222 22.296V26.616H116.702V22.296C116.702 22.056 116.638 22.024 116.414 22.024H115.198C114.958 22.024 114.942 22.056 114.942 22.296V32.728C114.942 32.968 114.958 33 115.198 33H116.414C116.638 33 116.702 32.968 116.702 32.728V27.976H120.222V32.728C120.222 32.968 120.254 33 120.494 33H121.694C121.934 33 121.982 32.968 121.982 32.728ZM131.837 27.432C131.837 23.672 130.589 21.768 128.109 21.768C125.309 21.768 124.269 24.232 124.269 27.448C124.269 31.32 125.517 33.24 127.997 33.24C130.525 33.24 131.837 31.272 131.837 27.432ZM129.965 27.496C129.965 30.488 129.373 31.832 128.045 31.832C126.653 31.832 126.141 30.232 126.141 27.48C126.141 24.536 126.749 23.176 128.077 23.176C129.405 23.176 129.965 24.744 129.965 27.496Z" fill="white"/>
<defs>
<linearGradient id="paint0_linear" x1="80.7726" y1="64.0301" x2="80.7726" y2="-5.00001" gradientUnits="userSpaceOnUse">
<stop stop-color="#A90000"/>
<stop offset="0.468349" stop-color="#D20000"/>
<stop offset="1" stop-color="#FA0000"/>
</linearGradient>
</defs>
</svg>
