<svg width="212" height="160" viewBox="0 0 212 160" fill="none" xmlns="http://www.w3.org/2000/svg">
<path d="M187 142.304C187 148.33 119.18 160 106.471 160C93.7617 160 26 148.542 26 141.667C26 134.792 26.112 61 26.112 61H186.87C186.87 61 187 136.32 187 142.304Z" fill="url(#paint0_linear)"/>
<path d="M54.8714 90.96C54.8554 90.992 54.8394 91.04 54.8394 91.072C54.8394 91.152 54.9034 91.232 54.9674 91.296C55.1754 91.52 55.9434 92.24 57.5274 92.24C58.6314 92.24 59.5594 91.904 60.2954 90.944C61.2074 89.76 61.3834 88.048 61.3834 86.544C61.3834 83.36 60.4554 80.768 57.7194 80.768C56.6474 80.768 55.8794 81.104 55.1594 81.728C54.9994 81.856 54.9514 81.952 54.9514 82.032C54.9514 82.08 54.9834 82.144 55.0154 82.192L55.5274 82.912C55.5754 82.992 55.6234 83.04 55.6874 83.04C55.7194 83.04 55.7514 83.024 55.7994 82.992L55.9914 82.848C56.3914 82.528 56.8554 82.176 57.5434 82.176C59.1754 82.176 59.5274 84.112 59.5274 85.424V85.584H56.6474C56.4874 85.584 56.3754 85.632 56.3754 85.856V86.768C56.3754 86.976 56.4554 87.024 56.6314 87.024H59.5274V87.232C59.5274 88.048 59.4314 90.832 57.3994 90.832C56.8074 90.832 56.4074 90.624 55.8794 90.24L55.7034 90.112C55.6554 90.064 55.5914 90.048 55.5434 90.048C55.4794 90.048 55.4314 90.08 55.3674 90.176L54.8714 90.96ZM65.1955 92C65.3715 92 65.4515 91.92 65.4515 91.744V87.008H66.2515C67.0035 87.008 67.4035 87.248 67.6595 88.4L68.0275 90.112C68.3635 91.68 69.0195 92.24 70.4435 92.24C70.6515 92.24 70.6995 92.208 70.7475 92.048L71.0835 91.04C71.0995 91.008 71.0995 90.976 71.0995 90.944C71.0995 90.784 70.9075 90.768 70.8595 90.752L70.5555 90.704C70.2035 90.64 69.8995 90.736 69.6275 89.568L69.2435 87.952C69.0515 87.232 68.5235 86.496 67.8675 86.272C68.6675 85.936 68.9395 85.216 69.0835 84.544L69.3075 83.536C69.4355 82.928 69.5635 82.384 70.1875 82.272L70.5075 82.208C70.6355 82.176 70.7155 82.112 70.7155 82C70.7155 81.968 70.7155 81.936 70.6995 81.904L70.4275 80.976C70.3795 80.816 70.2515 80.784 70.1395 80.784C69.7875 80.784 69.0195 80.976 68.5555 81.44C68.1235 81.872 67.9955 82.448 67.8675 83.024L67.5955 84.288C67.4515 85.008 67.0515 85.568 66.2675 85.568H65.4515V81.232C65.4515 81.104 65.3715 81.024 65.2595 81.024H63.8675C63.7875 81.024 63.7075 81.088 63.7075 81.2V91.744C63.7075 91.952 63.7875 92 63.9635 92H65.1955ZM78.5289 90.88L78.0489 90.112C78.0009 90.032 77.9369 90.016 77.8889 90.016C77.8089 90.016 77.7449 90.064 77.6649 90.128C77.1209 90.544 76.6409 90.752 76.1289 90.752C74.6729 90.752 73.9689 89.248 73.9689 86.144C73.9689 83.456 74.5929 82.24 75.9369 82.24C76.6249 82.24 77.1049 82.608 77.6169 83.008C77.6649 83.056 77.7449 83.088 77.8089 83.088C77.8569 83.088 77.9209 83.072 77.9529 83.008L78.4649 82.192C78.5129 82.112 78.5449 82.048 78.5449 81.984C78.5449 81.904 78.4969 81.824 78.3849 81.728C77.6969 81.136 76.7689 80.768 75.8729 80.768C72.8169 80.768 72.0969 83.92 72.0969 86.384C72.0969 90.192 73.4409 92.24 75.9689 92.24C76.8489 92.24 77.5529 92.048 78.4329 91.344C78.5609 91.232 78.6089 91.168 78.6089 91.088C78.6089 91.024 78.5769 90.96 78.5289 90.88ZM81.8361 92C82.0121 92 82.0921 91.92 82.0921 91.744V87.008H82.8921C83.6441 87.008 84.0441 87.248 84.3001 88.4L84.6681 90.112C85.0041 91.68 85.6601 92.24 87.0841 92.24C87.2921 92.24 87.3401 92.208 87.3881 92.048L87.7241 91.04C87.7401 91.008 87.7401 90.976 87.7401 90.944C87.7401 90.784 87.5481 90.768 87.5001 90.752L87.1961 90.704C86.8441 90.64 86.5401 90.736 86.2681 89.568L85.8841 87.952C85.6921 87.232 85.1641 86.496 84.5081 86.272C85.3081 85.936 85.5801 85.216 85.7241 84.544L85.9481 83.536C86.0761 82.928 86.2041 82.384 86.8281 82.272L87.1481 82.208C87.2761 82.176 87.3561 82.112 87.3561 82C87.3561 81.968 87.3561 81.936 87.3401 81.904L87.0681 80.976C87.0201 80.816 86.8921 80.784 86.7801 80.784C86.4281 80.784 85.6601 80.976 85.1961 81.44C84.7641 81.872 84.6361 82.448 84.5081 83.024L84.2361 84.288C84.0921 85.008 83.6921 85.568 82.9081 85.568H82.0921V81.232C82.0921 81.104 82.0121 81.024 81.9001 81.024H80.5081C80.4281 81.024 80.3481 81.088 80.3481 81.2V91.744C80.3481 91.952 80.4281 92 80.6041 92H81.8361ZM96.285 81.28C96.285 81.072 96.205 81.024 96.029 81.024H90.749C90.589 81.024 90.509 81.072 90.509 81.264V82.928C90.509 85.44 90.589 89.248 89.581 90.224C89.229 90.56 88.781 90.672 88.493 90.704L88.253 90.736C88.125 90.752 88.029 90.832 88.029 90.976C88.029 91.008 88.045 91.04 88.045 91.072L88.285 92.016C88.317 92.16 88.365 92.24 88.605 92.24C91.069 92.24 91.661 89.472 91.837 87.952C91.981 86.608 92.029 85.168 92.045 84.016L92.061 82.464H94.525V91.744C94.525 91.952 94.605 92 94.781 92H96.029C96.205 92 96.285 91.92 96.285 91.744V81.28ZM101.046 85.6V81.28C101.046 81.04 100.934 81.024 100.774 81.024H99.5736C99.3976 81.024 99.2856 81.04 99.2856 81.28V91.76C99.2856 91.968 99.3976 92 99.5576 92H100.822C101.03 92 101.046 91.856 101.046 91.728V87.04H102.646C102.694 89.264 103.526 92.24 106.454 92.24C109.894 92.24 110.198 88.064 110.198 86.528C110.198 85.168 109.99 80.768 106.454 80.768C103.286 80.768 102.742 84.192 102.662 85.6H101.046ZM106.39 90.832C105.91 90.832 105.542 90.688 105.238 90.368C104.806 89.92 104.438 88.944 104.438 86.496C104.438 84.016 104.87 83.04 105.302 82.608C105.478 82.432 105.83 82.176 106.39 82.176C106.838 82.176 107.19 82.336 107.462 82.608C107.894 83.04 108.326 84 108.326 86.512C108.326 89.36 107.766 90.144 107.462 90.432C107.094 90.784 106.646 90.832 106.39 90.832ZM113.384 86.8C113.384 87.008 113.464 87.056 113.64 87.056H114.248C115.144 87.056 116.216 87.488 116.216 88.864C116.216 89.552 116.04 90.8 114.28 90.8C113.48 90.8 112.888 90.432 112.424 90.112L112.264 90C112.184 89.936 112.104 89.92 112.056 89.92C111.992 89.92 111.96 89.936 111.928 89.984L111.432 90.848C111.4 90.896 111.4 90.928 111.4 90.976C111.4 91.28 112.056 91.68 112.488 91.872C113.144 92.176 113.816 92.24 114.52 92.24C115.352 92.24 116.36 92.128 117.176 91.28C117.896 90.528 118.024 89.616 118.024 88.912C118.024 87.984 117.688 86.72 116.088 86.192C117.384 85.76 117.704 84.624 117.704 83.728C117.704 82.736 117.304 80.768 114.6 80.768C113.368 80.768 112.408 81.216 111.8 81.856C111.704 81.952 111.656 82.032 111.656 82.112C111.656 82.176 111.688 82.224 111.736 82.304L112.184 82.944C112.232 83.008 112.296 83.04 112.376 83.04C112.44 83.04 112.504 83.024 112.552 82.976L112.728 82.832C113.224 82.432 113.688 82.208 114.312 82.208C115.416 82.208 115.976 83.056 115.976 83.92C115.976 84.32 115.896 84.8 115.512 85.184C115.064 85.616 114.472 85.648 114.088 85.648H113.64C113.464 85.648 113.384 85.728 113.384 85.904V86.8ZM127.768 81.28C127.768 81.104 127.72 81.024 127.512 81.024H126.088C126.04 81.024 125.912 81.04 125.832 81.2L122.936 87.312C122.728 87.744 122.328 88.832 122.2 89.152H122.152C122.232 88.032 122.264 87.68 122.264 87.312V81.28C122.264 81.104 122.216 81.024 122.008 81.024H120.76C120.552 81.024 120.504 81.104 120.504 81.28V91.744C120.504 91.92 120.584 92 120.76 92H122.04C122.248 92 122.28 91.92 122.344 91.776L125.416 85.376C125.704 84.784 125.896 84.336 126.072 83.696H126.12C126.056 84.192 126.008 84.752 126.008 85.296V91.744C126.008 91.952 126.088 92 126.264 92H127.512C127.688 92 127.768 91.952 127.768 91.744V81.28ZM137.506 88.928C137.506 87.6 136.866 86.624 135.522 86.256C136.594 85.744 137.106 84.944 137.106 83.744C137.106 82.944 136.802 82.176 136.306 81.696C135.762 81.168 135.186 81.024 133.65 81.024H131.026C130.786 81.024 130.77 81.056 130.77 81.296V91.728C130.77 91.968 130.786 92 131.026 92H133.554C134.61 92 134.85 91.984 135.394 91.856C136.658 91.584 137.506 90.384 137.506 88.928ZM135.314 83.936C135.314 85.136 134.722 85.728 133.49 85.728H132.45V82.352H133.618C134.818 82.352 135.314 82.816 135.314 83.936ZM135.698 88.848C135.698 90.064 135.058 90.592 133.618 90.592H132.45V87.072H133.586C135.042 87.072 135.698 87.648 135.698 88.848ZM146.982 91.728V81.296C146.982 81.056 146.934 81.024 146.694 81.024H145.494C145.254 81.024 145.222 81.056 145.222 81.296V85.616H141.702V81.296C141.702 81.056 141.638 81.024 141.414 81.024H140.198C139.958 81.024 139.942 81.056 139.942 81.296V91.728C139.942 91.968 139.958 92 140.198 92H141.414C141.638 92 141.702 91.968 141.702 91.728V86.976H145.222V91.728C145.222 91.968 145.254 92 145.494 92H146.694C146.934 92 146.982 91.968 146.982 91.728ZM156.837 86.432C156.837 82.672 155.589 80.768 153.109 80.768C150.309 80.768 149.269 83.232 149.269 86.448C149.269 90.32 150.517 92.24 152.997 92.24C155.525 92.24 156.837 90.272 156.837 86.432ZM154.965 86.496C154.965 89.488 154.373 90.832 153.045 90.832C151.653 90.832 151.141 89.232 151.141 86.48C151.141 83.536 151.749 82.176 153.077 82.176C154.405 82.176 154.965 83.744 154.965 86.496ZM80.4334 110.976L79.6974 109.52C79.6494 109.424 79.6014 109.376 79.5534 109.376C79.5054 109.376 79.4574 109.408 79.3934 109.456C78.9774 109.76 78.4654 110.08 77.8094 110.08C76.6574 110.08 75.9374 108.992 75.9374 106.064C75.9374 103.84 76.6094 102.944 77.5854 102.944C78.3214 102.944 78.8814 103.44 79.3774 103.744C79.4254 103.776 79.4574 103.792 79.5054 103.792C79.5854 103.792 79.6334 103.744 79.6814 103.648L80.4174 102.144C80.4494 102.096 80.4494 102.048 80.4494 102C80.4494 101.888 80.3694 101.824 80.2414 101.712C79.5214 101.104 78.4334 100.752 77.4894 100.752C74.8494 100.752 73.2174 102.848 73.2174 106.384C73.2174 110.112 74.6894 112.272 77.5854 112.272C78.5934 112.272 80.4814 111.712 80.4814 111.136C80.4814 111.088 80.4654 111.04 80.4334 110.976ZM93.4139 106.352C93.4139 102.736 92.0699 100.752 89.2379 100.752C85.8139 100.752 85.0299 103.792 85.0299 106.352C85.0299 110.224 86.3259 112.272 89.1739 112.272C92.0539 112.272 93.4139 110.176 93.4139 106.352ZM90.6939 106.496C90.6939 109.184 90.1339 110.256 89.2379 110.256C88.3419 110.256 87.7499 109.216 87.7499 106.56C87.7499 103.904 88.3579 102.768 89.2379 102.768C90.1499 102.768 90.6939 103.792 90.6939 106.496ZM98.2334 103.264H99.6894V111.68C99.6894 111.904 99.7534 112 100.025 112H102.025C102.281 112 102.345 111.888 102.345 111.68V101.312C102.345 101.104 102.233 101.024 102.089 101.024H96.1374C95.9294 101.024 95.8174 101.136 95.8174 101.344V103.632C95.8174 104.336 95.8174 105.024 95.8014 106.08C95.7694 107.36 95.8174 108.768 95.1294 109.488C94.7454 109.888 94.2654 109.968 93.9614 110.032L93.7374 110.08C93.6574 110.096 93.5294 110.128 93.5294 110.32C93.5294 110.368 93.5454 110.432 93.5614 110.496L94.0254 112.048C94.0734 112.224 94.2014 112.24 94.3614 112.24C95.1134 112.24 96.1374 111.952 96.8254 111.264C97.8334 110.256 98.0254 108.816 98.1054 107.584C98.1534 106.848 98.2334 105.2 98.2334 104.464V103.264ZM107.087 107.216H107.887C108.703 107.216 109.375 107.648 109.375 108.592C109.375 109.952 108.351 109.952 107.775 109.952H107.087V107.216ZM104.751 101.024C104.495 101.024 104.431 101.136 104.431 101.344V111.68C104.431 111.888 104.543 112 104.751 112H108.015C108.927 112 110.143 111.888 111.007 111.056C111.759 110.336 111.903 109.376 111.903 108.656C111.903 107.296 111.391 106.544 111.023 106.192C110.223 105.392 109.103 105.296 108.239 105.296H107.087V101.232C107.087 101.024 106.975 101.024 106.815 101.024H104.751ZM119.383 101.024H113.735C113.431 101.024 113.415 101.056 113.415 101.36V111.68C113.415 111.952 113.431 112 113.735 112H115.735C116.007 112 116.071 111.952 116.071 111.68V103.312H119.111C119.351 103.312 119.415 103.28 119.463 103.04L119.751 101.392C119.767 101.328 119.767 101.28 119.767 101.232C119.767 101.056 119.671 101.024 119.383 101.024ZM128.539 106.352C128.539 102.736 127.195 100.752 124.363 100.752C120.939 100.752 120.155 103.792 120.155 106.352C120.155 110.224 121.451 112.272 124.299 112.272C127.179 112.272 128.539 110.176 128.539 106.352ZM125.819 106.496C125.819 109.184 125.259 110.256 124.363 110.256C123.467 110.256 122.875 109.216 122.875 106.56C122.875 103.904 123.483 102.768 124.363 102.768C125.275 102.768 125.819 103.792 125.819 106.496ZM135.605 97.344H135.573C135.493 97.344 135.397 97.392 135.381 97.472L135.333 97.696C135.301 97.904 135.109 98.512 134.277 98.512C133.509 98.512 133.301 98.016 133.237 97.728L133.173 97.472C133.141 97.36 133.093 97.344 133.029 97.344L131.477 97.52C131.333 97.536 131.285 97.632 131.285 97.776C131.285 99.616 133.365 100.096 134.293 100.096C135.349 100.096 137.253 99.568 137.253 97.808C137.253 97.664 137.221 97.536 137.077 97.52L135.605 97.344ZM130.181 111.728C130.181 111.856 130.197 112 130.389 112H132.469C132.693 112 132.773 111.936 132.885 111.696L135.029 106.864C135.285 106.304 135.557 105.664 135.845 104.784H135.893C135.781 105.68 135.701 106.736 135.701 107.488V111.744C135.701 111.888 135.717 112 135.909 112H138.149C138.341 112 138.357 111.84 138.357 111.712V101.344C138.357 101.056 138.213 101.024 138.021 101.024H135.909C135.813 101.024 135.701 101.024 135.605 101.232L133.589 105.744C133.205 106.592 132.949 107.168 132.677 107.936H132.613C132.693 107.312 132.837 105.696 132.837 104.88V101.344C132.837 101.168 132.789 101.024 132.565 101.024H130.469C130.293 101.024 130.181 101.136 130.181 101.344V111.728ZM68.0193 130.976L67.2833 129.52C67.2353 129.424 67.1873 129.376 67.1393 129.376C67.0913 129.376 67.0433 129.408 66.9793 129.456C66.5633 129.76 66.0513 130.08 65.3953 130.08C64.2433 130.08 63.5233 128.992 63.5233 126.064C63.5233 123.84 64.1953 122.944 65.1713 122.944C65.9073 122.944 66.4673 123.44 66.9633 123.744C67.0113 123.776 67.0433 123.792 67.0913 123.792C67.1713 123.792 67.2193 123.744 67.2673 123.648L68.0033 122.144C68.0353 122.096 68.0353 122.048 68.0353 122C68.0353 121.888 67.9553 121.824 67.8273 121.712C67.1073 121.104 66.0193 120.752 65.0753 120.752C62.4353 120.752 60.8033 122.848 60.8033 126.384C60.8033 130.112 62.2753 132.272 65.1713 132.272C66.1793 132.272 68.0673 131.712 68.0673 131.136C68.0673 131.088 68.0513 131.04 68.0193 130.976ZM75.7134 121.376C75.7294 121.296 75.7454 121.216 75.7454 121.168C75.7454 121.056 75.6814 121.024 75.4734 121.024H69.6334C69.3294 121.024 69.3134 121.072 69.3134 121.344V131.664C69.3134 131.968 69.3294 132 69.6334 132H75.2974C75.5694 132 75.6334 131.936 75.6334 131.664V130.208C75.6334 129.904 75.5694 129.872 75.2974 129.872H71.9694V127.392H74.5774C74.8494 127.392 74.9134 127.328 74.9134 127.056V125.584C74.9134 125.28 74.8494 125.248 74.5774 125.248H71.9694V123.152H75.0734C75.2814 123.152 75.3774 123.088 75.4254 122.88L75.7134 121.376ZM84.3081 124.128C84.3081 123.184 83.9561 122.256 83.3801 121.744C82.7561 121.2 81.9241 121.024 80.3881 121.024H77.5241C77.2201 121.024 77.2041 121.04 77.2041 121.344V131.664C77.2041 131.968 77.2201 132 77.5241 132H79.5241C79.7961 132 79.8601 131.968 79.8601 131.664V127.76H80.5001C82.8041 127.76 84.3081 126.32 84.3081 124.128ZM81.8601 124.272C81.8601 125.312 81.4441 125.68 80.2441 125.68H79.8601V122.96H80.3721C81.4281 122.96 81.8601 123.296 81.8601 124.272ZM88.8871 121.024C88.1191 121.024 86.7751 121.088 85.8791 122C85.2071 122.672 85.0791 123.52 85.0791 124.224C85.0791 125.264 85.5111 126.352 86.9671 126.64V126.672C86.9031 126.704 86.5351 126.864 86.2631 127.136C85.9271 127.472 85.7831 127.92 85.7031 128.288L85.5271 129.12C85.4151 129.584 85.2711 129.984 84.5351 130.112L84.3911 130.144C84.2631 130.176 84.1831 130.272 84.1831 130.4C84.1831 130.432 84.1831 130.48 84.1991 130.512L84.6951 132.032C84.7751 132.256 84.9031 132.272 85.0791 132.272C85.6871 132.272 86.5031 132.096 87.0471 131.568C87.5271 131.104 87.6711 130.496 87.7671 129.968L87.9431 128.944C88.0391 128.368 88.1191 127.632 89.2231 127.632H89.6391V131.68C89.6391 131.888 89.7031 132 89.9591 132H91.9751C92.1831 132 92.2951 131.936 92.2951 131.68V121.312C92.2951 121.072 92.1991 121.024 91.9751 121.024H88.8871ZM89.6391 125.664H88.9511C87.9111 125.664 87.6071 124.88 87.6071 124.32C87.6071 124.112 87.6391 123.616 87.9591 123.296C88.2631 122.992 88.6631 122.992 88.9031 122.992H89.6391V125.664ZM97.0319 123.232H100.392C100.552 123.232 100.664 123.136 100.696 123.008L101.08 121.296C101.096 121.248 101.096 121.232 101.096 121.2C101.096 121.04 100.968 121.024 100.856 121.024H94.6639C94.4879 121.024 94.3759 121.136 94.3759 121.344V131.712C94.3759 131.856 94.4079 132 94.6159 132H98.0559C99.3199 132 101.848 131.84 101.848 128.592C101.848 127.984 101.736 126.976 100.984 126.208C100.168 125.376 99.1439 125.296 98.1839 125.296H97.0319V123.232ZM97.0319 127.216H97.6879C98.4079 127.216 99.3199 127.408 99.3199 128.576C99.3199 129.792 98.3439 129.952 97.7519 129.952H97.0319V127.216ZM105.838 132C106.094 132 106.11 131.808 106.11 131.68V127.344H106.734C107.342 127.344 107.806 127.616 107.902 128.368L108.174 130.064C108.254 130.544 108.382 131.136 108.782 131.568C109.358 132.192 110.238 132.272 110.846 132.272C111.134 132.272 111.166 132.16 111.214 132.032L111.71 130.432C111.726 130.4 111.726 130.352 111.726 130.32C111.726 130.208 111.678 130.144 111.55 130.112L111.214 130.048C110.734 129.952 110.542 129.776 110.446 129.2L110.19 127.92C110.078 127.424 109.806 126.56 108.782 126.288V126.24C109.646 125.936 109.95 125.184 110.03 124.672L110.19 123.696C110.254 123.36 110.398 123.04 110.926 122.88L111.294 122.784C111.406 122.752 111.47 122.656 111.47 122.544C111.47 122.512 111.47 122.48 111.454 122.448L111.038 120.96C111.006 120.832 110.894 120.752 110.654 120.752C110.078 120.752 109.134 121.056 108.686 121.52C108.254 121.952 108.142 122.48 108.062 122.96L107.87 124.128C107.726 124.912 107.406 125.296 106.59 125.296H106.11V121.344C106.11 121.216 106.078 121.024 105.854 121.024H103.71C103.486 121.024 103.454 121.216 103.454 121.344V131.68C103.454 131.888 103.518 132 103.774 132H105.838ZM112.845 131.728C112.845 131.856 112.861 132 113.053 132H115.133C115.357 132 115.437 131.936 115.549 131.696L117.693 126.864C117.949 126.304 118.221 125.664 118.509 124.784H118.557C118.445 125.68 118.365 126.736 118.365 127.488V131.744C118.365 131.888 118.381 132 118.573 132H120.813C121.005 132 121.021 131.84 121.021 131.712V121.344C121.021 121.056 120.877 121.024 120.685 121.024H118.573C118.477 121.024 118.365 121.024 118.269 121.232L116.253 125.744C115.869 126.592 115.613 127.168 115.341 127.936H115.277C115.357 127.312 115.501 125.696 115.501 124.88V121.344C115.501 121.168 115.453 121.024 115.229 121.024H113.133C112.957 121.024 112.845 121.136 112.845 121.344V131.728ZM130.919 131.664V121.344C130.919 121.072 130.887 121.024 130.583 121.024H128.599C128.295 121.024 128.263 121.072 128.263 121.344V125.296H125.751V121.344C125.751 121.072 125.687 121.024 125.415 121.024H123.431C123.127 121.024 123.095 121.072 123.095 121.344V131.664C123.095 131.968 123.127 132 123.431 132H125.415C125.687 132 125.751 131.968 125.751 131.664V127.408H128.263V131.664C128.263 131.968 128.295 132 128.599 132H130.583C130.887 132 130.919 131.968 130.919 131.664ZM140.953 126.352C140.953 122.736 139.609 120.752 136.777 120.752C133.353 120.752 132.569 123.792 132.569 126.352C132.569 130.224 133.865 132.272 136.713 132.272C139.593 132.272 140.953 130.176 140.953 126.352ZM138.233 126.496C138.233 129.184 137.673 130.256 136.777 130.256C135.881 130.256 135.289 129.216 135.289 126.56C135.289 123.904 135.897 122.768 136.777 122.768C137.689 122.768 138.233 123.792 138.233 126.496ZM148.019 117.344H147.987C147.907 117.344 147.811 117.392 147.795 117.472L147.747 117.696C147.715 117.904 147.523 118.512 146.691 118.512C145.923 118.512 145.715 118.016 145.651 117.728L145.587 117.472C145.555 117.36 145.507 117.344 145.443 117.344L143.891 117.52C143.747 117.536 143.699 117.632 143.699 117.776C143.699 119.616 145.779 120.096 146.707 120.096C147.763 120.096 149.667 119.568 149.667 117.808C149.667 117.664 149.635 117.536 149.491 117.52L148.019 117.344ZM142.595 131.728C142.595 131.856 142.611 132 142.803 132H144.883C145.107 132 145.187 131.936 145.299 131.696L147.443 126.864C147.699 126.304 147.971 125.664 148.259 124.784H148.307C148.195 125.68 148.115 126.736 148.115 127.488V131.744C148.115 131.888 148.131 132 148.323 132H150.563C150.755 132 150.771 131.84 150.771 131.712V121.344C150.771 121.056 150.627 121.024 150.435 121.024H148.323C148.227 121.024 148.115 121.024 148.019 121.232L146.003 125.744C145.619 126.592 145.363 127.168 145.091 127.936H145.027C145.107 127.312 145.251 125.696 145.251 124.88V121.344C145.251 121.168 145.203 121.024 144.979 121.024H142.883C142.707 121.024 142.595 121.136 142.595 121.344V131.728Z" fill="white"/>
<rect width="212" height="52.803" rx="26.4015" fill="white"/>
<path d="M34.1798 23.131L31.7572 25.5535L29.3347 23.131C27.9981 21.7944 27.9981 19.6225 29.3347 18.2441C30.6713 16.9076 32.8432 16.9076 34.1798 18.2441C35.5164 19.5807 35.5164 21.7944 34.1798 23.131Z" fill="#14582A"/>
<path d="M29.3347 29.9809L31.7572 27.5583L34.1798 29.9809C35.5164 31.3175 35.5164 33.4894 34.1798 34.8677C32.8432 36.2043 30.6713 36.2043 29.3347 34.8677C27.9981 33.4894 27.9981 31.3175 29.3347 29.9809Z" fill="#14582A"/>
<path d="M35.1407 28.9784L32.7181 26.5558L35.1407 24.1333C36.4773 22.7967 38.6492 22.7967 39.9858 24.1333C41.3223 25.4699 41.3223 27.6418 39.9858 29.0201C38.6492 30.3149 36.4773 30.3149 35.1407 28.9784Z" fill="#14582A"/>
<path d="M28.3322 24.0918L30.7548 26.5143L28.3322 28.9786C26.9957 30.3152 24.8237 30.3152 23.4872 28.9786C22.1506 27.6421 22.1506 25.4701 23.4872 24.0918C24.8237 22.7552 26.9957 22.7552 28.3322 24.0918Z" fill="#14582A"/>
<path d="M164.078 22.9639H154.054V25.8041H157.604V34.3247H160.528V25.8041H164.078V22.9639Z" fill="#14582A"/>
<path d="M67.5104 31.9856C68.6381 31.9856 69.557 31.5262 70.0582 30.8579L72.3972 32.2363C71.3531 33.7817 69.6406 34.6588 67.4686 34.6588C63.6678 34.6588 61.287 32.0274 61.287 28.6442C61.287 25.261 63.7095 22.6296 67.2598 22.6296C70.6012 22.6296 72.982 25.3028 72.982 28.6442C72.982 29.0619 72.9402 29.4796 72.8567 29.8555H64.336C64.7537 31.3591 65.965 31.9856 67.5104 31.9856ZM70.0582 27.6C69.6823 25.9711 68.4711 25.3028 67.2598 25.3028C65.7144 25.3028 64.6284 26.1381 64.2943 27.6H70.0582Z" fill="#14582A"/>
<path d="M87.1 28.6442C87.1 32.0274 84.5939 34.6588 81.5866 34.6588C79.9159 34.6588 78.7464 34.0323 77.9111 32.9881V38.8774H74.9873V22.9638H77.9111V24.3004C78.7046 23.2562 79.9159 22.6296 81.5866 22.6296C84.6357 22.6714 87.1 25.261 87.1 28.6442ZM84.1762 28.6442C84.1762 26.7229 82.8397 25.4281 81.0437 25.4281C79.2476 25.4281 77.9111 26.7229 77.9111 28.6442C77.9111 30.5655 79.2476 31.8603 81.0437 31.8603C82.8397 31.8603 84.1762 30.5655 84.1762 28.6442Z" fill="#14582A"/>
<path d="M94.8267 31.9856C95.9544 31.9856 96.8733 31.5262 97.3745 30.8579L99.7135 32.2363C98.6693 33.7817 96.9569 34.6588 94.7849 34.6588C90.984 34.6588 88.6033 32.0274 88.6033 28.6442C88.6033 25.261 91.0258 22.6296 94.5761 22.6296C97.9175 22.6296 100.298 25.3028 100.298 28.6442C100.298 29.0619 100.257 29.4796 100.173 29.8555H91.6523C92.0282 31.3591 93.2813 31.9856 94.8267 31.9856ZM97.3745 27.6C96.9986 25.9711 95.7874 25.3028 94.5761 25.3028C93.0307 25.3028 91.9447 26.1381 91.6106 27.6H97.3745Z" fill="#14582A"/>
<path d="M127.156 28.6442C127.156 32.0274 124.649 34.6588 121.642 34.6588C119.971 34.6588 118.802 34.0323 117.967 32.9881V38.8774H115.043V22.9638H117.967V24.3004C118.76 23.2562 119.971 22.6296 121.642 22.6296C124.649 22.6714 127.156 25.261 127.156 28.6442ZM124.232 28.6442C124.232 26.7229 122.895 25.4281 121.099 25.4281C119.303 25.4281 117.967 26.7229 117.967 28.6442C117.967 30.5655 119.303 31.8603 121.099 31.8603C122.895 31.8603 124.232 30.5655 124.232 28.6442Z" fill="#14582A"/>
<path d="M134.841 31.9858C135.968 31.9858 136.887 31.5264 137.388 30.8581L139.727 32.2364C138.683 33.7818 136.971 34.659 134.799 34.659C130.998 34.659 128.617 32.0276 128.617 28.6444C128.617 25.2612 131.04 22.6298 134.59 22.6298C137.931 22.6298 140.312 25.3029 140.312 28.6444C140.312 29.0621 140.27 29.4797 140.187 29.8556H131.666C132.084 31.3593 133.337 31.9858 134.841 31.9858ZM130.747 20.249C130.747 19.4137 131.457 18.7036 132.293 18.7036C133.128 18.7036 133.796 19.4137 133.796 20.249C133.796 21.0844 133.128 21.7527 132.293 21.7527C131.457 21.7527 130.747 21.0844 130.747 20.249ZM137.388 27.6002C137.013 25.9712 135.801 25.3029 134.59 25.3029C133.045 25.3029 131.959 26.1383 131.624 27.6002H137.388ZM135.049 20.249C135.049 19.4137 135.76 18.7036 136.595 18.7036C137.43 18.7036 138.098 19.4137 138.098 20.249C138.098 21.0844 137.43 21.7527 136.595 21.7527C135.76 21.7527 135.049 21.0844 135.049 20.249Z" fill="#14582A"/>
<path d="M141.69 28.6442C141.69 25.261 144.238 22.6296 147.663 22.6296C149.877 22.6296 151.798 23.7991 152.717 25.5534L150.211 27.0153C149.752 26.0964 148.791 25.5116 147.621 25.5116C145.867 25.5116 144.572 26.8064 144.572 28.6442C144.572 30.4402 145.867 31.735 147.621 31.735C148.791 31.735 149.752 31.1503 150.211 30.2314L152.759 31.6933C151.798 33.4475 149.877 34.6588 147.663 34.6588C144.197 34.6588 141.69 32.0274 141.69 28.6442Z" fill="#14582A"/>
<path d="M165.038 28.6442C165.038 25.261 167.67 22.6296 171.011 22.6296C174.353 22.6296 177.026 25.261 177.026 28.6442C177.026 32.0274 174.353 34.6588 171.011 34.6588C167.67 34.6588 165.038 32.0274 165.038 28.6442ZM174.06 28.6442C174.06 26.8064 172.724 25.5116 170.969 25.5116C169.257 25.5116 167.92 26.8064 167.92 28.6442C167.92 30.482 169.257 31.7768 170.969 31.7768C172.724 31.7768 174.06 30.482 174.06 28.6442Z" fill="#14582A"/>
<path d="M109.738 34.3247H113.121L108.777 28.6025L112.996 22.9639H109.487L106.23 27.6001H105.227V22.9639H102.303V34.3247H105.227V29.8556H106.48L109.738 34.3247Z" fill="#14582A"/>
<path d="M186.132 34.3247H189.515L185.213 28.6025L189.389 22.9639H185.923L182.623 27.6001H181.662V22.9639H178.739V34.3247H181.662V29.8556H182.874L186.132 34.3247Z" fill="#14582A"/>
<path d="M59.3659 34.3248H56.2333V21.6274H50.6364V34.3248H47.5455V18.7036H59.3659V34.3248Z" fill="#14582A"/>
<defs>
<linearGradient id="paint0_linear" x1="106.773" y1="160.046" x2="106.773" y2="53.2656" gradientUnits="userSpaceOnUse">
<stop stop-color="#A90000"/>
<stop offset="0.468349" stop-color="#D20000"/>
<stop offset="1" stop-color="#FA0000"/>
</linearGradient>
</defs>
</svg>
