<svg width="475" height="195" viewBox="0 0 475 195" fill="none" xmlns="http://www.w3.org/2000/svg">
<g filter="url(#filter0_d)">
<path d="M36.5336 43.697V3.70702C36.5336 2.65302 36.4096 2.46702 35.2316 2.46702H6.58763C5.40963 2.46702 5.34763 2.65302 5.34763 3.70702V43.697C5.34763 44.875 5.40963 44.999 6.58763 44.999H16.0736C17.1276 44.999 17.3756 44.875 17.3756 43.697V12.263H24.5056V43.697C24.5056 44.875 24.5676 44.999 25.7456 44.999H35.2316C36.4096 44.999 36.5336 44.875 36.5336 43.697ZM71.15 31.111C71.15 19.703 66.996 13.317 57.2 13.317C47.652 13.317 41.948 20.385 41.948 29.933C41.948 39.977 47.218 46.053 57.51 46.053C60.92 46.053 65.446 45.371 69.662 42.519C70.096 42.271 70.282 42.085 70.282 41.837C70.282 41.713 70.22 41.527 70.096 41.341L67.306 36.133C67.058 35.699 66.81 35.451 66.5 35.451C66.314 35.451 66.128 35.513 65.818 35.699C63.462 37.001 61.54 37.993 57.82 37.993C54.72 37.993 52.984 36.319 52.612 31.979H70.158C70.778 31.979 71.15 31.917 71.15 31.111ZM60.672 25.345H52.612C53.232 21.439 54.224 20.137 56.828 20.137C59.246 20.137 60.424 21.315 60.672 25.345ZM105.633 29.623C105.633 19.889 101.665 13.317 93.0471 13.317C90.3191 13.317 88.2111 13.999 85.8551 15.983C85.3591 14.619 84.8631 13.317 84.1811 13.317C83.7471 13.317 83.3131 13.379 82.8791 13.503L75.6871 15.673C75.3771 15.735 75.1911 15.859 75.1911 16.107C75.1911 17.161 76.4311 19.889 76.4311 23.361V56.965C76.4311 57.771 76.4311 58.019 76.9271 58.019L86.9091 56.841C87.4671 56.779 87.5911 56.655 87.5911 55.849V44.813C88.9551 45.433 90.5051 46.053 92.3651 46.053C101.665 46.053 105.633 40.349 105.633 29.623ZM94.8451 29.809C94.8451 37.435 93.4811 39.109 90.8151 39.109C89.7611 39.109 88.5831 38.923 87.5911 38.489V22.617C89.0171 21.501 90.2571 21.129 91.3111 21.129C93.2951 21.129 94.8451 23.237 94.8451 29.809ZM138.902 31.111C138.902 19.703 134.748 13.317 124.952 13.317C115.404 13.317 109.7 20.385 109.7 29.933C109.7 39.977 114.97 46.053 125.262 46.053C128.672 46.053 133.198 45.371 137.414 42.519C137.848 42.271 138.034 42.085 138.034 41.837C138.034 41.713 137.972 41.527 137.848 41.341L135.058 36.133C134.81 35.699 134.562 35.451 134.252 35.451C134.066 35.451 133.88 35.513 133.57 35.699C131.214 37.001 129.292 37.993 125.572 37.993C122.472 37.993 120.736 36.319 120.364 31.979H137.91C138.53 31.979 138.902 31.917 138.902 31.111ZM128.424 25.345H120.364C120.984 21.439 121.976 20.137 124.58 20.137C126.998 20.137 128.176 21.315 128.424 25.345ZM155.033 33.095H156.893C158.877 33.095 159.683 34.149 160.117 36.133L160.675 38.985C162.225 46.363 168.363 46.053 170.967 46.053C172.517 46.053 172.703 45.805 172.827 45.123L174.067 39.667C174.129 39.481 174.129 39.357 174.129 39.171C174.129 38.675 173.943 38.241 173.199 38.117L172.455 37.993C171.401 37.807 170.409 38.179 169.665 35.141L169.231 33.467C168.673 31.173 167.309 29.561 165.387 29.003V28.817C167.371 28.259 168.301 26.895 168.797 25.345L169.541 23.113C169.975 21.997 170.285 21.067 171.959 20.757L173.075 20.571C173.509 20.509 173.757 20.137 173.757 19.703C173.757 19.579 173.695 19.517 173.695 19.393L172.269 13.565C172.083 12.883 171.401 12.821 170.719 12.821C166.813 12.821 162.473 14.247 161.109 19.393L160.613 21.501C160.179 23.423 159.373 24.911 157.265 24.911H155.033V14.123C155.033 13.565 154.909 13.379 154.599 13.379C154.413 13.379 154.165 13.441 153.793 13.503L144.741 14.433C144.121 14.495 143.873 14.557 143.873 15.239V44.193C143.873 44.999 144.183 44.999 144.803 44.999H154.413C155.033 44.999 155.033 44.999 155.033 44.131V33.095ZM207.291 29.623C207.291 19.889 203.323 13.317 194.705 13.317C191.977 13.317 189.869 13.999 187.513 15.983C187.017 14.619 186.521 13.317 185.839 13.317C185.405 13.317 184.971 13.379 184.537 13.503L177.345 15.673C177.035 15.735 176.849 15.859 176.849 16.107C176.849 17.161 178.089 19.889 178.089 23.361V56.965C178.089 57.771 178.089 58.019 178.585 58.019L188.567 56.841C189.125 56.779 189.249 56.655 189.249 55.849V44.813C190.613 45.433 192.163 46.053 194.023 46.053C203.323 46.053 207.291 40.349 207.291 29.623ZM196.503 29.809C196.503 37.435 195.139 39.109 192.473 39.109C191.419 39.109 190.241 38.923 189.249 38.489V22.617C190.675 21.501 191.915 21.129 192.969 21.129C194.953 21.129 196.503 23.237 196.503 29.809ZM240.56 31.111C240.56 19.703 236.406 13.317 226.61 13.317C217.062 13.317 211.358 20.385 211.358 29.933C211.358 39.977 216.628 46.053 226.92 46.053C230.33 46.053 234.856 45.371 239.072 42.519C239.506 42.271 239.692 42.085 239.692 41.837C239.692 41.713 239.63 41.527 239.506 41.341L236.716 36.133C236.468 35.699 236.22 35.451 235.91 35.451C235.724 35.451 235.538 35.513 235.228 35.699C232.872 37.001 230.95 37.993 227.23 37.993C224.13 37.993 222.394 36.319 222.022 31.979H239.568C240.188 31.979 240.56 31.917 240.56 31.111ZM230.082 25.345H222.022C222.642 21.439 223.634 20.137 226.238 20.137C228.656 20.137 229.834 21.315 230.082 25.345ZM225.184 5.81502C225.184 3.14902 223.014 0.917022 220.286 0.917022C217.62 0.917022 215.326 3.14902 215.326 5.81502C215.326 8.54302 217.62 10.837 220.286 10.837C223.014 10.837 225.184 8.54302 225.184 5.81502ZM237.336 5.81502C237.336 3.14902 235.104 0.917022 232.376 0.917022C229.648 0.917022 227.478 3.14902 227.478 5.81502C227.478 8.54302 229.648 10.837 232.376 10.837C235.104 10.837 237.336 8.54302 237.336 5.81502ZM270.455 18.215C270.579 17.843 270.703 17.595 270.703 17.347C270.703 17.037 270.517 16.789 270.083 16.479C267.293 14.433 263.883 13.317 260.349 13.317C250.119 13.317 244.477 20.075 244.477 30.181C244.477 39.791 249.499 46.053 259.357 46.053C262.023 46.053 270.269 44.317 270.269 41.589C270.269 41.341 270.145 41.093 270.021 40.845L267.665 36.257C267.417 35.761 267.169 35.513 266.859 35.513C266.611 35.513 266.301 35.637 265.867 35.885C264.255 36.815 262.581 37.745 260.535 37.745C257.993 37.745 255.513 35.885 255.513 29.871C255.513 23.609 258.055 21.625 260.473 21.625C262.643 21.625 264.627 22.555 266.797 23.919C267.107 24.105 267.355 24.229 267.541 24.229C267.789 24.229 267.913 24.043 268.099 23.671L270.455 18.215ZM290.96 22.555H297.47C298.214 22.555 298.4 21.873 298.4 21.687L299.33 14.991C299.33 14.433 298.958 14.371 298.338 14.371H273.042C272.36 14.371 272.174 14.557 272.174 15.239V21.687C272.174 22.369 272.36 22.555 273.042 22.555H279.8V44.131C279.8 44.937 279.986 44.999 280.668 44.999H290.092C290.898 44.999 290.96 44.813 290.96 44.131V22.555ZM330.924 29.747C330.924 19.951 325.654 13.317 315.858 13.317C306.062 13.317 300.544 19.951 300.544 29.623C300.544 39.543 305.876 46.053 315.796 46.053C325.406 46.053 330.924 39.295 330.924 29.747ZM319.888 29.685C319.888 36.567 318.338 38.489 315.734 38.489C313.13 38.489 311.58 36.629 311.58 29.747C311.58 22.741 313.13 20.881 315.734 20.881C318.338 20.881 319.888 22.803 319.888 29.685ZM347.209 33.095H349.069C351.053 33.095 351.859 34.149 352.293 36.133L352.851 38.985C354.401 46.363 360.539 46.053 363.143 46.053C364.693 46.053 364.879 45.805 365.003 45.123L366.243 39.667C366.305 39.481 366.305 39.357 366.305 39.171C366.305 38.675 366.119 38.241 365.375 38.117L364.631 37.993C363.577 37.807 362.585 38.179 361.841 35.141L361.407 33.467C360.849 31.173 359.485 29.561 357.563 29.003V28.817C359.547 28.259 360.477 26.895 360.973 25.345L361.717 23.113C362.151 21.997 362.461 21.067 364.135 20.757L365.251 20.571C365.685 20.509 365.933 20.137 365.933 19.703C365.933 19.579 365.871 19.517 365.871 19.393L364.445 13.565C364.259 12.883 363.577 12.821 362.895 12.821C358.989 12.821 354.649 14.247 353.285 19.393L352.789 21.501C352.355 23.423 351.549 24.911 349.441 24.911H347.209V14.123C347.209 13.565 347.085 13.379 346.775 13.379C346.589 13.379 346.341 13.441 345.969 13.503L336.917 14.433C336.297 14.495 336.049 14.557 336.049 15.239V44.193C336.049 44.999 336.359 44.999 336.979 44.999H346.589C347.209 44.999 347.209 44.999 347.209 44.131V33.095ZM22.4596 91.221H16.2596V79.875C16.2596 79.503 16.0736 79.441 15.8876 79.441L5.71963 80.495C5.22363 80.557 5.09963 80.681 5.09963 81.177V110.193C5.09963 110.813 5.22363 110.999 5.84363 110.999H15.8256C16.1356 110.999 16.2596 110.937 16.2596 110.503V99.157H22.4596V110.193C22.4596 110.751 22.5216 110.999 23.1416 110.999H33.1856C33.6196 110.999 33.6196 110.813 33.6196 110.441V79.937C33.6196 79.689 33.5576 79.441 33.3096 79.441L23.0796 80.495C22.8316 80.495 22.4596 80.557 22.4596 81.053V91.221ZM69.119 95.747C69.119 85.951 63.849 79.317 54.053 79.317C44.257 79.317 38.739 85.951 38.739 95.623C38.739 105.543 44.071 112.053 53.991 112.053C63.601 112.053 69.119 105.295 69.119 95.747ZM58.083 95.685C58.083 102.567 56.533 104.489 53.929 104.489C51.325 104.489 49.775 102.629 49.775 95.747C49.775 88.741 51.325 86.881 53.929 86.881C56.533 86.881 58.083 88.803 58.083 95.685ZM89.3722 110.999C92.7202 110.999 97.6182 110.751 100.47 108.085C102.516 106.163 102.764 103.869 102.764 101.823C102.764 99.591 101.834 95.871 97.1842 94.755C101.338 93.453 101.834 89.857 101.834 88.059C101.834 84.463 100.098 82.541 98.3002 81.549C96.2542 80.433 93.6502 80.371 89.3102 80.371H75.1122C74.3062 80.371 74.2442 80.557 74.2442 81.239V110.131C74.2442 110.937 74.4302 110.999 75.1122 110.999H89.3722ZM84.9082 87.005H88.3802C89.5582 87.005 91.2322 87.687 91.2322 89.547C91.2322 92.151 89.3722 92.337 88.1942 92.337H84.9082V87.005ZM84.9082 98.537H88.5042C90.1162 98.537 91.9762 99.281 91.9762 101.451C91.9762 102.877 91.0462 104.365 88.6282 104.365H84.9082V98.537ZM149.011 79.875C149.011 79.503 148.825 79.441 148.639 79.441L138.347 80.495C137.975 80.557 137.851 80.619 137.851 81.053V110.131C137.851 110.813 138.037 110.999 138.719 110.999H148.143C148.949 110.999 149.011 110.813 149.011 110.131V79.875ZM108.525 80.495C108.215 80.557 108.029 80.743 108.029 81.053V110.255C108.029 110.875 108.277 110.999 108.773 110.999H123.281C126.009 110.999 129.915 110.813 132.581 108.147C134.875 105.853 135.123 102.877 135.123 100.831C135.123 98.475 134.813 95.933 132.395 93.701C129.543 90.973 125.823 90.663 122.661 90.663H118.941V80.123C118.941 79.689 118.941 79.441 118.507 79.441H118.321L108.525 80.495ZM118.941 97.297H121.297C125.389 97.297 125.575 99.591 125.575 100.955C125.575 101.947 125.637 104.365 121.855 104.365H118.941V97.297ZM186.133 109.387L176.461 95.561L185.575 83.595C185.823 83.285 185.947 83.037 185.947 82.789C185.947 82.479 185.699 82.231 185.079 82.107L175.407 80.123C175.097 80.061 174.849 79.999 174.663 79.999C174.353 79.999 174.229 80.123 173.981 80.557L170.695 85.951C170.199 86.695 169.827 87.687 169.517 88.369C169.269 87.811 168.835 86.633 168.525 85.951L165.735 80.557C165.487 80.185 165.363 79.999 164.991 79.999C164.867 79.999 164.619 79.999 164.371 80.061L154.575 81.797C153.955 81.921 153.707 82.107 153.707 82.417C153.707 82.665 153.831 82.913 154.079 83.285L162.759 95.561L153.149 108.581C152.901 108.891 152.777 109.139 152.777 109.387C152.777 109.697 153.087 109.945 153.645 110.069L163.441 111.867C163.751 111.929 163.875 111.929 164.061 111.929C164.371 111.929 164.495 111.805 164.743 111.433L168.463 105.047C169.021 104.055 169.269 103.063 169.579 102.381C169.889 103.063 170.137 103.931 170.757 105.047L174.291 111.433C174.477 111.867 174.663 111.991 175.035 111.991C175.221 111.991 175.407 111.929 175.655 111.929L185.637 110.875C186.195 110.813 186.443 110.565 186.443 110.193C186.443 109.945 186.319 109.697 186.133 109.387ZM233.806 95.747C233.806 85.951 228.536 79.317 218.74 79.317C208.944 79.317 203.426 85.951 203.426 95.623C203.426 105.543 208.758 112.053 218.678 112.053C228.288 112.053 233.806 105.295 233.806 95.747ZM222.77 95.685C222.77 102.567 221.22 104.489 218.616 104.489C216.012 104.489 214.462 102.629 214.462 95.747C214.462 88.741 216.012 86.881 218.616 86.881C221.22 86.881 222.77 88.803 222.77 95.685ZM254.148 88.555H260.658C261.402 88.555 261.588 87.873 261.588 87.687L262.518 80.991C262.518 80.433 262.146 80.371 261.526 80.371H236.23C235.548 80.371 235.362 80.557 235.362 81.239V87.687C235.362 88.369 235.548 88.555 236.23 88.555H242.988V110.131C242.988 110.937 243.174 110.999 243.856 110.999H253.28C254.086 110.999 254.148 110.813 254.148 110.131V88.555ZM276.793 99.095H278.653C280.637 99.095 281.443 100.149 281.877 102.133L282.435 104.985C283.985 112.363 290.123 112.053 292.727 112.053C294.277 112.053 294.463 111.805 294.587 111.123L295.827 105.667C295.889 105.481 295.889 105.357 295.889 105.171C295.889 104.675 295.703 104.241 294.959 104.117L294.215 103.993C293.161 103.807 292.169 104.179 291.425 101.141L290.991 99.467C290.433 97.173 289.069 95.561 287.147 95.003V94.817C289.131 94.259 290.061 92.895 290.557 91.345L291.301 89.113C291.735 87.997 292.045 87.067 293.719 86.757L294.835 86.571C295.269 86.509 295.517 86.137 295.517 85.703C295.517 85.579 295.455 85.517 295.455 85.393L294.029 79.565C293.843 78.883 293.161 78.821 292.479 78.821C288.573 78.821 284.233 80.247 282.869 85.393L282.373 87.501C281.939 89.423 281.133 90.911 279.025 90.911H276.793V80.123C276.793 79.565 276.669 79.379 276.359 79.379C276.173 79.379 275.925 79.441 275.553 79.503L266.501 80.433C265.881 80.495 265.633 80.557 265.633 81.239V110.193C265.633 110.999 265.943 110.999 266.563 110.999H276.173C276.793 110.999 276.793 110.999 276.793 110.131V99.095ZM329.051 95.623C329.051 85.889 325.083 79.317 316.465 79.317C313.737 79.317 311.629 79.999 309.273 81.983C308.777 80.619 308.281 79.317 307.599 79.317C307.165 79.317 306.731 79.379 306.297 79.503L299.105 81.673C298.795 81.735 298.609 81.859 298.609 82.107C298.609 83.161 299.849 85.889 299.849 89.361V122.965C299.849 123.771 299.849 124.019 300.345 124.019L310.327 122.841C310.885 122.779 311.009 122.655 311.009 121.849V110.813C312.373 111.433 313.923 112.053 315.783 112.053C325.083 112.053 329.051 106.349 329.051 95.623ZM318.263 95.809C318.263 103.435 316.899 105.109 314.233 105.109C313.179 105.109 312.001 104.923 311.009 104.489V88.617C312.435 87.501 313.675 87.129 314.729 87.129C316.713 87.129 318.263 89.237 318.263 95.809ZM375.154 79.875C375.154 79.503 374.968 79.441 374.782 79.441L364.49 80.495C364.118 80.557 363.994 80.619 363.994 81.053V110.131C363.994 110.813 364.18 110.999 364.862 110.999H374.286C375.092 110.999 375.154 110.813 375.154 110.131V79.875ZM334.668 80.495C334.358 80.557 334.172 80.743 334.172 81.053V110.255C334.172 110.875 334.42 110.999 334.916 110.999H349.424C352.152 110.999 356.058 110.813 358.724 108.147C361.018 105.853 361.266 102.877 361.266 100.831C361.266 98.475 360.956 95.933 358.538 93.701C355.686 90.973 351.966 90.663 348.804 90.663H345.084V80.123C345.084 79.689 345.084 79.441 344.65 79.441H344.464L334.668 80.495ZM345.084 97.297H347.44C351.532 97.297 351.718 99.591 351.718 100.955C351.718 101.947 351.78 104.365 347.998 104.365H345.084V97.297ZM396.615 88.555H403.125C403.869 88.555 404.055 87.873 404.055 87.687L404.985 80.991C404.985 80.433 404.613 80.371 403.993 80.371H378.697C378.015 80.371 377.829 80.557 377.829 81.239V87.687C377.829 88.369 378.015 88.555 378.697 88.555H385.455V110.131C385.455 110.937 385.641 110.999 386.323 110.999H395.747C396.553 110.999 396.615 110.813 396.615 110.131V88.555ZM408.1 110.131C408.1 110.937 408.286 110.999 408.968 110.999H418.454C419.074 110.999 419.26 110.689 419.446 110.379L424.53 100.955C426.576 97.235 427.444 95.251 428.064 93.639H428.312C428.188 94.941 428.002 97.855 428.002 99.405V110.193C428.002 110.937 428.126 110.999 428.56 110.999H437.674C437.922 110.999 438.17 110.999 438.17 110.627V80.061C438.17 79.441 438.046 79.317 437.674 79.317L428.56 80.371C427.568 80.495 427.382 80.681 426.824 81.611L421.43 91.097C420.252 93.081 419.198 95.065 418.206 97.669H418.02C418.144 95.871 418.268 93.515 418.268 91.717V79.751C418.268 79.379 418.082 79.317 417.896 79.317L408.968 80.309C408.472 80.371 408.1 80.433 408.1 80.929V110.131ZM465.323 66.483C465.137 66.483 465.013 66.421 464.827 66.421C463.649 66.421 464.393 70.947 460.239 70.947C455.279 70.947 456.705 66.421 455.403 66.421C455.217 66.421 455.093 66.483 454.907 66.483L449.513 67.041C449.389 67.041 448.893 67.227 448.893 68.095C448.893 69.583 449.885 76.837 459.991 76.837C466.315 76.837 469.043 73.737 470.159 71.939C471.151 70.389 471.337 69.025 471.337 68.095C471.337 67.227 470.903 67.041 470.717 67.041L465.323 66.483ZM444.367 110.131C444.367 110.937 444.553 110.999 445.235 110.999H454.721C455.341 110.999 455.527 110.689 455.713 110.379L460.797 100.955C462.843 97.235 463.711 95.251 464.331 93.639H464.579C464.455 94.941 464.269 97.855 464.269 99.405V110.193C464.269 110.937 464.393 110.999 464.827 110.999H473.941C474.189 110.999 474.437 110.999 474.437 110.627V80.061C474.437 79.441 474.313 79.317 473.941 79.317L464.827 80.371C463.835 80.495 463.649 80.681 463.091 81.611L457.697 91.097C456.519 93.081 455.465 95.065 454.473 97.669H454.287C454.411 95.871 454.535 93.515 454.535 91.717V79.751C454.535 79.379 454.349 79.317 454.163 79.317L445.235 80.309C444.739 80.371 444.367 80.433 444.367 80.929V110.131Z" fill="white"/>
<path d="M30.0236 150.215C30.1476 149.843 30.2716 149.595 30.2716 149.347C30.2716 149.037 30.0856 148.789 29.6516 148.479C26.8616 146.433 23.4516 145.317 19.9176 145.317C9.68763 145.317 4.04563 152.075 4.04563 162.181C4.04563 171.791 9.06763 178.053 18.9256 178.053C21.5916 178.053 29.8376 176.317 29.8376 173.589C29.8376 173.341 29.7136 173.093 29.5896 172.845L27.2336 168.257C26.9856 167.761 26.7376 167.513 26.4276 167.513C26.1796 167.513 25.8696 167.637 25.4356 167.885C23.8236 168.815 22.1496 169.745 20.1036 169.745C17.5616 169.745 15.0816 167.885 15.0816 161.871C15.0816 155.609 17.6236 153.625 20.0416 153.625C22.2116 153.625 24.1956 154.555 26.3656 155.919C26.6756 156.105 26.9236 156.229 27.1096 156.229C27.3576 156.229 27.4816 156.043 27.6676 155.671L30.0236 150.215ZM83.0244 175.511L70.0044 135.521C69.6324 134.529 69.5704 134.467 68.5784 134.467H59.3404C58.2864 134.467 58.2244 134.591 57.9764 135.521L45.0184 175.511C44.8944 175.821 44.7704 176.131 44.7704 176.379C44.7704 176.751 45.0804 176.999 46.0724 176.999H55.7444C56.7364 176.999 56.7364 176.937 57.0464 175.945L59.5884 167.079H67.7104L70.0664 175.945C70.3144 176.937 70.3764 176.999 71.4304 176.999H81.9084C82.8384 176.999 83.1484 176.813 83.1484 176.255C83.1484 176.069 83.0864 175.821 83.0244 175.511ZM65.9744 158.709H60.9524L62.5644 151.455C62.9364 149.657 63.3704 146.371 63.6184 144.387C63.8664 146.247 64.4244 149.719 64.7344 151.455L65.9744 158.709ZM104.444 174.767L102.832 168.381C102.77 168.071 102.584 168.009 102.336 168.009C101.902 168.009 100.476 168.691 99.0505 168.691C98.5545 168.691 98.1825 168.133 98.1825 167.327V133.289C98.1825 132.421 98.1205 132.173 97.6245 132.173C97.4385 132.173 97.1905 132.173 96.8805 132.235L87.5805 133.475C86.8365 133.599 86.7745 133.847 86.7745 134.839L86.8365 167.637C86.8365 171.295 87.3945 173.465 89.1925 175.449C90.8665 177.185 93.5325 178.053 96.3225 178.053C98.3685 178.053 104.506 176.751 104.506 175.201C104.506 175.077 104.506 174.953 104.444 174.767ZM136.936 161.623C136.936 151.889 132.968 145.317 124.35 145.317C121.622 145.317 119.514 145.999 117.158 147.983C116.662 146.619 116.166 145.317 115.484 145.317C115.05 145.317 114.616 145.379 114.182 145.503L106.99 147.673C106.68 147.735 106.494 147.859 106.494 148.107C106.494 149.161 107.734 151.889 107.734 155.361V188.965C107.734 189.771 107.734 190.019 108.23 190.019L118.212 188.841C118.77 188.779 118.894 188.655 118.894 187.849V176.937C120.258 177.557 121.808 178.177 123.668 178.177C132.968 178.177 136.936 172.349 136.936 161.623ZM126.148 161.809C126.148 169.435 124.784 171.109 122.118 171.109C121.064 171.109 119.886 170.923 118.894 170.489V154.617C120.32 153.501 121.56 153.129 122.614 153.129C124.598 153.129 126.148 155.237 126.148 161.809ZM170.205 163.111C170.205 151.703 166.051 145.317 156.255 145.317C146.707 145.317 141.003 152.385 141.003 161.933C141.003 171.977 146.273 178.053 156.565 178.053C159.975 178.053 164.501 177.371 168.717 174.519C169.151 174.271 169.337 174.085 169.337 173.837C169.337 173.713 169.275 173.527 169.151 173.341L166.361 168.133C166.113 167.699 165.865 167.451 165.555 167.451C165.369 167.451 165.183 167.513 164.873 167.699C162.517 169.001 160.595 169.993 156.875 169.993C153.775 169.993 152.039 168.319 151.667 163.979H169.213C169.833 163.979 170.205 163.917 170.205 163.111ZM159.727 157.345H151.667C152.287 153.439 153.279 152.137 155.883 152.137C158.301 152.137 159.479 153.315 159.727 157.345ZM203.944 176.069V155.733C203.944 149.099 200.968 145.317 194.024 145.317C190.924 145.317 188.196 146.309 185.53 148.665C184.786 146.123 183.98 145.317 183.236 145.317C183.05 145.317 182.864 145.317 182.678 145.379L174.804 147.053C174.432 147.115 174.308 147.239 174.308 147.549C174.308 148.913 175.424 151.517 175.424 155.733V176.193C175.424 176.875 175.486 176.999 176.354 176.999H185.654C186.522 176.999 186.584 176.875 186.584 176.379V154.617C188.196 153.439 189.374 153.005 190.676 153.005C192.102 153.005 192.784 154.121 192.784 155.981V176.069C192.784 176.875 192.846 176.999 193.714 176.999H203.262C203.882 176.999 203.944 176.875 203.944 176.069ZM256.821 172.225V154.121C256.821 153.191 256.697 152.943 255.643 152.943H241.321C240.143 152.943 240.019 153.067 240.019 154.245V161.127C240.019 162.181 240.143 162.243 241.197 162.243L246.157 162.305V168.133C245.227 168.443 243.739 168.629 242.933 168.629C236.733 168.629 235.927 160.259 235.927 155.423C235.927 145.627 239.089 143.395 242.809 143.395C246.467 143.395 249.133 144.945 251.117 145.937C251.365 146.061 251.675 146.247 251.985 146.247C252.171 146.247 252.357 146.185 252.481 145.937L255.953 138.683C256.015 138.497 256.077 138.373 256.077 138.249C256.077 137.939 255.891 137.567 255.643 137.381C252.543 134.715 247.025 133.413 242.499 133.413C229.975 133.413 223.961 141.845 223.899 155.981V156.229C223.899 170.179 229.789 178.053 242.375 178.053C247.893 178.053 256.821 175.139 256.821 172.225ZM292.053 161.747C292.053 151.951 286.783 145.317 276.987 145.317C267.191 145.317 261.673 151.951 261.673 161.623C261.673 171.543 267.005 178.053 276.925 178.053C286.535 178.053 292.053 171.295 292.053 161.747ZM281.017 161.685C281.017 168.567 279.467 170.489 276.863 170.489C274.259 170.489 272.709 168.629 272.709 161.747C272.709 154.741 274.259 152.881 276.863 152.881C279.467 152.881 281.017 154.803 281.017 161.685ZM314.724 174.767L313.112 168.381C313.05 168.071 312.864 168.009 312.616 168.009C312.182 168.009 310.756 168.691 309.33 168.691C308.834 168.691 308.462 168.133 308.462 167.327V133.289C308.462 132.421 308.4 132.173 307.904 132.173C307.718 132.173 307.47 132.173 307.16 132.235L297.86 133.475C297.116 133.599 297.054 133.847 297.054 134.839L297.116 167.637C297.116 171.295 297.674 173.465 299.472 175.449C301.146 177.185 303.812 178.053 306.602 178.053C308.648 178.053 314.786 176.751 314.786 175.201C314.786 175.077 314.786 174.953 314.724 174.767ZM346.595 174.085C346.099 172.473 345.479 171.481 345.479 168.877V133.165C345.479 132.359 345.231 132.173 344.797 132.173C344.611 132.173 344.425 132.173 344.239 132.235L334.877 133.785C334.381 133.847 334.319 134.157 334.319 134.653V146.309C332.769 145.689 331.281 145.255 329.731 145.255C325.949 145.255 322.725 146.371 320.307 149.037C317.331 152.323 316.649 155.919 316.649 162.243C316.649 171.233 320.245 178.053 328.243 178.053C330.847 178.053 333.699 177.061 336.303 175.139C336.799 176.937 337.357 177.805 338.039 177.805C338.473 177.805 338.783 177.805 339.403 177.619L346.161 175.511C346.595 175.387 346.781 175.201 346.781 174.891C346.781 174.705 346.719 174.457 346.595 174.085ZM334.319 169.001C333.327 169.807 331.777 170.427 330.537 170.427C328.553 170.427 327.003 168.505 327.003 161.437C327.003 154.245 328.553 152.447 330.971 152.447C332.025 152.447 333.265 152.695 334.319 153.067V169.001ZM366.919 135.087V134.715C366.919 133.971 366.671 133.785 365.617 133.785H354.953C353.899 133.785 353.713 133.909 353.713 134.653L355.263 159.453C355.325 160.507 355.449 160.693 356.503 160.693H364.129C365.183 160.693 365.307 160.507 365.369 159.453L366.919 135.087ZM367.539 171.977C367.539 168.071 364.315 164.847 360.409 164.847C356.503 164.847 353.279 168.071 353.279 171.977C353.279 175.883 356.503 179.107 360.409 179.107C364.315 179.107 367.539 175.883 367.539 171.977Z" fill="url(#paint0_linear)"/>
</g>
<defs>
<filter id="filter0_d" x="0.0456543" y="0.916992" width="474.392" height="193.102" filterUnits="userSpaceOnUse" color-interpolation-filters="sRGB">
<feFlood flood-opacity="0" result="BackgroundImageFix"/>
<feColorMatrix in="SourceAlpha" type="matrix" values="0 0 0 0 0 0 0 0 0 0 0 0 0 0 0 0 0 0 127 0"/>
<feOffset dx="-2" dy="2"/>
<feGaussianBlur stdDeviation="1"/>
<feColorMatrix type="matrix" values="0 0 0 0 0.407789 0 0 0 0 0.153002 0 0 0 0 0.000130266 0 0 0 0.75 0"/>
<feBlend mode="normal" in2="BackgroundImageFix" result="effect1_dropShadow"/>
<feBlend mode="normal" in="SourceGraphic" in2="effect1_dropShadow" result="shape"/>
</filter>
<linearGradient id="paint0_linear" x1="623.34" y1="56.899" x2="440.449" y2="446.162" gradientUnits="userSpaceOnUse">
<stop offset="0.34855" stop-color="white"/>
<stop offset="0.806911" stop-color="#FFE686"/>
<stop offset="1" stop-color="#F7B545"/>
</linearGradient>
</defs>
</svg>
