<svg width="307" height="132" viewBox="0 0 307 132" fill="none" xmlns="http://www.w3.org/2000/svg">
<g filter="url(#filter0_d)">
<path d="M55.4167 28.16V2.36C55.4167 1.68 55.3367 1.56 54.5767 1.56H36.0967C35.3367 1.56 35.2967 1.68 35.2967 2.36V28.16C35.2967 28.92 35.3367 29 36.0967 29H42.2167C42.8967 29 43.0567 28.92 43.0567 28.16V7.88H47.6567V28.16C47.6567 28.92 47.6967 29 48.4567 29H54.5767C55.3367 29 55.4167 28.92 55.4167 28.16ZM77.7498 20.04C77.7498 12.68 75.0698 8.56 68.7498 8.56C62.5898 8.56 58.9098 13.12 58.9098 19.28C58.9098 25.76 62.3098 29.68 68.9498 29.68C71.1498 29.68 74.0698 29.24 76.7898 27.4C77.0698 27.24 77.1898 27.12 77.1898 26.96C77.1898 26.88 77.1498 26.76 77.0698 26.64L75.2698 23.28C75.1098 23 74.9498 22.84 74.7498 22.84C74.6298 22.84 74.5098 22.88 74.3098 23C72.7898 23.84 71.5498 24.48 69.1498 24.48C67.1498 24.48 66.0298 23.4 65.7898 20.6H77.1098C77.5098 20.6 77.7498 20.56 77.7498 20.04ZM70.9898 16.32H65.7898C66.1898 13.8 66.8298 12.96 68.5098 12.96C70.0698 12.96 70.8298 13.72 70.9898 16.32ZM99.997 19.08C99.997 12.8 97.437 8.56 91.877 8.56C90.117 8.56 88.757 9 87.237 10.28C86.917 9.4 86.597 8.56 86.157 8.56C85.877 8.56 85.597 8.6 85.317 8.68L80.677 10.08C80.477 10.12 80.357 10.2 80.357 10.36C80.357 11.04 81.157 12.8 81.157 15.04V36.72C81.157 37.24 81.157 37.4 81.477 37.4L87.917 36.64C88.277 36.6 88.357 36.52 88.357 36V28.88C89.237 29.28 90.237 29.68 91.437 29.68C97.437 29.68 99.997 26 99.997 19.08ZM93.037 19.2C93.037 24.12 92.157 25.2 90.437 25.2C89.757 25.2 88.997 25.08 88.357 24.8V14.56C89.277 13.84 90.077 13.6 90.757 13.6C92.037 13.6 93.037 14.96 93.037 19.2ZM121.461 20.04C121.461 12.68 118.781 8.56 112.461 8.56C106.301 8.56 102.621 13.12 102.621 19.28C102.621 25.76 106.021 29.68 112.661 29.68C114.861 29.68 117.781 29.24 120.501 27.4C120.781 27.24 120.901 27.12 120.901 26.96C120.901 26.88 120.861 26.76 120.781 26.64L118.981 23.28C118.821 23 118.661 22.84 118.461 22.84C118.341 22.84 118.221 22.88 118.021 23C116.501 23.84 115.261 24.48 112.861 24.48C110.861 24.48 109.741 23.4 109.501 20.6H120.821C121.221 20.6 121.461 20.56 121.461 20.04ZM114.701 16.32H109.501C109.901 13.8 110.541 12.96 112.221 12.96C113.781 12.96 114.541 13.72 114.701 16.32ZM131.868 21.32H133.068C134.348 21.32 134.868 22 135.148 23.28L135.508 25.12C136.508 29.88 140.468 29.68 142.148 29.68C143.148 29.68 143.268 29.52 143.348 29.08L144.148 25.56C144.188 25.44 144.188 25.36 144.188 25.24C144.188 24.92 144.068 24.64 143.588 24.56L143.108 24.48C142.428 24.36 141.788 24.6 141.308 22.64L141.028 21.56C140.668 20.08 139.788 19.04 138.548 18.68V18.56C139.828 18.2 140.428 17.32 140.748 16.32L141.228 14.88C141.508 14.16 141.708 13.56 142.788 13.36L143.508 13.24C143.788 13.2 143.948 12.96 143.948 12.68C143.948 12.6 143.908 12.56 143.908 12.48L142.988 8.72C142.868 8.28 142.428 8.24 141.988 8.24C139.468 8.24 136.668 9.16 135.788 12.48L135.468 13.84C135.188 15.08 134.668 16.04 133.308 16.04H131.868V9.08C131.868 8.72 131.788 8.6 131.588 8.6C131.468 8.6 131.308 8.64 131.068 8.68L125.228 9.28C124.828 9.32 124.668 9.36 124.668 9.8V28.48C124.668 29 124.868 29 125.268 29H131.468C131.868 29 131.868 29 131.868 28.44V21.32ZM165.583 19.08C165.583 12.8 163.023 8.56 157.463 8.56C155.703 8.56 154.343 9 152.823 10.28C152.503 9.4 152.183 8.56 151.743 8.56C151.463 8.56 151.183 8.6 150.903 8.68L146.263 10.08C146.063 10.12 145.943 10.2 145.943 10.36C145.943 11.04 146.743 12.8 146.743 15.04V36.72C146.743 37.24 146.743 37.4 147.063 37.4L153.503 36.64C153.863 36.6 153.943 36.52 153.943 36V28.88C154.823 29.28 155.823 29.68 157.023 29.68C163.023 29.68 165.583 26 165.583 19.08ZM158.623 19.2C158.623 24.12 157.743 25.2 156.023 25.2C155.343 25.2 154.583 25.08 153.943 24.8V14.56C154.863 13.84 155.663 13.6 156.343 13.6C157.623 13.6 158.623 14.96 158.623 19.2ZM187.047 20.04C187.047 12.68 184.367 8.56 178.047 8.56C171.887 8.56 168.207 13.12 168.207 19.28C168.207 25.76 171.607 29.68 178.247 29.68C180.447 29.68 183.367 29.24 186.087 27.4C186.367 27.24 186.487 27.12 186.487 26.96C186.487 26.88 186.447 26.76 186.367 26.64L184.567 23.28C184.407 23 184.247 22.84 184.047 22.84C183.927 22.84 183.807 22.88 183.607 23C182.087 23.84 180.847 24.48 178.447 24.48C176.447 24.48 175.327 23.4 175.087 20.6H186.407C186.807 20.6 187.047 20.56 187.047 20.04ZM180.287 16.32H175.087C175.487 13.8 176.127 12.96 177.807 12.96C179.367 12.96 180.127 13.72 180.287 16.32ZM177.127 3.72C177.127 2 175.727 0.559999 173.967 0.559999C172.247 0.559999 170.767 2 170.767 3.72C170.767 5.48 172.247 6.96 173.967 6.96C175.727 6.96 177.127 5.48 177.127 3.72ZM184.967 3.72C184.967 2 183.527 0.559999 181.767 0.559999C180.007 0.559999 178.607 2 178.607 3.72C178.607 5.48 180.007 6.96 181.767 6.96C183.527 6.96 184.967 5.48 184.967 3.72ZM206.334 11.72C206.414 11.48 206.494 11.32 206.494 11.16C206.494 10.96 206.374 10.8 206.094 10.6C204.294 9.28 202.094 8.56 199.814 8.56C193.214 8.56 189.574 12.92 189.574 19.44C189.574 25.64 192.814 29.68 199.174 29.68C200.894 29.68 206.214 28.56 206.214 26.8C206.214 26.64 206.134 26.48 206.054 26.32L204.534 23.36C204.374 23.04 204.214 22.88 204.014 22.88C203.854 22.88 203.654 22.96 203.374 23.12C202.334 23.72 201.254 24.32 199.934 24.32C198.294 24.32 196.694 23.12 196.694 19.24C196.694 15.2 198.334 13.92 199.894 13.92C201.294 13.92 202.574 14.52 203.974 15.4C204.174 15.52 204.334 15.6 204.454 15.6C204.614 15.6 204.694 15.48 204.814 15.24L206.334 11.72ZM219.563 14.52H223.763C224.243 14.52 224.363 14.08 224.363 13.96L224.963 9.64C224.963 9.28 224.723 9.24 224.323 9.24H208.003C207.563 9.24 207.443 9.36 207.443 9.8V13.96C207.443 14.4 207.563 14.52 208.003 14.52H212.363V28.44C212.363 28.96 212.483 29 212.923 29H219.003C219.523 29 219.563 28.88 219.563 28.44V14.52ZM245.346 19.16C245.346 12.84 241.946 8.56 235.626 8.56C229.306 8.56 225.746 12.84 225.746 19.08C225.746 25.48 229.186 29.68 235.586 29.68C241.786 29.68 245.346 25.32 245.346 19.16ZM238.226 19.12C238.226 23.56 237.226 24.8 235.546 24.8C233.866 24.8 232.866 23.6 232.866 19.16C232.866 14.64 233.866 13.44 235.546 13.44C237.226 13.44 238.226 14.68 238.226 19.12ZM255.852 21.32H257.052C258.332 21.32 258.852 22 259.132 23.28L259.492 25.12C260.492 29.88 264.452 29.68 266.132 29.68C267.132 29.68 267.252 29.52 267.332 29.08L268.132 25.56C268.172 25.44 268.172 25.36 268.172 25.24C268.172 24.92 268.052 24.64 267.572 24.56L267.092 24.48C266.412 24.36 265.772 24.6 265.292 22.64L265.012 21.56C264.652 20.08 263.772 19.04 262.532 18.68V18.56C263.812 18.2 264.412 17.32 264.732 16.32L265.212 14.88C265.492 14.16 265.692 13.56 266.772 13.36L267.492 13.24C267.772 13.2 267.932 12.96 267.932 12.68C267.932 12.6 267.892 12.56 267.892 12.48L266.972 8.72C266.852 8.28 266.412 8.24 265.972 8.24C263.452 8.24 260.652 9.16 259.772 12.48L259.452 13.84C259.172 15.08 258.652 16.04 257.292 16.04H255.852V9.08C255.852 8.72 255.772 8.6 255.572 8.6C255.452 8.6 255.292 8.64 255.052 8.68L249.212 9.28C248.812 9.32 248.652 9.36 248.652 9.8V28.48C248.652 29 248.852 29 249.252 29H255.452C255.852 29 255.852 29 255.852 28.44V21.32ZM15.3016 61.24H11.3016V53.92C11.3016 53.68 11.1816 53.64 11.0616 53.64L4.50156 54.32C4.18156 54.36 4.10156 54.44 4.10156 54.76V73.48C4.10156 73.88 4.18156 74 4.58156 74H11.0216C11.2216 74 11.3016 73.96 11.3016 73.68V66.36H15.3016V73.48C15.3016 73.84 15.3416 74 15.7416 74H22.2216C22.5016 74 22.5016 73.88 22.5016 73.64V53.96C22.5016 53.8 22.4616 53.64 22.3016 53.64L15.7016 54.32C15.5416 54.32 15.3016 54.36 15.3016 54.68V61.24ZM45.4044 64.16C45.4044 57.84 42.0044 53.56 35.6844 53.56C29.3644 53.56 25.8044 57.84 25.8044 64.08C25.8044 70.48 29.2444 74.68 35.6444 74.68C41.8444 74.68 45.4044 70.32 45.4044 64.16ZM38.2844 64.12C38.2844 68.56 37.2844 69.8 35.6044 69.8C33.9244 69.8 32.9244 68.6 32.9244 64.16C32.9244 59.64 33.9244 58.44 35.6044 58.44C37.2844 58.44 38.2844 59.68 38.2844 64.12ZM58.4709 74C60.6309 74 63.7909 73.84 65.6309 72.12C66.9509 70.88 67.1109 69.4 67.1109 68.08C67.1109 66.64 66.5109 64.24 63.5109 63.52C66.1909 62.68 66.5109 60.36 66.5109 59.2C66.5109 56.88 65.3909 55.64 64.2309 55C62.9109 54.28 61.2309 54.24 58.4309 54.24H49.2709C48.7509 54.24 48.7109 54.36 48.7109 54.8V73.44C48.7109 73.96 48.8309 74 49.2709 74H58.4709ZM55.5909 58.52H57.8309C58.5909 58.52 59.6709 58.96 59.6709 60.16C59.6709 61.84 58.4709 61.96 57.7109 61.96H55.5909V58.52ZM55.5909 65.96H57.9109C58.9509 65.96 60.1509 66.44 60.1509 67.84C60.1509 68.76 59.5509 69.72 57.9909 69.72H55.5909V65.96ZM96.9478 53.92C96.9478 53.68 96.8278 53.64 96.7078 53.64L90.0678 54.32C89.8278 54.36 89.7478 54.4 89.7478 54.68V73.44C89.7478 73.88 89.8678 74 90.3078 74H96.3878C96.9078 74 96.9478 73.88 96.9478 73.44V53.92ZM70.8278 54.32C70.6278 54.36 70.5078 54.48 70.5078 54.68V73.52C70.5078 73.92 70.6678 74 70.9878 74H80.3478C82.1078 74 84.6278 73.88 86.3478 72.16C87.8278 70.68 87.9878 68.76 87.9878 67.44C87.9878 65.92 87.7878 64.28 86.2278 62.84C84.3878 61.08 81.9878 60.88 79.9478 60.88H77.5478V54.08C77.5478 53.8 77.5478 53.64 77.2678 53.64H77.1478L70.8278 54.32ZM77.5478 65.16H79.0678C81.7078 65.16 81.8278 66.64 81.8278 67.52C81.8278 68.16 81.8678 69.72 79.4278 69.72H77.5478V65.16ZM120.898 72.96L114.658 64.04L120.538 56.32C120.698 56.12 120.778 55.96 120.778 55.8C120.778 55.6 120.618 55.44 120.218 55.36L113.978 54.08C113.778 54.04 113.618 54 113.498 54C113.298 54 113.218 54.08 113.058 54.36L110.938 57.84C110.618 58.32 110.378 58.96 110.178 59.4C110.018 59.04 109.738 58.28 109.538 57.84L107.738 54.36C107.578 54.12 107.498 54 107.258 54C107.178 54 107.018 54 106.858 54.04L100.538 55.16C100.138 55.24 99.9775 55.36 99.9775 55.56C99.9775 55.72 100.058 55.88 100.218 56.12L105.818 64.04L99.6175 72.44C99.4575 72.64 99.3775 72.8 99.3775 72.96C99.3775 73.16 99.5775 73.32 99.9375 73.4L106.258 74.56C106.458 74.6 106.538 74.6 106.658 74.6C106.858 74.6 106.938 74.52 107.098 74.28L109.497 70.16C109.858 69.52 110.018 68.88 110.218 68.44C110.418 68.88 110.578 69.44 110.978 70.16L113.258 74.28C113.378 74.56 113.498 74.64 113.738 74.64C113.858 74.64 113.978 74.6 114.138 74.6L120.578 73.92C120.938 73.88 121.098 73.72 121.098 73.48C121.098 73.32 121.018 73.16 120.898 72.96ZM151.654 64.16C151.654 57.84 148.254 53.56 141.934 53.56C135.614 53.56 132.054 57.84 132.054 64.08C132.054 70.48 135.494 74.68 141.894 74.68C148.094 74.68 151.654 70.32 151.654 64.16ZM144.534 64.12C144.534 68.56 143.534 69.8 141.854 69.8C140.174 69.8 139.174 68.6 139.174 64.16C139.174 59.64 140.174 58.44 141.854 58.44C143.534 58.44 144.534 59.68 144.534 64.12ZM164.778 59.52H168.978C169.458 59.52 169.578 59.08 169.578 58.96L170.178 54.64C170.178 54.28 169.938 54.24 169.538 54.24H153.218C152.778 54.24 152.658 54.36 152.658 54.8V58.96C152.658 59.4 152.778 59.52 153.218 59.52H157.578V73.44C157.578 73.96 157.698 74 158.138 74H164.218C164.738 74 164.778 73.88 164.778 73.44V59.52ZM179.388 66.32H180.588C181.868 66.32 182.388 67 182.668 68.28L183.028 70.12C184.028 74.88 187.988 74.68 189.668 74.68C190.668 74.68 190.788 74.52 190.868 74.08L191.668 70.56C191.708 70.44 191.708 70.36 191.708 70.24C191.708 69.92 191.588 69.64 191.108 69.56L190.628 69.48C189.948 69.36 189.308 69.6 188.828 67.64L188.548 66.56C188.188 65.08 187.308 64.04 186.068 63.68V63.56C187.348 63.2 187.948 62.32 188.268 61.32L188.748 59.88C189.028 59.16 189.228 58.56 190.308 58.36L191.028 58.24C191.307 58.2 191.468 57.96 191.468 57.68C191.468 57.6 191.428 57.56 191.428 57.48L190.508 53.72C190.387 53.28 189.948 53.24 189.508 53.24C186.988 53.24 184.188 54.16 183.308 57.48L182.988 58.84C182.708 60.08 182.188 61.04 180.828 61.04H179.388V54.08C179.388 53.72 179.308 53.6 179.108 53.6C178.988 53.6 178.828 53.64 178.588 53.68L172.748 54.28C172.348 54.32 172.188 54.36 172.188 54.8V73.48C172.188 74 172.388 74 172.788 74H178.988C179.388 74 179.388 74 179.388 73.44V66.32ZM213.103 64.08C213.103 57.8 210.543 53.56 204.983 53.56C203.223 53.56 201.863 54 200.343 55.28C200.023 54.4 199.703 53.56 199.263 53.56C198.983 53.56 198.703 53.6 198.423 53.68L193.783 55.08C193.583 55.12 193.463 55.2 193.463 55.36C193.463 56.04 194.263 57.8 194.263 60.04V81.72C194.263 82.24 194.263 82.4 194.583 82.4L201.023 81.64C201.383 81.6 201.463 81.52 201.463 81V73.88C202.342 74.28 203.343 74.68 204.543 74.68C210.543 74.68 213.103 71 213.103 64.08ZM206.143 64.2C206.143 69.12 205.263 70.2 203.543 70.2C202.863 70.2 202.103 70.08 201.463 69.8V59.56C202.383 58.84 203.183 58.6 203.863 58.6C205.143 58.6 206.143 59.96 206.143 64.2ZM242.846 53.92C242.846 53.68 242.726 53.64 242.606 53.64L235.966 54.32C235.726 54.36 235.646 54.4 235.646 54.68V73.44C235.646 73.88 235.766 74 236.206 74H242.286C242.806 74 242.846 73.88 242.846 73.44V53.92ZM216.726 54.32C216.526 54.36 216.406 54.48 216.406 54.68V73.52C216.406 73.92 216.566 74 216.886 74H226.246C228.006 74 230.526 73.88 232.246 72.16C233.726 70.68 233.886 68.76 233.886 67.44C233.886 65.92 233.686 64.28 232.126 62.84C230.286 61.08 227.886 60.88 225.846 60.88H223.446V54.08C223.446 53.8 223.446 53.64 223.166 53.64H223.046L216.726 54.32ZM223.446 65.16H224.966C227.606 65.16 227.726 66.64 227.726 67.52C227.726 68.16 227.766 69.72 225.326 69.72H223.446V65.16ZM256.692 59.52H260.892C261.372 59.52 261.492 59.08 261.492 58.96L262.092 54.64C262.092 54.28 261.852 54.24 261.452 54.24H245.132C244.692 54.24 244.572 54.36 244.572 54.8V58.96C244.572 59.4 244.692 59.52 245.132 59.52H249.492V73.44C249.492 73.96 249.612 74 250.052 74H256.132C256.652 74 256.692 73.88 256.692 73.44V59.52ZM264.102 73.44C264.102 73.96 264.222 74 264.662 74H270.782C271.182 74 271.302 73.8 271.422 73.6L274.702 67.52C276.022 65.12 276.582 63.84 276.982 62.8H277.142C277.062 63.64 276.942 65.52 276.942 66.52V73.48C276.942 73.96 277.022 74 277.302 74H283.182C283.342 74 283.502 74 283.502 73.76V54.04C283.502 53.64 283.422 53.56 283.182 53.56L277.302 54.24C276.662 54.32 276.542 54.44 276.182 55.04L272.702 61.16C271.942 62.44 271.262 63.72 270.622 65.4H270.502C270.582 64.24 270.662 62.72 270.662 61.56V53.84C270.662 53.6 270.542 53.56 270.422 53.56L264.662 54.2C264.342 54.24 264.102 54.28 264.102 54.6V73.44ZM301.02 45.28C300.9 45.28 300.82 45.24 300.7 45.24C299.94 45.24 300.42 48.16 297.74 48.16C294.54 48.16 295.46 45.24 294.62 45.24C294.5 45.24 294.42 45.28 294.3 45.28L290.82 45.64C290.74 45.64 290.42 45.76 290.42 46.32C290.42 47.28 291.06 51.96 297.58 51.96C301.66 51.96 303.42 49.96 304.14 48.8C304.78 47.8 304.9 46.92 304.9 46.32C304.9 45.76 304.62 45.64 304.5 45.64L301.02 45.28ZM287.5 73.44C287.5 73.96 287.62 74 288.06 74H294.18C294.58 74 294.7 73.8 294.82 73.6L298.1 67.52C299.42 65.12 299.98 63.84 300.38 62.8H300.54C300.46 63.64 300.34 65.52 300.34 66.52V73.48C300.34 73.96 300.42 74 300.7 74H306.58C306.74 74 306.9 74 306.9 73.76V54.04C306.9 53.64 306.82 53.56 306.58 53.56L300.7 54.24C300.06 54.32 299.94 54.44 299.58 55.04L296.1 61.16C295.34 62.44 294.66 63.72 294.02 65.4H293.9C293.98 64.24 294.06 62.72 294.06 61.56V53.84C294.06 53.6 293.94 53.56 293.82 53.56L288.06 54.2C287.74 54.24 287.5 54.28 287.5 54.6V73.44Z" fill="white"/>
<path d="M54.1855 101.72C54.2655 101.48 54.3455 101.32 54.3455 101.16C54.3455 100.96 54.2255 100.8 53.9455 100.6C52.1455 99.28 49.9455 98.56 47.6655 98.56C41.0655 98.56 37.4255 102.92 37.4255 109.44C37.4255 115.64 40.6655 119.68 47.0255 119.68C48.7455 119.68 54.0655 118.56 54.0655 116.8C54.0655 116.64 53.9855 116.48 53.9055 116.32L52.3855 113.36C52.2255 113.04 52.0655 112.88 51.8655 112.88C51.7055 112.88 51.5055 112.96 51.2255 113.12C50.1855 113.72 49.1055 114.32 47.7855 114.32C46.1455 114.32 44.5455 113.12 44.5455 109.24C44.5455 105.2 46.1855 103.92 47.7455 103.92C49.1455 103.92 50.4255 104.52 51.8255 105.4C52.0255 105.52 52.1855 105.6 52.3055 105.6C52.4655 105.6 52.5455 105.48 52.6655 105.24L54.1855 101.72ZM88.3795 118.04L79.9795 92.24C79.7395 91.6 79.6995 91.56 79.0595 91.56H73.0995C72.4195 91.56 72.3795 91.64 72.2195 92.24L63.8595 118.04C63.7795 118.24 63.6995 118.44 63.6995 118.6C63.6995 118.84 63.8995 119 64.5395 119H70.7795C71.4195 119 71.4195 118.96 71.6195 118.32L73.2595 112.6H78.4995L80.0195 118.32C80.1795 118.96 80.2195 119 80.8995 119H87.6595C88.2595 119 88.4595 118.88 88.4595 118.52C88.4595 118.4 88.4195 118.24 88.3795 118.04ZM77.3795 107.2H74.1395L75.1795 102.52C75.4195 101.36 75.6995 99.24 75.8595 97.96C76.0195 99.16 76.3795 101.4 76.5795 102.52L77.3795 107.2ZM102.199 117.56L101.159 113.44C101.119 113.24 100.999 113.2 100.839 113.2C100.559 113.2 99.6389 113.64 98.7189 113.64C98.3989 113.64 98.1589 113.28 98.1589 112.76V90.8C98.1589 90.24 98.1189 90.08 97.7989 90.08C97.6789 90.08 97.5189 90.08 97.3189 90.12L91.3189 90.92C90.8389 91 90.7989 91.16 90.7989 91.8L90.8389 112.96C90.8389 115.32 91.1989 116.72 92.3589 118C93.4389 119.12 95.1589 119.68 96.9589 119.68C98.2789 119.68 102.239 118.84 102.239 117.84C102.239 117.76 102.239 117.68 102.199 117.56ZM123.161 109.08C123.161 102.8 120.601 98.56 115.041 98.56C113.281 98.56 111.921 99 110.401 100.28C110.081 99.4 109.761 98.56 109.321 98.56C109.041 98.56 108.761 98.6 108.481 98.68L103.841 100.08C103.641 100.12 103.521 100.2 103.521 100.36C103.521 101.04 104.321 102.8 104.321 105.04V126.72C104.321 127.24 104.321 127.4 104.641 127.4L111.081 126.64C111.441 126.6 111.521 126.52 111.521 126V118.96C112.401 119.36 113.401 119.76 114.601 119.76C120.601 119.76 123.161 116 123.161 109.08ZM116.201 109.2C116.201 114.12 115.321 115.2 113.601 115.2C112.921 115.2 112.161 115.08 111.521 114.8V104.56C112.441 103.84 113.241 103.6 113.921 103.6C115.201 103.6 116.201 104.96 116.201 109.2ZM144.625 110.04C144.625 102.68 141.945 98.56 135.625 98.56C129.465 98.56 125.785 103.12 125.785 109.28C125.785 115.76 129.185 119.68 135.825 119.68C138.025 119.68 140.945 119.24 143.665 117.4C143.945 117.24 144.065 117.12 144.065 116.96C144.065 116.88 144.025 116.76 143.945 116.64L142.145 113.28C141.985 113 141.825 112.84 141.625 112.84C141.505 112.84 141.385 112.88 141.185 113C139.665 113.84 138.425 114.48 136.025 114.48C134.025 114.48 132.905 113.4 132.665 110.6H143.985C144.385 110.6 144.625 110.56 144.625 110.04ZM137.865 106.32H132.665C133.065 103.8 133.705 102.96 135.385 102.96C136.945 102.96 137.705 103.72 137.865 106.32ZM166.392 118.4V105.28C166.392 101 164.472 98.56 159.992 98.56C157.992 98.56 156.232 99.2 154.512 100.72C154.032 99.08 153.512 98.56 153.032 98.56C152.912 98.56 152.792 98.56 152.672 98.6L147.592 99.68C147.352 99.72 147.272 99.8 147.272 100C147.272 100.88 147.992 102.56 147.992 105.28V118.48C147.992 118.92 148.032 119 148.592 119H154.592C155.152 119 155.192 118.92 155.192 118.6V104.56C156.232 103.8 156.992 103.52 157.832 103.52C158.752 103.52 159.192 104.24 159.192 105.44V118.4C159.192 118.92 159.232 119 159.792 119H165.952C166.352 119 166.392 118.92 166.392 118.4ZM200.506 115.92V104.24C200.506 103.64 200.426 103.48 199.746 103.48H190.506C189.746 103.48 189.666 103.56 189.666 104.32V108.76C189.666 109.44 189.746 109.48 190.426 109.48L193.626 109.52V113.28C193.026 113.48 192.066 113.6 191.546 113.6C187.546 113.6 187.026 108.2 187.026 105.08C187.026 98.76 189.066 97.32 191.466 97.32C193.826 97.32 195.546 98.32 196.826 98.96C196.986 99.04 197.186 99.16 197.386 99.16C197.506 99.16 197.626 99.12 197.706 98.96L199.946 94.28C199.986 94.16 200.026 94.08 200.026 94C200.026 93.8 199.906 93.56 199.746 93.44C197.746 91.72 194.186 90.88 191.266 90.88C183.186 90.88 179.306 96.32 179.266 105.44V105.6C179.266 114.6 183.066 119.68 191.186 119.68C194.746 119.68 200.506 117.8 200.506 115.92ZM223.236 109.16C223.236 102.84 219.836 98.56 213.516 98.56C207.196 98.56 203.636 102.84 203.636 109.08C203.636 115.48 207.076 119.68 213.476 119.68C219.676 119.68 223.236 115.32 223.236 109.16ZM216.116 109.12C216.116 113.56 215.116 114.8 213.436 114.8C211.756 114.8 210.756 113.6 210.756 109.16C210.756 104.64 211.756 103.44 213.436 103.44C215.116 103.44 216.116 104.68 216.116 109.12ZM237.863 117.56L236.823 113.44C236.783 113.24 236.663 113.2 236.503 113.2C236.223 113.2 235.303 113.64 234.383 113.64C234.063 113.64 233.823 113.28 233.823 112.76V90.8C233.823 90.24 233.783 90.08 233.463 90.08C233.343 90.08 233.183 90.08 232.983 90.12L226.983 90.92C226.503 91 226.463 91.16 226.463 91.8L226.503 112.96C226.503 115.32 226.863 116.72 228.023 118C229.103 119.12 230.823 119.68 232.623 119.68C233.943 119.68 237.903 118.84 237.903 117.84C237.903 117.76 237.903 117.68 237.863 117.56ZM258.425 117.12C258.105 116.08 257.705 115.44 257.705 113.76V90.72C257.705 90.2 257.545 90.08 257.265 90.08C257.145 90.08 257.025 90.08 256.905 90.12L250.865 91.12C250.545 91.16 250.505 91.36 250.505 91.68V99.2C249.505 98.8 248.545 98.52 247.545 98.52C245.105 98.52 243.025 99.24 241.465 100.96C239.545 103.08 239.105 105.4 239.105 109.48C239.105 115.28 241.425 119.68 246.585 119.68C248.265 119.68 250.105 119.04 251.785 117.8C252.105 118.96 252.465 119.52 252.905 119.52C253.185 119.52 253.385 119.52 253.785 119.4L258.145 118.04C258.425 117.96 258.545 117.84 258.545 117.64C258.545 117.52 258.505 117.36 258.425 117.12ZM250.505 113.84C249.865 114.36 248.865 114.76 248.065 114.76C246.785 114.76 245.785 113.52 245.785 108.96C245.785 104.32 246.785 103.16 248.345 103.16C249.025 103.16 249.825 103.32 250.505 103.56V113.84ZM271.537 91.96V91.72C271.537 91.24 271.377 91.12 270.697 91.12H263.817C263.137 91.12 263.017 91.2 263.017 91.68L264.017 107.68C264.057 108.36 264.137 108.48 264.817 108.48H269.737C270.417 108.48 270.497 108.36 270.537 107.68L271.537 91.96ZM271.937 115.76C271.937 113.24 269.857 111.16 267.337 111.16C264.817 111.16 262.737 113.24 262.737 115.76C262.737 118.28 264.817 120.36 267.337 120.36C269.857 120.36 271.937 118.28 271.937 115.76Z" fill="url(#paint0_linear)"/>
</g>
<defs>
<filter id="filter0_d" x="0.101562" y="0.560059" width="306.798" height="130.84" filterUnits="userSpaceOnUse" color-interpolation-filters="sRGB">
<feFlood flood-opacity="0" result="BackgroundImageFix"/>
<feColorMatrix in="SourceAlpha" type="matrix" values="0 0 0 0 0 0 0 0 0 0 0 0 0 0 0 0 0 0 127 0"/>
<feOffset dx="-2" dy="2"/>
<feGaussianBlur stdDeviation="1"/>
<feColorMatrix type="matrix" values="0 0 0 0 0.407789 0 0 0 0 0.153002 0 0 0 0 0.000130266 0 0 0 0.75 0"/>
<feBlend mode="normal" in2="BackgroundImageFix" result="effect1_dropShadow"/>
<feBlend mode="normal" in="SourceGraphic" in2="effect1_dropShadow" result="shape"/>
</filter>
<linearGradient id="paint0_linear" x1="302.9" y1="35.15" x2="168.559" y2="260.568" gradientUnits="userSpaceOnUse">
<stop offset="0.34855" stop-color="white"/>
<stop offset="0.806911" stop-color="#FFE686"/>
<stop offset="1" stop-color="#F7B545"/>
</linearGradient>
</defs>
</svg>
