<svg width="10" height="15" viewBox="0 0 10 15" fill="none" xmlns="http://www.w3.org/2000/svg">
<path fill-rule="evenodd" clip-rule="evenodd" d="M2 3.41176C2 5.29603 3.34315 6.82353 5 6.82353C6.65685 6.82353 8 5.29603 8 3.41176C8 1.5275 6.65685 0 5 0C3.34315 0 2 1.5275 2 3.41176ZM3.50669 14.8439C3.97826 14.8151 4.47986 14.7843 5 14.7843C5.52014 14.7843 6.02174 14.8151 6.49331 14.8439C8.52532 14.9684 10 15.0587 10 12.5098C10 9.36937 7.76142 7.9608 5 7.9608C2.23858 7.9608 0 9.36937 0 12.5098C0 15.0587 1.47468 14.9684 3.50669 14.8439Z" fill="#682700"/>
</svg>
