<svg width="10" height="10" viewBox="0 0 10 10" fill="none" xmlns="http://www.w3.org/2000/svg">
<path d="M0.00634766 4.51555C0.00634766 4.10047 0.342829 3.76399 0.7579 3.76399H8.27343C8.6885 3.76399 9.02498 4.10047 9.02498 4.51555C9.02498 4.93062 8.6885 5.2671 8.27343 5.2671H0.757899C0.342828 5.2671 0.00634766 4.93062 0.00634766 4.51555Z" fill="#682700"/>
<path d="M4.51554 0.00619504C4.93061 0.00619505 5.26709 0.342677 5.26709 0.757748L5.26709 8.27328C5.26709 8.68835 4.93061 9.02483 4.51554 9.02483C4.10047 9.02483 3.76398 8.68835 3.76398 8.27328L3.76398 0.757747C3.76398 0.342676 4.10047 0.00619502 4.51554 0.00619504Z" fill="#682700"/>
</svg>
