<svg width="50" height="50" viewBox="0 0 50 50" fill="none" xmlns="http://www.w3.org/2000/svg">
<circle cx="25" cy="25" r="25" fill="url(#paint0_linear)"/>
<path d="M38 27.3137C38 27.6187 37.9508 27.8148 37.8524 27.902C37.7539 27.9673 37.4751 28 37.0157 28H14.0335C13.5741 28 13.2789 27.9673 13.1476 27.902C13.0492 27.8148 13 27.6187 13 27.3137V23.6863C13 23.403 13.0492 23.2179 13.1476 23.1307C13.2789 23.0436 13.5741 23 14.0335 23H37.0157C37.4751 23 37.7539 23.0436 37.8524 23.1307C37.9508 23.2179 38 23.403 38 23.6863V27.3137Z" fill="#682700"/>
<path d="M23.6863 38C23.3813 38 23.1852 37.9508 23.098 37.8524C23.0327 37.7539 23 37.4751 23 37.0157L23 14.0335C23 13.5741 23.0327 13.2789 23.098 13.1476C23.1852 13.0492 23.3813 13 23.6863 13L27.3137 13C27.597 13 27.7821 13.0492 27.8693 13.1476C27.9564 13.2789 28 13.5741 28 14.0335L28 37.0157C28 37.4751 27.9564 37.7539 27.8693 37.8524C27.7821 37.9508 27.5969 38 27.3137 38L23.6863 38Z" fill="#682700"/>
<defs>
<linearGradient id="paint0_linear" x1="68.887" y1="-34.3813" x2="-19.0002" y2="81.5153" gradientUnits="userSpaceOnUse">
<stop stop-color="white"/>
<stop offset="0.530853" stop-color="#FFE686"/>
<stop offset="1" stop-color="#F7B545"/>
</linearGradient>
</defs>
</svg>
