<svg width="17" height="17" viewBox="0 0 17 17" fill="none" xmlns="http://www.w3.org/2000/svg">
<path fill-rule="evenodd" clip-rule="evenodd" d="M1.20711 7.5C1.20711 9.02862 1.66442 10.4504 2.4497 11.6361L0.43934 13.6464C-0.146447 14.2322 -0.146447 15.182 0.43934 15.7678C1.02513 16.3536 1.97487 16.3536 2.56066 15.7678L4.57102 13.7574C5.75667 14.5427 7.17848 15 8.70711 15C12.8492 15 16.2071 11.6421 16.2071 7.5C16.2071 3.35786 12.8492 0 8.70711 0C4.56497 0 1.20711 3.35786 1.20711 7.5ZM13.2072 7.5C13.2072 9.98528 11.1924 12 8.70715 12C6.22187 12 4.20715 9.98528 4.20715 7.5C4.20715 5.01472 6.22187 3 8.70715 3C11.1924 3 13.2072 5.01472 13.2072 7.5Z" fill="#00521D"/>
</svg>
