<svg width="161" height="48" viewBox="0 0 161 48" fill="none" xmlns="http://www.w3.org/2000/svg">
<path d="M161 27.6225C161 34.5616 93.1797 48 80.4707 48C67.7617 48 0 34.806 0 26.8895C0 18.9731 0.112034 0 0.112034 0H160.87C160.87 0 161 20.7323 161 27.6225Z" fill="url(#paint0_linear)"/>
<path d="M25.5545 18.352C25.5545 14.736 24.2105 12.752 21.3785 12.752C17.9545 12.752 17.1705 15.792 17.1705 18.352C17.1705 22.224 18.4665 24.272 21.3145 24.272C24.1945 24.272 25.5545 22.176 25.5545 18.352ZM22.8345 18.496C22.8345 21.184 22.2745 22.256 21.3785 22.256C20.4825 22.256 19.8905 21.216 19.8905 18.56C19.8905 15.904 20.4985 14.768 21.3785 14.768C22.2905 14.768 22.8345 15.792 22.8345 18.496ZM30.374 15.264H31.83V23.68C31.83 23.904 31.894 24 32.166 24H34.166C34.422 24 34.486 23.888 34.486 23.68V13.312C34.486 13.104 34.374 13.024 34.23 13.024H28.278C28.07 13.024 27.958 13.136 27.958 13.344V15.632C27.958 16.336 27.958 17.024 27.942 18.08C27.91 19.36 27.958 20.768 27.27 21.488C26.886 21.888 26.406 21.968 26.102 22.032L25.878 22.08C25.798 22.096 25.67 22.128 25.67 22.32C25.67 22.368 25.686 22.432 25.702 22.496L26.166 24.048C26.214 24.224 26.342 24.24 26.502 24.24C27.254 24.24 28.278 23.952 28.966 23.264C29.974 22.256 30.166 20.816 30.246 19.584C30.294 18.848 30.374 17.2 30.374 16.464V15.264ZM39.2273 19.216H40.0273C40.8433 19.216 41.5153 19.648 41.5153 20.592C41.5153 21.952 40.4913 21.952 39.9153 21.952H39.2273V19.216ZM36.8913 13.024C36.6353 13.024 36.5713 13.136 36.5713 13.344V23.68C36.5713 23.888 36.6833 24 36.8913 24H40.1553C41.0673 24 42.2833 23.888 43.1473 23.056C43.8993 22.336 44.0433 21.376 44.0433 20.656C44.0433 19.296 43.5312 18.544 43.1633 18.192C42.3633 17.392 41.2433 17.296 40.3793 17.296H39.2273V13.232C39.2273 13.024 39.1153 13.024 38.9553 13.024H36.8913ZM51.5236 13.024H45.8756C45.5716 13.024 45.5556 13.056 45.5556 13.36V23.68C45.5556 23.952 45.5716 24 45.8756 24H47.8756C48.1476 24 48.2116 23.952 48.2116 23.68V15.312H51.2516C51.4916 15.312 51.5556 15.28 51.6036 15.04L51.8916 13.392C51.9076 13.328 51.9076 13.28 51.9076 13.232C51.9076 13.056 51.8116 13.024 51.5236 13.024ZM60.1763 23.616L56.9123 13.296C56.8323 13.04 56.8163 13.024 56.5603 13.024H54.5283C54.2723 13.024 54.2563 13.056 54.1763 13.296L50.9123 23.648C50.8803 23.728 50.8643 23.776 50.8643 23.84C50.8643 23.936 50.9283 24 51.1683 24H53.2483C53.5043 24 53.5363 23.984 53.6003 23.728L54.2563 21.264H56.6563L57.3123 23.728C57.3763 23.984 57.4083 24 57.6643 24H59.9043C60.1283 24 60.2083 23.936 60.2083 23.808C60.2083 23.76 60.1923 23.696 60.1763 23.616ZM56.2243 19.44H54.5443L55.0723 17.136C55.2003 16.56 55.3283 15.888 55.4243 15.152C55.5523 15.968 55.6163 16.56 55.7443 17.136L56.2243 19.44ZM71.8553 22.976L71.1193 21.52C71.0713 21.424 71.0233 21.376 70.9753 21.376C70.9273 21.376 70.8793 21.408 70.8153 21.456C70.3993 21.76 69.8873 22.08 69.2313 22.08C68.0793 22.08 67.3593 20.992 67.3593 18.064C67.3593 15.84 68.0312 14.944 69.0073 14.944C69.7433 14.944 70.3033 15.44 70.7993 15.744C70.8473 15.776 70.8793 15.792 70.9273 15.792C71.0073 15.792 71.0553 15.744 71.1033 15.648L71.8393 14.144C71.8713 14.096 71.8713 14.048 71.8713 14C71.8713 13.888 71.7913 13.824 71.6633 13.712C70.9433 13.104 69.8553 12.752 68.9113 12.752C66.2713 12.752 64.6393 14.848 64.6393 18.384C64.6393 22.112 66.1113 24.272 69.0073 24.272C70.0153 24.272 71.9033 23.712 71.9033 23.136C71.9033 23.088 71.8873 23.04 71.8553 22.976ZM79.5494 13.376C79.5654 13.296 79.5814 13.216 79.5814 13.168C79.5814 13.056 79.5174 13.024 79.3094 13.024H73.4694C73.1654 13.024 73.1494 13.072 73.1494 13.344V23.664C73.1494 23.968 73.1654 24 73.4694 24H79.1334C79.4054 24 79.4694 23.936 79.4694 23.664V22.208C79.4694 21.904 79.4054 21.872 79.1334 21.872H75.8054V19.392H78.4134C78.6854 19.392 78.7494 19.328 78.7494 19.056V17.584C78.7494 17.28 78.6854 17.248 78.4134 17.248H75.8054V15.152H78.9094C79.1174 15.152 79.2134 15.088 79.2614 14.88L79.5494 13.376ZM88.144 16.128C88.144 15.184 87.792 14.256 87.216 13.744C86.592 13.2 85.76 13.024 84.224 13.024H81.36C81.056 13.024 81.04 13.04 81.04 13.344V23.664C81.04 23.968 81.056 24 81.36 24H83.36C83.632 24 83.696 23.968 83.696 23.664V19.76H84.336C86.64 19.76 88.144 18.32 88.144 16.128ZM85.696 16.272C85.696 17.312 85.28 17.68 84.08 17.68H83.696V14.96H84.208C85.264 14.96 85.696 15.296 85.696 16.272ZM92.723 13.024C91.955 13.024 90.611 13.088 89.715 14C89.043 14.672 88.915 15.52 88.915 16.224C88.915 17.264 89.347 18.352 90.803 18.64V18.672C90.739 18.704 90.371 18.864 90.099 19.136C89.763 19.472 89.619 19.92 89.539 20.288L89.363 21.12C89.251 21.584 89.107 21.984 88.371 22.112L88.227 22.144C88.099 22.176 88.019 22.272 88.019 22.4C88.019 22.432 88.019 22.48 88.035 22.512L88.531 24.032C88.611 24.256 88.739 24.272 88.915 24.272C89.523 24.272 90.339 24.096 90.883 23.568C91.363 23.104 91.507 22.496 91.603 21.968L91.779 20.944C91.875 20.368 91.955 19.632 93.059 19.632H93.475V23.68C93.475 23.888 93.539 24 93.795 24H95.811C96.019 24 96.131 23.936 96.131 23.68V13.312C96.131 13.072 96.035 13.024 95.811 13.024H92.723ZM93.475 17.664H92.787C91.747 17.664 91.443 16.88 91.443 16.32C91.443 16.112 91.475 15.616 91.795 15.296C92.099 14.992 92.499 14.992 92.739 14.992H93.475V17.664ZM100.868 15.232H104.228C104.388 15.232 104.5 15.136 104.532 15.008L104.916 13.296C104.932 13.248 104.932 13.232 104.932 13.2C104.932 13.04 104.804 13.024 104.692 13.024H98.4999C98.3239 13.024 98.2119 13.136 98.2119 13.344V23.712C98.2119 23.856 98.2439 24 98.4519 24H101.892C103.156 24 105.684 23.84 105.684 20.592C105.684 19.984 105.572 18.976 104.82 18.208C104.004 17.376 102.98 17.296 102.02 17.296H100.868V15.232ZM100.868 19.216H101.524C102.244 19.216 103.156 19.408 103.156 20.576C103.156 21.792 102.18 21.952 101.588 21.952H100.868V19.216ZM109.674 24C109.93 24 109.946 23.808 109.946 23.68V19.344H110.57C111.178 19.344 111.642 19.616 111.738 20.368L112.01 22.064C112.09 22.544 112.218 23.136 112.618 23.568C113.194 24.192 114.074 24.272 114.682 24.272C114.97 24.272 115.002 24.16 115.05 24.032L115.546 22.432C115.562 22.4 115.562 22.352 115.562 22.32C115.562 22.208 115.514 22.144 115.386 22.112L115.05 22.048C114.57 21.952 114.378 21.776 114.282 21.2L114.026 19.92C113.914 19.424 113.642 18.56 112.618 18.288V18.24C113.482 17.936 113.786 17.184 113.866 16.672L114.026 15.696C114.09 15.36 114.234 15.04 114.762 14.88L115.13 14.784C115.242 14.752 115.306 14.656 115.306 14.544C115.306 14.512 115.306 14.48 115.29 14.448L114.874 12.96C114.842 12.832 114.73 12.752 114.49 12.752C113.914 12.752 112.97 13.056 112.522 13.52C112.09 13.952 111.978 14.48 111.898 14.96L111.706 16.128C111.562 16.912 111.242 17.296 110.426 17.296H109.946V13.344C109.946 13.216 109.914 13.024 109.69 13.024H107.546C107.322 13.024 107.29 13.216 107.29 13.344V23.68C107.29 23.888 107.354 24 107.61 24H109.674ZM116.681 23.728C116.681 23.856 116.697 24 116.889 24H118.969C119.193 24 119.273 23.936 119.385 23.696L121.529 18.864C121.785 18.304 122.057 17.664 122.345 16.784H122.393C122.281 17.68 122.201 18.736 122.201 19.488V23.744C122.201 23.888 122.217 24 122.409 24H124.649C124.841 24 124.857 23.84 124.857 23.712V13.344C124.857 13.056 124.713 13.024 124.521 13.024H122.409C122.313 13.024 122.201 13.024 122.105 13.232L120.089 17.744C119.705 18.592 119.449 19.168 119.177 19.936H119.113C119.193 19.312 119.337 17.696 119.337 16.88V13.344C119.337 13.168 119.289 13.024 119.065 13.024H116.969C116.793 13.024 116.681 13.136 116.681 13.344V23.728ZM134.755 23.664V13.344C134.755 13.072 134.723 13.024 134.419 13.024H132.435C132.131 13.024 132.099 13.072 132.099 13.344V17.296H129.587V13.344C129.587 13.072 129.523 13.024 129.251 13.024H127.267C126.963 13.024 126.931 13.072 126.931 13.344V23.664C126.931 23.968 126.963 24 127.267 24H129.251C129.523 24 129.587 23.968 129.587 23.664V19.408H132.099V23.664C132.099 23.968 132.131 24 132.435 24H134.419C134.723 24 134.755 23.968 134.755 23.664ZM145.317 23.616L142.053 13.296C141.973 13.04 141.957 13.024 141.701 13.024H139.669C139.413 13.024 139.397 13.056 139.317 13.296L136.053 23.648C136.021 23.728 136.005 23.776 136.005 23.84C136.005 23.936 136.069 24 136.309 24H138.389C138.645 24 138.677 23.984 138.741 23.728L139.397 21.264H141.797L142.453 23.728C142.517 23.984 142.549 24 142.805 24H145.045C145.269 24 145.349 23.936 145.349 23.808C145.349 23.76 145.333 23.696 145.317 23.616ZM141.365 19.44H139.685L140.213 17.136C140.341 16.56 140.469 15.888 140.565 15.152C140.693 15.968 140.757 16.56 140.885 17.136L141.365 19.44Z" fill="white"/>
<defs>
<linearGradient id="paint0_linear" x1="80.7726" y1="48.0225" x2="80.7726" y2="-3.75001" gradientUnits="userSpaceOnUse">
<stop stop-color="#A90000"/>
<stop offset="0.468349" stop-color="#D20000"/>
<stop offset="1" stop-color="#FA0000"/>
</linearGradient>
</defs>
</svg>
